<svg width="215" height="150" viewBox="0 0 215 150" fill="none" xmlns="http://www.w3.org/2000/svg">
<path d="M181.315 78.2341C180.673 90.249 177.068 102.231 170.929 112.587C160.647 129.937 143.42 143.487 121.523 147.596C110.592 149.558 102.641 149.31 93.712 147.94C87.2708 146.506 83.2156 141.273 87.5406 135.054C92.8401 127.431 100.351 122.421 107.849 117.411C129.717 102.797 152.946 90.5824 176.39 78.7457C179.011 77.4243 181.499 74.81 181.315 78.2341Z" fill="#F1F0F2"/>
<path d="M196.868 50.2C202.375 45.8433 207.695 40.2464 211.464 34.2503L211.47 34.2458L211.477 34.2412C215.624 27.6381 213.269 21.6763 205.671 19.8691C196.935 17.79 189.528 18.6273 180.587 19.8691C178.409 20.1715 177.854 20.6405 177.109 21.1109C175.601 22.0634 175.434 24.9712 177.606 25.3331C181.581 25.5816 194.601 24.6922 197.724 26.0782C206.621 30.0281 182.275 43.1791 179.076 45.7248C177.156 47.2497 176.237 47.0666 175.157 44.6658C166.69 25.8421 152.902 12.4949 133.635 4.91643C121.559 0.168714 109.118 -0.918184 96.2649 0.706191C89.3388 1.5812 83.9051 3.48349 77.5418 5.96248C75.4433 6.77997 72.6672 8.1725 70.7366 9.28193C66.2113 11.8774 62.0464 14.7885 58.2557 18.0315C54.954 20.8562 56.8933 25.913 61.2196 26.3192L140.873 33.7973C144.408 34.1292 146.155 38.2579 143.932 41.0257L99.5058 97.8314C97.89 99.8433 99.9532 103.161 102.349 102.202C120.422 94.9485 137.993 86.1459 155.39 77.3986C169.897 70.1037 184.166 60.2465 196.868 50.2Z" fill="#F1F0F2"/>
<path fill-rule="evenodd" clip-rule="evenodd" d="M114.126 55.0529C116.961 52.0149 114.464 47.0921 110.337 47.5862L38.1844 56.2275C36.0019 56.4889 34.1858 58.0618 33.7454 60.2151C30.9706 73.7786 32.0775 87.4383 37.2983 101.111C39.2533 106.233 39.3758 106.38 34.0982 107.029C33.4101 107.114 32.7205 107.207 32.0299 107.301C28.0509 107.84 24.0347 108.385 20.0312 107.248C10.354 104.491 25.2381 95.3244 26.3619 91.4075C27.1917 88.515 23.2601 87.4316 20.802 89.1675C12.9252 94.7301 5.42634 101.222 0.776273 109.806C-0.217414 111.793 -0.0945048 114.278 0.279355 115.622C3.03271 125.514 24.3498 123.718 31.3728 122.457C40.5755 120.805 47.2202 120.205 56.1613 117.473C58.5998 116.727 58.6449 116.48 62.3704 112.641C81.2461 95.1202 98.5199 71.2318 114.126 55.0529Z" fill="#F1F0F2"/>
</svg>
