<svg width="400" height="400" viewBox="0 0 400 400" fill="none" xmlns="http://www.w3.org/2000/svg">
<path d="M319.98 205.244C318.94 224.724 313.094 244.152 303.14 260.943C286.469 289.073 258.538 311.043 223.035 317.706C205.311 320.887 192.42 320.484 177.942 318.263C167.499 315.938 160.924 307.454 167.936 297.371C176.529 285.01 188.707 276.888 200.863 268.765C236.321 245.07 273.984 225.265 311.995 206.073C316.245 203.931 320.278 199.692 319.98 205.244Z" fill="#A43189"/>
<path d="M345.197 159.79C354.126 152.726 362.752 143.651 368.862 133.929L368.873 133.922L368.884 133.915C375.608 123.209 371.79 113.542 359.47 110.612C345.305 107.241 333.296 108.599 318.799 110.612C315.268 111.102 314.368 111.863 313.161 112.626C310.715 114.17 310.445 118.884 313.967 119.471C320.411 119.874 341.522 118.432 346.585 120.679C361.01 127.084 321.536 148.406 316.349 152.534C313.237 155.006 311.746 154.709 309.996 150.817C296.268 120.297 273.912 98.6557 242.672 86.3682C223.093 78.6704 202.921 76.9081 182.082 79.5418C170.852 80.9605 162.042 84.0449 151.724 88.0642C148.322 89.3897 143.821 91.6475 140.691 93.4463C133.353 97.6545 126.601 102.374 120.454 107.633C115.101 112.213 118.246 120.412 125.26 121.07L254.408 133.195C260.14 133.733 262.972 140.427 259.368 144.915L187.336 237.018C184.717 240.28 188.062 245.659 191.946 244.105C221.25 232.344 249.739 218.072 277.946 203.889C301.468 192.061 324.602 176.079 345.197 159.79Z" fill="#F0546C"/>
<path fill-rule="evenodd" clip-rule="evenodd" d="M211.041 167.658C215.638 162.733 211.589 154.751 204.898 155.552L87.9114 169.563C84.3728 169.987 81.4282 172.537 80.7141 176.028C76.2151 198.02 78.0099 220.167 86.4747 242.335C89.6445 250.64 89.8432 250.879 81.2862 251.931C80.1705 252.068 79.0524 252.22 77.9326 252.372C71.4813 253.246 64.9694 254.129 58.4783 252.286C42.7878 247.817 66.9205 232.954 68.7426 226.603C70.0881 221.913 63.7136 220.156 59.728 222.971C46.9568 231.99 34.7983 242.515 27.2588 256.433C25.6476 259.655 25.8469 263.685 26.4531 265.863C30.9173 281.902 65.4803 278.991 76.8673 276.946C91.7883 274.267 102.562 273.294 117.059 268.865C121.012 267.656 121.086 267.255 127.126 261.031C157.731 232.623 185.738 193.89 211.041 167.658Z" fill="#FFB471"/>
</svg>
