<svg width="73" height="23" viewBox="0 0 73 23" fill="none" xmlns="http://www.w3.org/2000/svg">
<path d="M19.0286 8.21059C18.9613 9.47156 18.5829 10.7291 17.9386 11.816C16.8595 13.6368 15.0515 15.059 12.7534 15.4902C11.6061 15.6961 10.7717 15.67 9.83459 15.5263C9.15858 15.3758 8.73298 14.8266 9.18689 14.1739C9.74308 13.3738 10.5314 12.8481 11.3182 12.3223C13.6134 10.7885 16.0513 9.50655 18.5117 8.26428C18.7868 8.1256 19.0479 7.85123 19.0286 8.21059Z" fill="#A43189"/>
<path d="M20.6615 5.26853C21.2394 4.81129 21.7978 4.2239 22.1933 3.59459L22.194 3.59412L22.1947 3.59364C22.63 2.90064 22.3828 2.27495 21.5853 2.08528C20.6685 1.86708 19.8911 1.95495 18.9527 2.08528C18.7242 2.11702 18.6659 2.16624 18.5878 2.21561C18.4294 2.31557 18.412 2.62075 18.64 2.65873C19.0571 2.68481 20.4236 2.59147 20.7513 2.73693C21.6851 3.15148 19.1299 4.53168 18.7942 4.79886C18.5927 4.95889 18.4962 4.93968 18.3829 4.68772C17.4943 2.71216 16.0473 1.31135 14.0251 0.515984C12.7577 0.0177066 11.452 -0.0963642 10.1031 0.0741153C9.37619 0.165948 8.80593 0.365596 8.13809 0.625767C7.91785 0.711563 7.6265 0.857711 7.42388 0.974147C6.94894 1.24654 6.51184 1.55206 6.114 1.89242C5.76749 2.18888 5.97102 2.71959 6.42506 2.76222L14.7847 3.54706C15.1558 3.58188 15.3391 4.0152 15.1058 4.30568L10.4432 10.2675C10.2736 10.4786 10.4902 10.8268 10.7416 10.7262C12.6385 9.96492 14.4825 9.04108 16.3083 8.12305C17.8309 7.35745 19.3284 6.32292 20.6615 5.26853Z" fill="#F0546C"/>
<path fill-rule="evenodd" clip-rule="evenodd" d="M11.977 5.77798C12.2747 5.45914 12.0125 4.94249 11.5795 4.99435L4.00695 5.90126C3.7779 5.92869 3.5873 6.09377 3.54107 6.31976C3.24985 7.74326 3.36603 9.17685 3.91395 10.6118C4.11913 11.1493 4.13199 11.1648 3.5781 11.2329C3.50588 11.2418 3.43351 11.2516 3.36103 11.2614C2.94344 11.318 2.52192 11.3752 2.10176 11.2559C1.08612 10.9666 2.64822 10.0045 2.76616 9.59342C2.85325 9.28986 2.44064 9.17615 2.18265 9.35834C1.35598 9.94214 0.568964 10.6234 0.0809354 11.5243C-0.0233528 11.7329 -0.0104534 11.9937 0.0287835 12.1347C0.317751 13.1729 2.55499 12.9845 3.29207 12.8521C4.2579 12.6787 4.95526 12.6157 5.89364 12.329C6.14957 12.2508 6.1543 12.2248 6.54529 11.8219C8.52631 9.98308 10.3392 7.47597 11.977 5.77798Z" fill="#FFB471"/>
<path d="M28.345 12.9792C29.5537 12.9792 30.6132 12.406 31.102 11.5052V12.8427H31.9033V5.63682H31.102V6.98793C30.6132 6.08719 29.5537 5.50037 28.345 5.50037C26.3757 5.50037 24.8003 7.05616 24.8003 9.25342C24.8003 11.4233 26.3757 12.9792 28.345 12.9792ZM25.683 9.25342C25.683 7.56113 26.851 6.33286 28.44 6.33286C29.8933 6.33286 31.1156 7.35642 31.1156 9.25342C31.1156 11.1368 29.8933 12.1467 28.44 12.1467C26.851 12.1467 25.683 10.9321 25.683 9.25342Z" fill="#F1F0F2"/>
<path d="M38.935 9.99063V5.63708H38.0659V9.96333C38.0659 11.3827 37.4276 12.1469 36.2323 12.1469C35.0508 12.1469 34.3989 11.3827 34.3989 9.96333V5.63708H33.5298V9.99063C33.5298 11.874 34.5348 12.9794 36.2323 12.9794C37.9436 12.9794 38.935 11.874 38.935 9.99063Z" fill="#F1F0F2"/>
<path d="M40.8671 12.8429H41.7364V6.45591H42.6734V5.63705H41.7364V3.23511L40.8671 3.60358V5.63705H39.9844V6.45591H40.8671V12.8429Z" fill="#F1F0F2"/>
<path d="M43.7844 12.8428H44.6536V8.51653C44.6536 7.09719 45.292 6.33294 46.5007 6.33294C47.6823 6.33294 48.3206 7.09719 48.3206 8.51653V12.8428H49.1897V8.47558C49.1897 6.59224 48.2527 5.50045 46.6637 5.50045C45.7266 5.50045 45.0338 5.88257 44.64 6.53765C44.6536 6.16916 44.6536 5.80069 44.6536 5.39126V2.33423H43.7844V12.8428Z" fill="#F1F0F2"/>
<path d="M50.1146 12.8428H55.8459L56.1176 10.9048H53.2519L56.0767 5.88257V5.60962H50.5899L50.3183 7.54756H52.9395L50.1146 12.5698V12.8428Z" fill="#F1F0F2"/>
<path d="M60.3208 13.0202C61.7468 13.0202 62.8877 12.4198 63.6889 11.3552L62.3037 10.1952C61.7741 10.8639 61.1221 11.1915 60.3615 11.1915C59.4108 11.1915 58.7182 10.6729 58.5145 9.81309H63.6889C63.9878 6.78334 62.1815 5.43225 60.2122 5.43225C58.1207 5.43225 56.491 6.97441 56.491 9.25355C56.491 11.4644 58.0255 13.0202 60.3208 13.0202ZM58.5417 8.32552C58.7725 7.62949 59.3837 7.17913 60.1985 7.17913C61 7.17913 61.5431 7.58855 61.7061 8.32552H58.5417Z" fill="#F1F0F2"/>
<path d="M67.9485 12.9793C68.7498 12.9793 69.5375 12.7063 70.0263 12.1877L70.0399 12.8428H71.9413V2.29333H69.7955V4.35411C69.7955 4.95459 69.809 5.52779 69.8362 6.08733C69.3338 5.67792 68.6546 5.47319 67.9485 5.47319C66.0064 5.47319 64.3629 7.00172 64.3629 9.22624C64.3629 11.4508 66.0064 12.9793 67.9485 12.9793ZM66.5088 9.22624C66.5088 8.13445 67.2422 7.43843 68.2336 7.43843C69.2115 7.43843 69.9313 8.13445 69.9313 9.22624C69.9313 10.318 69.2115 11.0141 68.2336 11.0141C67.2422 11.0141 66.5088 10.318 66.5088 9.22624Z" fill="#F1F0F2"/>
<path d="M25.6781 17.5201H26.4265L27.7277 20.6973H27.7756L29.0769 17.5201H29.8253V21.6074H29.2385V18.6497H29.2006L27.9952 21.6014H27.5082L26.3027 18.6477H26.2648V21.6074H25.6781V17.5201ZM32.1912 21.6074H31.5366L33.0075 17.5201H33.72L35.1908 21.6074H34.5362L33.3807 18.2625H33.3487L32.1912 21.6074ZM32.301 20.0068H34.4245V20.5257H32.301V20.0068ZM36.2206 18.0509V17.5201H39.3839V18.0509H38.1086V21.6074H37.4939V18.0509H36.2206ZM41.2069 21.6074V17.5201H43.7695V18.0509H41.8236V19.2963H43.6358V19.8252H41.8236V21.0765H43.7935V21.6074H41.2069ZM45.7173 21.6074V17.5201H47.1742C47.4909 17.5201 47.7536 17.5746 47.9625 17.6837C48.1728 17.7928 48.3298 17.9438 48.4335 18.1368C48.5373 18.3284 48.5892 18.5499 48.5892 18.8014C48.5892 19.0515 48.5367 19.2717 48.4315 19.462C48.3278 19.6509 48.1708 19.7979 47.9605 19.903C47.7517 20.0081 47.4889 20.0607 47.1722 20.0607H46.0685V19.5298H47.1163C47.3159 19.5298 47.4782 19.5012 47.6033 19.444C47.7297 19.3868 47.8222 19.3036 47.8807 19.1945C47.9393 19.0854 47.9685 18.9544 47.9685 18.8014C47.9685 18.647 47.9386 18.5133 47.8787 18.4002C47.8202 18.2871 47.7277 18.2006 47.6013 18.1408C47.4762 18.0795 47.3119 18.0489 47.1083 18.0489H46.334V21.6074H45.7173ZM47.735 19.7633L48.7449 21.6074H48.0424L47.0525 19.7633H47.735ZM51.0803 17.5201V21.6074H50.4636V17.5201H51.0803ZM53.4477 21.6074H52.7931L54.264 17.5201H54.9765L56.4474 21.6074H55.7928L54.6372 18.2625H54.6053L53.4477 21.6074ZM53.5575 20.0068H55.681V20.5257H53.5575V20.0068ZM58.1617 21.6074V17.5201H58.7784V21.0765H60.6305V21.6074H58.1617ZM63.0747 17.5201V21.6074H62.458V17.5201H63.0747ZM64.991 21.6074V21.1963L67.1405 18.0509H64.9731V17.5201H67.8949V17.9312L65.7454 21.0765H67.9129V21.6074H64.991ZM69.8102 21.6074V17.5201H72.3728V18.0509H70.4269V19.2963H72.2391V19.8252H70.4269V21.0765H72.3968V21.6074H69.8102Z" fill="#F1F0F2"/>
</svg>
