<svg width="73" height="23" viewBox="0 0 73 23" fill="none" xmlns="http://www.w3.org/2000/svg">
<path d="M19.0286 8.21059C18.9613 9.47156 18.5829 10.7291 17.9386 11.816C16.8595 13.6368 15.0515 15.059 12.7534 15.4902C11.6061 15.6961 10.7717 15.67 9.83459 15.5263C9.15858 15.3758 8.73298 14.8266 9.18689 14.1739C9.74308 13.3738 10.5314 12.8481 11.3182 12.3223C13.6134 10.7885 16.0513 9.50655 18.5117 8.26428C18.7868 8.1256 19.0479 7.85123 19.0286 8.21059Z" fill="#A43189"/>
<path d="M20.6615 5.26853C21.2394 4.81129 21.7978 4.2239 22.1933 3.59459L22.194 3.59412L22.1947 3.59364C22.63 2.90064 22.3828 2.27495 21.5853 2.08528C20.6685 1.86708 19.8911 1.95495 18.9527 2.08528C18.7242 2.11702 18.6659 2.16624 18.5878 2.21561C18.4294 2.31557 18.412 2.62075 18.64 2.65873C19.0571 2.68481 20.4236 2.59147 20.7513 2.73693C21.6851 3.15148 19.1299 4.53168 18.7942 4.79886C18.5927 4.95889 18.4962 4.93968 18.3829 4.68772C17.4943 2.71216 16.0473 1.31135 14.0251 0.515984C12.7577 0.0177066 11.452 -0.0963642 10.1031 0.0741153C9.37619 0.165948 8.80593 0.365596 8.13809 0.625767C7.91785 0.711563 7.6265 0.857711 7.42388 0.974147C6.94894 1.24654 6.51184 1.55206 6.114 1.89242C5.76749 2.18888 5.97102 2.71959 6.42506 2.76222L14.7847 3.54706C15.1558 3.58188 15.3391 4.0152 15.1058 4.30568L10.4432 10.2675C10.2736 10.4786 10.4902 10.8268 10.7416 10.7262C12.6385 9.96492 14.4825 9.04108 16.3083 8.12305C17.8309 7.35745 19.3284 6.32292 20.6615 5.26853Z" fill="#F0546C"/>
<path fill-rule="evenodd" clip-rule="evenodd" d="M11.977 5.77798C12.2747 5.45914 12.0125 4.94249 11.5795 4.99435L4.00695 5.90126C3.7779 5.92869 3.5873 6.09377 3.54107 6.31976C3.24985 7.74326 3.36603 9.17685 3.91395 10.6118C4.11913 11.1493 4.13199 11.1648 3.5781 11.2329C3.50588 11.2418 3.43351 11.2516 3.36103 11.2614C2.94344 11.318 2.52192 11.3752 2.10176 11.2559C1.08612 10.9666 2.64822 10.0045 2.76616 9.59342C2.85325 9.28986 2.44064 9.17615 2.18265 9.35834C1.35598 9.94214 0.568964 10.6234 0.0809354 11.5243C-0.0233528 11.7329 -0.0104534 11.9937 0.0287835 12.1347C0.317751 13.1729 2.55499 12.9845 3.29207 12.8521C4.2579 12.6787 4.95526 12.6157 5.89364 12.329C6.14957 12.2508 6.1543 12.2248 6.54529 11.8219C8.52631 9.98308 10.3392 7.47597 11.977 5.77798Z" fill="#FFB471"/>
<path d="M28.345 12.9792C29.5537 12.9792 30.6132 12.406 31.102 11.5052V12.8427H31.9033V5.63682H31.102V6.98793C30.6132 6.08719 29.5537 5.50037 28.345 5.50037C26.3757 5.50037 24.8003 7.05616 24.8003 9.25342C24.8003 11.4233 26.3757 12.9792 28.345 12.9792ZM25.683 9.25342C25.683 7.56113 26.851 6.33286 28.44 6.33286C29.8933 6.33286 31.1156 7.35642 31.1156 9.25342C31.1156 11.1368 29.8933 12.1467 28.44 12.1467C26.851 12.1467 25.683 10.9321 25.683 9.25342Z" fill="#1D1423"/>
<path d="M38.935 9.99063V5.63708H38.0659V9.96333C38.0659 11.3827 37.4276 12.1469 36.2323 12.1469C35.0508 12.1469 34.3989 11.3827 34.3989 9.96333V5.63708H33.5298V9.99063C33.5298 11.874 34.5348 12.9794 36.2323 12.9794C37.9436 12.9794 38.935 11.874 38.935 9.99063Z" fill="#1D1423"/>
<path d="M40.8671 12.8429H41.7364V6.45591H42.6734V5.63705H41.7364V3.23511L40.8671 3.60358V5.63705H39.9844V6.45591H40.8671V12.8429Z" fill="#1D1423"/>
<path d="M43.7844 12.8428H44.6536V8.51653C44.6536 7.09719 45.292 6.33294 46.5007 6.33294C47.6823 6.33294 48.3206 7.09719 48.3206 8.51653V12.8428H49.1897V8.47558C49.1897 6.59224 48.2527 5.50045 46.6637 5.50045C45.7266 5.50045 45.0338 5.88257 44.64 6.53765C44.6536 6.16916 44.6536 5.80069 44.6536 5.39126V2.33423H43.7844V12.8428Z" fill="#1D1423"/>
<path d="M50.1146 12.8428H55.8459L56.1176 10.9048H53.2519L56.0767 5.88257V5.60962H50.5899L50.3183 7.54756H52.9395L50.1146 12.5698V12.8428Z" fill="#1D1423"/>
<path d="M60.3208 13.0202C61.7468 13.0202 62.8877 12.4198 63.6889 11.3552L62.3037 10.1952C61.7741 10.8639 61.1221 11.1915 60.3615 11.1915C59.4108 11.1915 58.7182 10.6729 58.5145 9.81309H63.6889C63.9878 6.78334 62.1815 5.43225 60.2122 5.43225C58.1207 5.43225 56.491 6.97441 56.491 9.25355C56.491 11.4644 58.0255 13.0202 60.3208 13.0202ZM58.5417 8.32552C58.7725 7.62949 59.3837 7.17913 60.1985 7.17913C61 7.17913 61.5431 7.58855 61.7061 8.32552H58.5417Z" fill="#1D1423"/>
<path d="M67.9485 12.9793C68.7498 12.9793 69.5375 12.7063 70.0263 12.1877L70.0399 12.8428H71.9413V2.29333H69.7955V4.35411C69.7955 4.95459 69.809 5.52779 69.8362 6.08733C69.3338 5.67792 68.6546 5.47319 67.9485 5.47319C66.0064 5.47319 64.3629 7.00172 64.3629 9.22624C64.3629 11.4508 66.0064 12.9793 67.9485 12.9793ZM66.5088 9.22624C66.5088 8.13445 67.2422 7.43843 68.2336 7.43843C69.2115 7.43843 69.9313 8.13445 69.9313 9.22624C69.9313 10.318 69.2115 11.0141 68.2336 11.0141C67.2422 11.0141 66.5088 10.318 66.5088 9.22624Z" fill="#1D1423"/>
<path d="M33.2134 21.6074H31.8902V17.5201H33.2553C33.6558 17.5201 33.9998 17.6019 34.2871 17.7655C34.5745 17.9279 34.7947 18.1614 34.9477 18.4661C35.1021 18.7694 35.1793 19.1333 35.1793 19.5578C35.1793 19.9835 35.1014 20.3494 34.9458 20.6554C34.7914 20.9615 34.5679 21.197 34.2752 21.3619C33.9825 21.5256 33.6285 21.6074 33.2134 21.6074ZM32.5069 21.0686H33.1795C33.4908 21.0686 33.7496 21.01 33.9558 20.8929C34.1621 20.7745 34.3164 20.6035 34.4189 20.38C34.5213 20.1552 34.5725 19.8811 34.5725 19.5578C34.5725 19.2371 34.5213 18.965 34.4189 18.7415C34.3177 18.518 34.1667 18.3483 33.9658 18.2326C33.7649 18.1168 33.5154 18.0589 33.2174 18.0589H32.5069V21.0686ZM37.0702 21.6074V17.5201H39.6327V18.0509H37.6869V19.2963H39.499V19.8252H37.6869V21.0765H39.6567V21.6074H37.0702ZM42.9037 21.6074H41.5805V17.5201H42.9456C43.3461 17.5201 43.6901 17.6019 43.9775 17.7655C44.2648 17.9279 44.485 18.1614 44.6381 18.4661C44.7924 18.7694 44.8696 19.1333 44.8696 19.5578C44.8696 19.9835 44.7917 20.3494 44.6361 20.6554C44.4817 20.9615 44.2582 21.197 43.9655 21.3619C43.6728 21.5256 43.3188 21.6074 42.9037 21.6074ZM42.1972 21.0686H42.8698C43.1811 21.0686 43.4399 21.01 43.6462 20.8929C43.8524 20.7745 44.0067 20.6035 44.1092 20.38C44.2116 20.1552 44.2629 19.8811 44.2629 19.5578C44.2629 19.2371 44.2116 18.965 44.1092 18.7415C44.0081 18.518 43.857 18.3483 43.6561 18.2326C43.4552 18.1168 43.2058 18.0589 42.9077 18.0589H42.1972V21.0686ZM47.3772 17.5201V21.6074H46.7605V17.5201H47.3772ZM52.7941 18.8493H52.1714C52.1475 18.7162 52.1029 18.5991 52.0377 18.498C51.9725 18.3969 51.8927 18.3111 51.7982 18.2405C51.7038 18.17 51.598 18.1168 51.4809 18.0809C51.3651 18.045 51.2421 18.027 51.1117 18.027C50.8762 18.027 50.6653 18.0862 50.479 18.2046C50.2941 18.323 50.1477 18.4967 50.0399 18.7255C49.9335 18.9544 49.8803 19.2338 49.8803 19.5637C49.8803 19.8964 49.9335 20.1771 50.0399 20.406C50.1477 20.6348 50.2947 20.8078 50.481 20.9249C50.6673 21.042 50.8768 21.1005 51.1097 21.1005C51.2387 21.1005 51.3611 21.0832 51.4769 21.0486C51.594 21.0127 51.6998 20.9601 51.7942 20.8909C51.8887 20.8217 51.9685 20.7373 52.0337 20.6375C52.1002 20.5364 52.1462 20.4206 52.1714 20.2902L52.7941 20.2922C52.7609 20.4931 52.6963 20.6781 52.6005 20.847C52.5061 21.0147 52.3843 21.1597 52.2353 21.2821C52.0876 21.4032 51.9186 21.497 51.7284 21.5635C51.5381 21.63 51.3305 21.6633 51.1057 21.6633C50.7518 21.6633 50.4364 21.5795 50.1597 21.4118C49.8829 21.2429 49.6647 21.0014 49.5051 20.6874C49.3467 20.3734 49.2676 19.9988 49.2676 19.5637C49.2676 19.1273 49.3474 18.7528 49.5071 18.4401C49.6667 18.1261 49.8849 17.8853 50.1617 17.7176C50.4384 17.5487 50.7531 17.4642 51.1057 17.4642C51.3226 17.4642 51.5248 17.4954 51.7124 17.558C51.9013 17.6192 52.071 17.7097 52.2213 17.8294C52.3717 17.9478 52.4961 18.0929 52.5945 18.2645C52.693 18.4348 52.7595 18.6297 52.7941 18.8493ZM54.9739 21.6074H54.3193L55.7902 17.5201H56.5027L57.9736 21.6074H57.3189L56.1634 18.2625H56.1315L54.9739 21.6074ZM55.0837 20.0068H57.2072V20.5257H55.0837V20.0068ZM59.0033 18.0509V17.5201H62.1666V18.0509H60.8913V21.6074H60.2766V18.0509H59.0033ZM63.9896 21.6074V17.5201H66.5522V18.0509H64.6063V19.2963H66.4185V19.8252H64.6063V21.0765H66.5762V21.6074H63.9896ZM69.8232 21.6074H68.5V17.5201H69.8651C70.2656 17.5201 70.6095 17.6019 70.8969 17.7655C71.1843 17.9279 71.4045 18.1614 71.5575 18.4661C71.7119 18.7694 71.7891 19.1333 71.7891 19.5578C71.7891 19.9835 71.7112 20.3494 71.5555 20.6554C71.4012 20.9615 71.1777 21.197 70.885 21.3619C70.5923 21.5256 70.2383 21.6074 69.8232 21.6074ZM69.1167 21.0686H69.7893C70.1006 21.0686 70.3594 21.01 70.5656 20.8929C70.7719 20.7745 70.9262 20.6035 71.0287 20.38C71.1311 20.1552 71.1823 19.8811 71.1823 19.5578C71.1823 19.2371 71.1311 18.965 71.0287 18.7415C70.9275 18.518 70.7765 18.3483 70.5756 18.2326C70.3747 18.1168 70.1252 18.0589 69.8272 18.0589H69.1167V21.0686Z" fill="#1D1423"/>
</svg>
