<svg width="336" height="263" viewBox="0 0 336 263" fill="none" xmlns="http://www.w3.org/2000/svg">
<path d="M248.53 84.6387C247.837 97.6147 243.943 110.556 237.313 121.74C226.208 140.478 207.603 155.112 183.955 159.55C172.149 161.669 163.562 161.4 153.919 159.921C146.962 158.372 142.583 152.721 147.254 146.005C152.977 137.771 161.089 132.361 169.186 126.95C192.805 111.167 217.892 97.9748 243.211 85.1912C246.042 83.7641 248.729 80.9407 248.53 84.6387Z" fill="#2B2231"/>
<path d="M265.335 54.3593C271.283 49.6541 277.029 43.6094 281.099 37.1336L281.106 37.1287L281.113 37.1238C285.592 29.9925 283.049 23.5537 274.842 21.6019C265.407 19.3565 257.408 20.2608 247.752 21.6019C245.4 21.9285 244.8 22.4351 243.996 22.9431C242.367 23.9717 242.187 27.1122 244.533 27.5031C248.825 27.7714 262.888 26.8109 266.26 28.3078C275.869 32.5737 249.575 46.7767 246.12 49.5261C244.047 51.173 243.054 50.9752 241.888 48.3824C232.744 28.0528 217.853 13.6378 197.043 5.45305C184.002 0.325521 170.565 -0.848328 156.684 0.905997C149.204 1.851 143.336 3.90548 136.463 6.58279C134.197 7.46567 131.199 8.96961 129.114 10.1678C124.226 12.9709 119.728 16.1149 115.634 19.6174C112.069 22.668 114.163 28.1293 118.835 28.568L204.861 36.6444C208.679 37.0028 210.565 41.4618 208.165 44.451L160.184 105.801C158.439 107.974 160.668 111.557 163.255 110.521C182.774 102.688 201.751 93.1808 220.539 83.7338C236.207 75.8554 251.617 65.2095 265.335 54.3593Z" fill="#2B2231"/>
<path fill-rule="evenodd" clip-rule="evenodd" d="M175.963 59.6061C179.026 56.3251 176.329 51.0084 171.872 51.5421L93.947 60.8747C91.5899 61.1569 89.6286 62.8557 89.1529 65.1813C86.1561 79.8299 87.3516 94.5823 92.99 109.348C95.1014 114.88 95.2338 115.039 89.534 115.74C88.7908 115.832 88.0461 115.932 87.3001 116.034C83.0029 116.616 78.6653 117.204 74.3416 115.977C63.8901 113 79.965 103.099 81.1787 98.869C82.0749 95.7451 77.8288 94.575 75.174 96.4499C66.6671 102.457 58.5683 109.468 53.5462 118.739C52.4731 120.885 52.6058 123.569 53.0096 125.02C55.9832 135.704 79.0056 133.765 86.5905 132.403C96.5294 130.618 103.706 129.97 113.362 127.02C115.996 126.215 116.044 125.947 120.068 121.802C140.454 102.879 159.109 77.0793 175.963 59.6061Z" fill="#2B2231"/>
<path d="M25.2661 261.993C33.8813 261.993 41.4325 257.908 44.9168 251.488V261.02H50.628V209.66H44.9168V219.29C41.4325 212.87 33.8813 208.688 25.2661 208.688C11.2299 208.688 0.000976562 219.777 0.000976562 235.438C0.000976562 250.904 11.2299 261.993 25.2661 261.993ZM6.29249 235.438C6.29249 223.376 14.6175 214.621 25.9432 214.621C36.3017 214.621 45.0135 221.917 45.0135 235.438C45.0135 248.861 36.3017 256.059 25.9432 256.059C14.6175 256.059 6.29249 247.402 6.29249 235.438Z" fill="#2B2231"/>
<path d="M100.751 240.694V209.664H94.5565V240.499C94.5565 250.616 90.0071 256.063 81.4875 256.063C73.0657 256.063 68.4196 250.616 68.4196 240.499V209.664H62.2249V240.694C62.2249 254.117 69.388 261.997 81.4875 261.997C93.6848 261.997 100.751 254.117 100.751 240.694Z" fill="#2B2231"/>
<path d="M114.52 261.025H120.716V215.501H127.394V209.665H120.716V192.545L114.52 195.171V209.665H108.228V215.501H114.52V261.025Z" fill="#2B2231"/>
<path d="M135.311 261.021H141.505V230.186C141.505 220.069 146.056 214.622 154.671 214.622C163.093 214.622 167.642 220.069 167.642 230.186V261.021H173.837V229.894C173.837 216.47 167.159 208.688 155.833 208.688C149.153 208.688 144.216 211.412 141.409 216.081C141.505 213.455 141.505 210.828 141.505 207.91V186.121H135.311V261.021Z" fill="#2B2231"/>
<path d="M180.431 261.025H221.281L223.218 247.212H202.792L222.926 211.415V209.47H183.818L181.883 223.283H200.565L180.431 259.079V261.025Z" fill="#2B2231"/>
<path d="M253.179 262.289C263.343 262.289 271.475 258.009 277.186 250.421L267.312 242.153C263.538 246.919 258.89 249.254 253.469 249.254C246.693 249.254 241.757 245.558 240.305 239.429H277.186C279.316 217.835 266.442 208.205 252.406 208.205C237.498 208.205 225.882 219.197 225.882 235.441C225.882 251.199 236.819 262.289 253.179 262.289ZM240.498 228.827C242.144 223.866 246.5 220.656 252.308 220.656C258.02 220.656 261.891 223.574 263.053 228.827H240.498Z" fill="#2B2231"/>
<path d="M307.545 261.997C313.256 261.997 318.87 260.051 322.355 256.355L322.451 261.024H336.004V185.832H320.709V200.52C320.709 204.8 320.806 208.886 320.999 212.874C317.418 209.956 312.578 208.496 307.545 208.496C293.702 208.496 281.988 219.391 281.988 235.247C281.988 251.102 293.702 261.997 307.545 261.997ZM297.283 235.247C297.283 227.465 302.511 222.504 309.577 222.504C316.547 222.504 321.678 227.465 321.678 235.247C321.678 243.028 316.547 247.989 309.577 247.989C302.511 247.989 297.283 243.028 297.283 235.247Z" fill="#2B2231"/>
</svg>
