<svg width="336" height="263" viewBox="0 0 336 263" fill="none" xmlns="http://www.w3.org/2000/svg">
<path d="M248.53 84.9441C247.837 97.9202 243.943 110.861 237.313 122.045C226.208 140.783 207.603 155.417 183.955 159.855C172.149 161.974 163.562 161.706 153.919 160.227C146.962 158.678 142.583 153.026 147.254 146.31C152.977 138.076 161.089 132.666 169.186 127.255C192.805 111.472 217.892 98.2803 243.211 85.4967C246.042 84.0696 248.729 81.2461 248.53 84.9441Z" fill="#A43189"/>
<path d="M265.335 54.6648C271.283 49.9596 277.029 43.915 281.099 37.4391L281.106 37.4342L281.113 37.4293C285.592 30.298 283.049 23.8592 274.842 21.9074C265.407 19.662 257.408 20.5663 247.752 21.9074C245.4 22.234 244.8 22.7406 243.996 23.2486C242.367 24.2772 242.187 27.4177 244.533 27.8086C248.825 28.0769 262.888 27.1164 266.26 28.6133C275.869 32.8792 249.575 47.0822 246.12 49.8316C244.047 51.4785 243.054 51.2808 241.888 48.6879C232.744 28.3583 217.853 13.9433 197.043 5.75857C184.002 0.631033 170.565 -0.542817 156.684 1.21151C149.204 2.15651 143.336 4.21099 136.463 6.8883C134.197 7.77119 131.199 9.27513 129.114 10.4733C124.226 13.2764 119.728 16.4204 115.634 19.9229C112.069 22.9736 114.163 28.4349 118.835 28.8736L204.861 36.9499C208.679 37.3083 210.565 41.7673 208.165 44.7565L160.184 106.107C158.439 108.28 160.668 111.862 163.255 110.827C182.774 102.993 201.751 93.4864 220.539 84.0393C236.207 76.1609 251.617 65.515 265.335 54.6648Z" fill="#F0546C"/>
<path fill-rule="evenodd" clip-rule="evenodd" d="M175.963 59.9116C179.026 56.6306 176.329 51.3139 171.872 51.8476L93.947 61.1802C91.5899 61.4624 89.6286 63.1612 89.1529 65.4868C86.1561 80.1354 87.3516 94.8878 92.99 109.654C95.1014 115.186 95.2338 115.345 89.534 116.046C88.7908 116.137 88.0461 116.238 87.3001 116.339C83.0029 116.922 78.6653 117.51 74.3416 116.282C63.8901 113.305 79.965 103.405 81.1787 99.1745C82.0749 96.0506 77.8288 94.8806 75.174 96.7554C66.6671 102.763 58.5683 109.774 53.5462 119.044C52.4731 121.191 52.6058 123.875 53.0096 125.326C55.9832 136.01 79.0056 134.07 86.5905 132.708C96.5294 130.924 103.706 130.276 113.362 127.325C115.996 126.52 116.044 126.253 120.068 122.107C140.454 103.184 159.109 77.3848 175.963 59.9116Z" fill="#FFB471"/>
<path d="M25.2661 262.299C33.8813 262.299 41.4325 258.213 44.9168 251.793V261.326H50.628V209.966H44.9168V219.596C41.4325 213.176 33.8813 208.993 25.2661 208.993C11.2299 208.993 0.000976562 220.082 0.000976562 235.743C0.000976562 251.21 11.2299 262.299 25.2661 262.299ZM6.29249 235.743C6.29249 223.681 14.6175 214.927 25.9432 214.927C36.3017 214.927 45.0135 222.222 45.0135 235.743C45.0135 249.167 36.3017 256.365 25.9432 256.365C14.6175 256.365 6.29249 247.708 6.29249 235.743Z" fill="#F1F0F2"/>
<path d="M100.751 240.999V209.969H94.5565V240.805C94.5565 250.921 90.0071 256.368 81.4875 256.368C73.0657 256.368 68.4196 250.921 68.4196 240.805V209.969H62.2249V240.999C62.2249 254.423 69.388 262.302 81.4875 262.302C93.6848 262.302 100.751 254.423 100.751 240.999Z" fill="#F1F0F2"/>
<path d="M114.52 261.331H120.716V215.807H127.394V209.97H120.716V192.85L114.52 195.477V209.97H108.228V215.807H114.52V261.331Z" fill="#F1F0F2"/>
<path d="M135.311 261.327H141.505V230.491C141.505 220.375 146.056 214.928 154.671 214.928C163.093 214.928 167.642 220.375 167.642 230.491V261.327H173.837V230.199C173.837 216.776 167.159 208.994 155.833 208.994C149.153 208.994 144.216 211.718 141.409 216.387C141.505 213.76 141.505 211.134 141.505 208.216V186.426H135.311V261.327Z" fill="#F1F0F2"/>
<path d="M180.431 261.33H221.281L223.218 247.517H202.792L222.926 211.721V209.775H183.818L181.883 223.588H200.565L180.431 259.385V261.33Z" fill="#F1F0F2"/>
<path d="M253.179 262.594C263.343 262.594 271.475 258.314 277.186 250.727L267.312 242.459C263.538 247.225 258.89 249.56 253.469 249.56C246.693 249.56 241.757 245.863 240.305 239.735H277.186C279.316 218.14 266.442 208.51 252.406 208.51C237.498 208.51 225.882 219.502 225.882 235.747C225.882 251.505 236.819 262.594 253.179 262.594ZM240.498 229.132C242.144 224.171 246.5 220.961 252.308 220.961C258.02 220.961 261.891 223.879 263.053 229.132H240.498Z" fill="#F1F0F2"/>
<path d="M307.545 262.302C313.256 262.302 318.87 260.357 322.355 256.66L322.451 261.329H336.004V186.137H320.709V200.826C320.709 205.106 320.806 209.191 320.999 213.179C317.418 210.261 312.578 208.802 307.545 208.802C293.702 208.802 281.988 219.697 281.988 235.552C281.988 251.408 293.702 262.302 307.545 262.302ZM297.283 235.552C297.283 227.77 302.511 222.809 309.577 222.809C316.547 222.809 321.678 227.77 321.678 235.552C321.678 243.334 316.547 248.295 309.577 248.295C302.511 248.295 297.283 243.334 297.283 235.552Z" fill="#F1F0F2"/>
</svg>
