<svg width="336" height="263" viewBox="0 0 336 263" fill="none" xmlns="http://www.w3.org/2000/svg">
<path d="M248.53 84.5969C247.837 97.573 243.943 110.514 237.313 121.698C226.208 140.436 207.603 155.07 183.955 159.508C172.149 161.627 163.562 161.359 153.919 159.879C146.962 158.33 142.583 152.679 147.254 145.963C152.977 137.729 161.089 132.319 169.186 126.908C192.805 111.125 217.892 97.933 243.211 85.1495C246.042 83.7223 248.729 80.8989 248.53 84.5969Z" fill="#A43189"/>
<path d="M265.335 54.3175C271.283 49.6123 277.029 43.5677 281.099 37.0919L281.106 37.087L281.113 37.0821C285.592 29.9507 283.049 23.512 274.842 21.5602C265.407 19.3148 257.408 20.219 247.752 21.5602C245.4 21.8868 244.8 22.3934 243.996 22.9014C242.367 23.93 242.187 27.0705 244.533 27.4614C248.825 27.7297 262.888 26.7692 266.26 28.2661C275.869 32.532 249.575 46.735 246.12 49.4844C244.047 51.1312 243.054 50.9335 241.888 48.3407C232.744 28.0111 217.853 13.5961 197.043 5.41134C184.002 0.283804 170.565 -0.890046 156.684 0.864279C149.204 1.80929 143.336 3.86376 136.463 6.54107C134.197 7.42396 131.199 8.9279 129.114 10.1261C124.226 12.9292 119.728 16.0731 115.634 19.5756C112.069 22.6263 114.163 28.0876 118.835 28.5263L204.861 36.6027C208.679 36.9611 210.565 41.4201 208.165 44.4093L160.184 105.76C158.439 107.932 160.668 111.515 163.255 110.48C182.774 102.646 201.751 93.1391 220.539 83.692C236.207 75.8136 251.617 65.1678 265.335 54.3175Z" fill="#F0546C"/>
<path fill-rule="evenodd" clip-rule="evenodd" d="M175.963 59.5644C179.026 56.2834 176.329 50.9667 171.872 51.5003L93.947 60.833C91.5899 61.1152 89.6286 62.814 89.1529 65.1396C86.1561 79.7881 87.3516 94.5406 92.99 109.307C95.1014 114.838 95.2338 114.998 89.534 115.699C88.7908 115.79 88.0461 115.891 87.3001 115.992C83.0029 116.574 78.6653 117.162 74.3416 115.935C63.8901 112.958 79.965 103.058 81.1787 98.8273C82.0749 95.7034 77.8288 94.5333 75.174 96.4082C66.6671 102.416 58.5683 109.427 53.5462 118.697C52.4731 120.843 52.6058 123.528 53.0096 124.979C55.9832 135.662 79.0056 133.723 86.5905 132.361C96.5294 130.576 103.706 129.928 113.362 126.978C115.996 126.173 116.044 125.906 120.068 121.76C140.454 102.837 159.109 77.0376 175.963 59.5644Z" fill="#FFB471"/>
<path d="M25.2661 261.951C33.8813 261.951 41.4325 257.866 44.9168 251.446V260.979H50.628V209.618H44.9168V219.249C41.4325 212.828 33.8813 208.646 25.2661 208.646C11.2299 208.646 0.000976562 219.735 0.000976562 235.396C0.000976562 250.862 11.2299 261.951 25.2661 261.951ZM6.29249 235.396C6.29249 223.334 14.6175 214.579 25.9432 214.579C36.3017 214.579 45.0135 221.875 45.0135 235.396C45.0135 248.82 36.3017 256.018 25.9432 256.018C14.6175 256.018 6.29249 247.361 6.29249 235.396Z" fill="#2B2231"/>
<path d="M100.751 240.652V209.622H94.5565V240.457C94.5565 250.574 90.0071 256.021 81.4875 256.021C73.0657 256.021 68.4196 250.574 68.4196 240.457V209.622H62.2249V240.652C62.2249 254.076 69.388 261.955 81.4875 261.955C93.6848 261.955 100.751 254.076 100.751 240.652Z" fill="#2B2231"/>
<path d="M114.52 260.983H120.716V215.46H127.394V209.623H120.716V192.503L114.52 195.129V209.623H108.228V215.46H114.52V260.983Z" fill="#2B2231"/>
<path d="M135.311 260.98H141.505V230.144C141.505 220.028 146.056 214.58 154.671 214.58C163.093 214.58 167.642 220.028 167.642 230.144V260.98H173.837V229.852C173.837 216.428 167.159 208.647 155.833 208.647C149.153 208.647 144.216 211.37 141.409 216.039C141.505 213.413 141.505 210.787 141.505 207.868V186.079H135.311V260.98Z" fill="#2B2231"/>
<path d="M180.431 260.983H221.281L223.218 247.17H202.792L222.926 211.374V209.428H183.818L181.883 223.241H200.565L180.431 259.037V260.983Z" fill="#2B2231"/>
<path d="M253.179 262.247C263.343 262.247 271.475 257.967 277.186 250.38L267.312 242.111C263.538 246.878 258.89 249.212 253.469 249.212C246.693 249.212 241.757 245.516 240.305 239.388H277.186C279.316 217.793 266.442 208.163 252.406 208.163C237.498 208.163 225.882 219.155 225.882 235.4C225.882 251.158 236.819 262.247 253.179 262.247ZM240.498 228.785C242.144 223.824 246.5 220.614 252.308 220.614C258.02 220.614 261.891 223.532 263.053 228.785H240.498Z" fill="#2B2231"/>
<path d="M307.545 261.955C313.256 261.955 318.87 260.009 322.355 256.313L322.451 260.982H336.004V185.79H320.709V200.478C320.709 204.758 320.806 208.844 320.999 212.832C317.418 209.914 312.578 208.455 307.545 208.455C293.702 208.455 281.988 219.349 281.988 235.205C281.988 251.06 293.702 261.955 307.545 261.955ZM297.283 235.205C297.283 227.423 302.511 222.462 309.577 222.462C316.547 222.462 321.678 227.423 321.678 235.205C321.678 242.987 316.547 247.948 309.577 247.948C302.511 247.948 297.283 242.987 297.283 235.205Z" fill="#2B2231"/>
</svg>
