<svg width="336" height="263" viewBox="0 0 336 263" fill="none" xmlns="http://www.w3.org/2000/svg">
<path d="M248.53 85.2914C247.837 98.2675 243.943 111.209 237.313 122.393C226.208 141.13 207.603 155.765 183.955 160.203C172.149 162.322 163.562 162.053 153.919 160.574C146.962 159.025 142.583 153.374 147.254 146.657C152.977 138.424 161.089 133.014 169.186 127.603C192.805 111.82 217.892 98.6276 243.211 85.844C246.042 84.4169 248.729 81.5935 248.53 85.2914Z" fill="#F1F0F2"/>
<path d="M265.335 55.0121C271.283 50.3069 277.029 44.2623 281.099 37.7864L281.106 37.7816L281.113 37.7766C285.592 30.6453 283.049 24.2066 274.842 22.2548C265.407 20.0093 257.408 20.9136 247.752 22.2548C245.4 22.5814 244.8 23.0879 243.996 23.5959C242.367 24.6246 242.187 27.765 244.533 28.1559C248.825 28.4242 262.888 27.4637 266.26 28.9606C275.869 33.2265 249.575 47.4296 246.12 50.1789C244.047 51.8258 243.054 51.6281 241.888 49.0352C232.744 28.7057 217.853 14.2906 197.043 6.10589C184.002 0.978353 170.565 -0.195496 156.684 1.55883C149.204 2.50383 143.336 4.55831 136.463 7.23562C134.197 8.11851 131.199 9.62245 129.114 10.8206C124.226 13.6237 119.728 16.7677 115.634 20.2702C112.069 23.3209 114.163 28.7822 118.835 29.2209L204.861 37.2972C208.679 37.6556 210.565 42.1147 208.165 45.1038L160.184 106.454C158.439 108.627 160.668 112.21 163.255 111.174C182.774 103.34 201.751 93.8337 220.539 84.3866C236.207 76.5082 251.617 65.8623 265.335 55.0121Z" fill="#F1F0F2"/>
<path fill-rule="evenodd" clip-rule="evenodd" d="M175.963 60.2589C179.026 56.9779 176.329 51.6612 171.872 52.1949L93.947 61.5275C91.5899 61.8098 89.6286 63.5085 89.1529 65.8341C86.1561 80.4827 87.3516 95.2351 92.99 110.001C95.1014 115.533 95.2338 115.692 89.534 116.393C88.7908 116.484 88.0461 116.585 87.3001 116.687C83.0029 117.269 78.6653 117.857 74.3416 116.63C63.8901 113.652 79.965 103.752 81.1787 99.5218C82.0749 96.398 77.8288 95.2279 75.174 97.1027C66.6671 103.11 58.5683 110.121 53.5462 119.392C52.4731 121.538 52.6058 124.222 53.0096 125.673C55.9832 136.357 79.0056 134.418 86.5905 133.055C96.5294 131.271 103.706 130.623 113.362 127.673C115.996 126.867 116.044 126.6 120.068 122.454C140.454 103.532 159.109 77.7321 175.963 60.2589Z" fill="#F1F0F2"/>
<path d="M25.2661 262.646C33.8813 262.646 41.4325 258.56 44.9168 252.14V261.673H50.628V210.313H44.9168V219.943C41.4325 213.523 33.8813 209.34 25.2661 209.34C11.2299 209.34 0.000976562 220.429 0.000976562 236.09C0.000976562 251.557 11.2299 262.646 25.2661 262.646ZM6.29249 236.09C6.29249 224.028 14.6175 215.274 25.9432 215.274C36.3017 215.274 45.0135 222.569 45.0135 236.09C45.0135 249.514 36.3017 256.712 25.9432 256.712C14.6175 256.712 6.29249 248.055 6.29249 236.09Z" fill="#F1F0F2"/>
<path d="M100.751 241.347V210.316H94.5565V241.152C94.5565 251.268 90.0071 256.716 81.4875 256.716C73.0657 256.716 68.4196 251.268 68.4196 241.152V210.316H62.2249V241.347C62.2249 254.77 69.388 262.649 81.4875 262.649C93.6848 262.649 100.751 254.77 100.751 241.347Z" fill="#F1F0F2"/>
<path d="M114.52 261.678H120.716V216.154H127.394V210.318H120.716V193.198L114.52 195.824V210.318H108.228V216.154H114.52V261.678Z" fill="#F1F0F2"/>
<path d="M135.311 261.674H141.505V230.838C141.505 220.722 146.056 215.275 154.671 215.275C163.093 215.275 167.642 220.722 167.642 230.838V261.674H173.837V230.547C173.837 217.123 167.159 209.341 155.833 209.341C149.153 209.341 144.216 212.065 141.409 216.734C141.505 214.107 141.505 211.481 141.505 208.563V186.774H135.311V261.674Z" fill="#F1F0F2"/>
<path d="M180.431 261.677H221.281L223.218 247.865H202.792L222.926 212.068V210.123H183.818L181.883 223.935H200.565L180.431 259.732V261.677Z" fill="#F1F0F2"/>
<path d="M253.179 262.941C263.343 262.941 271.475 258.661 277.186 251.074L267.312 242.806C263.538 247.572 258.89 249.907 253.469 249.907C246.693 249.907 241.757 246.21 240.305 240.082H277.186C279.316 218.487 266.442 208.857 252.406 208.857C237.498 208.857 225.882 219.849 225.882 236.094C225.882 251.852 236.819 262.941 253.179 262.941ZM240.498 229.479C242.144 224.518 246.5 221.308 252.308 221.308C258.02 221.308 261.891 224.227 263.053 229.479H240.498Z" fill="#F1F0F2"/>
<path d="M307.545 262.649C313.256 262.649 318.87 260.704 322.355 257.008L322.451 261.677H336.004V186.484H320.709V201.173C320.709 205.453 320.806 209.538 320.999 213.526C317.418 210.608 312.578 209.149 307.545 209.149C293.702 209.149 281.988 220.044 281.988 235.899C281.988 251.755 293.702 262.649 307.545 262.649ZM297.283 235.899C297.283 228.117 302.511 223.157 309.577 223.157C316.547 223.157 321.678 228.117 321.678 235.899C321.678 243.681 316.547 248.642 309.577 248.642C302.511 248.642 297.283 243.681 297.283 235.899Z" fill="#F1F0F2"/>
</svg>
