<svg width="79" height="23" viewBox="0 0 79 23" fill="none" xmlns="http://www.w3.org/2000/svg">
<path d="M32.3995 21.6074V17.5201H34.9621V18.0509H33.0162V19.2963H34.8284V19.8252H33.0162V21.0765H34.986V21.6074H32.3995ZM40.2089 17.5201V21.6074H39.6421L37.5645 18.6098H37.5265V21.6074H36.9099V17.5201H37.4806L39.5602 20.5217H39.5982V17.5201H40.2089ZM42.0309 18.0509V17.5201H45.1942V18.0509H43.9189V21.6074H43.3042V18.0509H42.0309ZM47.0173 21.6074V17.5201H49.5799V18.0509H47.634V19.2963H49.4461V19.8252H47.634V21.0765H49.6038V21.6074H47.0173ZM51.5276 21.6074V17.5201H52.9846C53.3012 17.5201 53.564 17.5746 53.7729 17.6837C53.9831 17.7928 54.1401 17.9438 54.2439 18.1368C54.3477 18.3284 54.3996 18.5499 54.3996 18.8014C54.3996 19.0515 54.347 19.2717 54.2419 19.462C54.1381 19.6509 53.9811 19.7979 53.7709 19.903C53.562 20.0081 53.2992 20.0607 52.9826 20.0607H51.8789V19.5298H52.9267C53.1263 19.5298 53.2886 19.5012 53.4137 19.444C53.5401 19.3868 53.6325 19.3036 53.6911 19.1945C53.7496 19.0854 53.7789 18.9544 53.7789 18.8014C53.7789 18.647 53.749 18.5133 53.6891 18.4002C53.6305 18.2871 53.5381 18.2006 53.4117 18.1408C53.2866 18.0795 53.1223 18.0489 52.9187 18.0489H52.1443V21.6074H51.5276ZM53.5454 19.7633L54.5552 21.6074H53.8527L52.8628 19.7633H53.5454ZM56.274 21.6074V17.5201H57.7309C58.0489 17.5201 58.3124 17.5779 58.5213 17.6937C58.7302 17.8095 58.8865 17.9678 58.9903 18.1687C59.094 18.3683 59.1459 18.5931 59.1459 18.8433C59.1459 19.0947 59.0934 19.3209 58.9883 19.5218C58.8845 19.7214 58.7275 19.8797 58.5173 19.9968C58.3084 20.1126 58.0456 20.1705 57.7289 20.1705H56.7271V19.6476H57.6731C57.874 19.6476 58.037 19.613 58.162 19.5438C58.2871 19.4733 58.3789 19.3775 58.4374 19.2564C58.496 19.1353 58.5253 18.9976 58.5253 18.8433C58.5253 18.6889 58.496 18.5519 58.4374 18.4321C58.3789 18.3124 58.2864 18.2186 58.16 18.1507C58.035 18.0829 57.87 18.0489 57.6651 18.0489H56.8907V21.6074H56.274ZM60.9929 21.6074V17.5201H62.4499C62.7665 17.5201 63.0293 17.5746 63.2382 17.6837C63.4484 17.7928 63.6054 17.9438 63.7092 18.1368C63.813 18.3284 63.8649 18.5499 63.8649 18.8014C63.8649 19.0515 63.8123 19.2717 63.7072 19.462C63.6034 19.6509 63.4464 19.7979 63.2362 19.903C63.0273 20.0081 62.7645 20.0607 62.4479 20.0607H61.3442V19.5298H62.392C62.5916 19.5298 62.7539 19.5012 62.8789 19.444C63.0053 19.3868 63.0978 19.3036 63.1564 19.1945C63.2149 19.0854 63.2442 18.9544 63.2442 18.8014C63.2442 18.647 63.2142 18.5133 63.1544 18.4002C63.0958 18.2871 63.0034 18.2006 62.877 18.1408C62.7519 18.0795 62.5876 18.0489 62.384 18.0489H61.6096V21.6074H60.9929ZM63.0107 19.7633L64.0205 21.6074H63.318L62.3281 19.7633H63.0107ZM66.356 17.5201V21.6074H65.7393V17.5201H66.356ZM70.6074 18.5938C70.5861 18.4049 70.4983 18.2585 70.344 18.1547C70.1896 18.0496 69.9954 17.9971 69.7612 17.9971C69.5936 17.9971 69.4485 18.0237 69.3261 18.0769C69.2037 18.1288 69.1086 18.2006 69.0407 18.2924C68.9742 18.3829 68.9409 18.486 68.9409 18.6018C68.9409 18.6989 68.9635 18.7827 69.0088 18.8532C69.0554 18.9238 69.1159 18.983 69.1904 19.0309C69.2662 19.0774 69.3474 19.1167 69.4339 19.1486C69.5204 19.1792 69.6035 19.2045 69.6834 19.2245L70.0825 19.3282C70.2129 19.3602 70.3466 19.4034 70.4837 19.458C70.6207 19.5125 70.7478 19.5844 70.8649 19.6735C70.9819 19.7627 71.0764 19.8731 71.1483 20.0048C71.2214 20.1365 71.258 20.2942 71.258 20.4778C71.258 20.7093 71.1982 20.9149 71.0784 21.0945C70.96 21.2741 70.7877 21.4158 70.5615 21.5196C70.3366 21.6234 70.0646 21.6753 69.7452 21.6753C69.4392 21.6753 69.1744 21.6267 68.9509 21.5296C68.7274 21.4325 68.5524 21.2947 68.426 21.1165C68.2996 20.9368 68.2298 20.724 68.2165 20.4778H68.8352C68.8471 20.6255 68.895 20.7486 68.9788 20.847C69.064 20.9442 69.1724 21.0167 69.3042 21.0646C69.4372 21.1111 69.5829 21.1344 69.7412 21.1344C69.9155 21.1344 70.0705 21.1071 70.2063 21.0526C70.3433 20.9967 70.4511 20.9195 70.5296 20.8211C70.6081 20.7213 70.6473 20.6049 70.6473 20.4718C70.6473 20.3507 70.6127 20.2516 70.5435 20.1745C70.4757 20.0973 70.3832 20.0334 70.2661 19.9829C70.1504 19.9323 70.0193 19.8877 69.873 19.8491L69.39 19.7174C69.0627 19.6283 68.8032 19.4972 68.6116 19.3242C68.4214 19.1513 68.3262 18.9224 68.3262 18.6377C68.3262 18.4022 68.3901 18.1966 68.5178 18.021C68.6456 17.8454 68.8185 17.709 69.0367 17.6119C69.2549 17.5134 69.5011 17.4642 69.7752 17.4642C70.0519 17.4642 70.2961 17.5127 70.5076 17.6099C70.7205 17.707 70.8881 17.8407 71.0106 18.011C71.133 18.18 71.1968 18.3743 71.2021 18.5938H70.6074ZM73.119 21.6074V17.5201H75.6816V18.0509H73.7357V19.2963H75.5479V19.8252H73.7357V21.0765H75.7055V21.6074H73.119Z" fill="#170D1B"/>
<g clip-path="url(#clip0_8855_469)">
<g clip-path="url(#clip1_8855_469)">
<g clip-path="url(#clip2_8855_469)">
<path d="M19.1815 8.25113C19.1139 9.5183 18.7336 10.7821 18.0861 11.8742C17.0017 13.704 15.1849 15.1332 12.8755 15.5665C11.7226 15.7735 10.8841 15.7472 9.94234 15.6028C9.263 15.4515 8.83532 14.8997 9.29145 14.2438C9.85037 13.4397 10.6426 12.9114 11.4333 12.383C13.7397 10.8417 16.1896 9.55346 18.6621 8.30509C18.9386 8.16573 19.2009 7.89001 19.1815 8.25113Z" fill="#170D1B"/>
<path d="M20.8226 5.29442C21.4034 4.83494 21.9645 4.24466 22.3619 3.61226L22.3626 3.61179L22.3633 3.6113C22.8007 2.9149 22.5524 2.28613 21.751 2.09553C20.8296 1.87625 20.0484 1.96456 19.1054 2.09553C18.8758 2.12742 18.8172 2.17689 18.7387 2.2265C18.5796 2.32695 18.562 2.63363 18.7911 2.6718C19.2103 2.698 20.5835 2.6042 20.9129 2.75038C21.8512 3.16697 19.2835 4.55395 18.9461 4.82244C18.7437 4.98326 18.6467 4.96396 18.5328 4.71076C17.6398 2.72549 16.1857 1.31779 14.1536 0.518519C12.88 0.0177937 11.5679 -0.0968378 10.2123 0.0744796C9.48183 0.166764 8.90876 0.367392 8.23764 0.628843C8.01632 0.71506 7.72353 0.861927 7.51992 0.978935C7.04265 1.25267 6.6034 1.55969 6.2036 1.90173C5.85539 2.19964 6.05992 2.73296 6.51619 2.7758L14.917 3.56449C15.2898 3.59949 15.474 4.03493 15.2396 4.32684L10.5541 10.318C10.3837 10.5301 10.6013 10.88 10.854 10.7789C12.7601 10.0139 14.6133 9.08552 16.448 8.16297C17.9781 7.39361 19.4829 6.35399 20.8226 5.29442Z" fill="#170D1B"/>
<path fill-rule="evenodd" clip-rule="evenodd" d="M12.0955 5.80663C12.3946 5.48623 12.1312 4.96703 11.6959 5.01914L4.08621 5.93052C3.85604 5.95808 3.6645 6.12397 3.61804 6.35107C3.3254 7.78157 3.44214 9.22221 3.99276 10.6642C4.19895 11.2044 4.21187 11.2199 3.65526 11.2884C3.58268 11.2973 3.50996 11.3071 3.43712 11.317C3.01747 11.3739 2.59389 11.4313 2.17166 11.3115C1.15103 11.0207 2.72081 10.0539 2.83933 9.64083C2.92685 9.33577 2.5122 9.2215 2.25295 9.40459C1.42221 9.99126 0.63133 10.6759 0.140904 11.5812C0.0361027 11.7908 0.0490655 12.0529 0.0884953 12.1946C0.378882 13.2379 2.62712 13.0485 3.36782 12.9155C4.3384 12.7413 5.03919 12.678 5.98217 12.3899C6.23936 12.3112 6.24412 12.2851 6.63703 11.8803C8.62779 10.0324 10.4496 7.51297 12.0955 5.80663Z" fill="#170D1B"/>
</g>
</g>
</g>
<g clip-path="url(#clip3_8855_469)">
<g clip-path="url(#clip4_8855_469)">
<g clip-path="url(#clip5_8855_469)">
<path d="M29.1013 0.0820312H29.7867L23.6787 15.4333H22.9524L29.1013 0.0820312Z" fill="#170D1B" fill-opacity="0.3"/>
</g>
</g>
</g>
<path d="M65.4567 11.9686C63.518 11.9686 61.8776 10.44 61.8776 8.21519C61.8776 5.99038 63.518 4.4617 65.4567 4.4617C66.1616 4.4617 66.8393 4.66645 67.3411 5.07591C67.3138 4.5163 67.3003 3.94304 67.3003 3.34249V1.28149H69.4422V11.8322H67.5443L67.5308 11.177C67.0428 11.6957 66.2563 11.9686 65.4567 11.9686ZM64.0198 8.21519C64.0198 9.3071 64.7517 10.0032 65.7414 10.0032C66.7173 10.0032 67.4358 9.3071 67.4358 8.21519C67.4358 7.12325 66.7173 6.42716 65.7414 6.42716C64.7517 6.42716 64.0198 7.12325 64.0198 8.21519Z" fill="#170D1B"/>
<path d="M74.6007 11.9686C73.8007 11.9686 73.0145 11.6957 72.5263 11.177L72.5128 11.8322H70.6149V1.28149H72.7568V3.21965C72.7568 3.82021 72.7433 4.47534 72.7163 5.07591C73.2043 4.66645 73.8958 4.4617 74.6007 4.4617C76.539 4.4617 78.1795 5.99038 78.1795 8.21519C78.1795 10.44 76.539 11.9686 74.6007 11.9686ZM72.6213 8.21519C72.6213 9.3071 73.3397 10.0032 74.316 10.0032C75.3057 10.0032 76.0376 9.3071 76.0376 8.21519C76.0376 7.12325 75.3057 6.42716 74.316 6.42716C73.3397 6.42716 72.6213 7.12325 72.6213 8.21519Z" fill="#170D1B"/>
<path d="M33.3866 11.9225C33.0376 11.9225 32.5276 11.8956 32.0041 11.8419V10.7547C32.5544 10.8218 33.0242 10.8486 33.3329 10.8486C34.2457 10.8486 34.6752 10.5533 34.6752 9.94924C34.6752 9.50626 34.4201 9.1841 33.7625 8.75454L33.2927 8.4458C32.3665 7.84176 31.9504 7.26452 31.9504 6.49941C31.9504 5.37182 32.8229 4.67378 34.2725 4.67378C34.5812 4.67378 34.9705 4.70066 35.3597 4.75435V5.74769C34.957 5.70739 34.6483 5.69397 34.447 5.69397C33.6014 5.69397 33.1584 5.97586 33.1584 6.48596C33.1584 6.86183 33.4269 7.15715 34.0846 7.58671L34.5544 7.89544C35.5208 8.52634 35.9369 9.11699 35.9369 9.93582C35.9369 11.1842 34.9973 11.9225 33.3866 11.9225Z" fill="#170D1B"/>
<path d="M37.1824 14.4998V4.75434H38.2831L38.2965 5.84164C38.7931 5.0765 39.7595 4.62009 40.8199 4.62009C42.7527 4.62009 44.3366 6.13696 44.3366 8.29813C44.3366 10.4593 42.7527 11.9762 40.8199 11.9762C39.8266 11.9762 38.9005 11.5601 38.377 10.8754C38.4039 11.399 38.4173 11.9359 38.4173 12.446V14.4998H37.1824ZM38.3099 8.29813C38.3099 9.9224 39.3703 10.8218 40.6588 10.8218C42.0682 10.8218 43.0883 9.77473 43.0883 8.29813C43.0883 6.80814 42.0682 5.76111 40.6588 5.76111C39.3703 5.76111 38.3099 6.67389 38.3099 8.29813Z" fill="#170D1B"/>
<path d="M45.6569 11.8419V4.75435H46.8918V11.8419H45.6569ZM45.6569 3.4791V2.38993L46.8918 1.87106V3.4791H45.6569Z" fill="#170D1B"/>
<path d="M51.8479 11.9359C49.7272 11.9359 48.2105 10.4459 48.2105 8.31155C48.2105 6.1638 49.7272 4.67378 51.8479 4.67378C52.1835 4.67378 52.5727 4.70066 52.9888 4.76777V5.90875C52.5727 5.84164 52.2237 5.8148 51.9821 5.8148C50.4386 5.8148 49.4453 6.84841 49.4453 8.31155C49.4453 9.76131 50.4386 10.7815 51.9821 10.7815C52.2237 10.7815 52.5727 10.7547 52.9888 10.701V11.8419C52.5727 11.9091 52.1835 11.9359 51.8479 11.9359Z" fill="#170D1B"/>
<path d="M57.5236 11.9762C55.3492 11.9762 53.8862 10.4056 53.8862 8.32501C53.8862 6.20406 55.3895 4.62009 57.4431 4.62009C59.2417 4.62009 60.8524 5.84164 60.8121 8.45922H55.0405C55.1076 9.85529 56.074 10.8889 57.537 10.8889C58.5705 10.8889 59.4162 10.3788 59.9396 9.51968L60.7987 10.1506C60.1812 11.1171 59.1075 11.9762 57.5236 11.9762ZM55.1076 7.53302H59.6041C59.3759 6.27121 58.49 5.66713 57.4297 5.66713C56.2351 5.66713 55.3626 6.45911 55.1076 7.53302Z" fill="#170D1B"/>
<defs>
<clipPath id="clip0_8855_469">
<rect width="22.6366" height="15.82" fill="white"/>
</clipPath>
<clipPath id="clip1_8855_469">
<rect width="22.6366" height="15.82" fill="white"/>
</clipPath>
<clipPath id="clip2_8855_469">
<rect width="22.633" height="15.82" fill="white" transform="translate(0.00183105)"/>
</clipPath>
<clipPath id="clip3_8855_469">
<rect width="6.89241" height="15.6651" fill="white" transform="translate(22.9526 0.0773926)"/>
</clipPath>
<clipPath id="clip4_8855_469">
<rect width="6.89241" height="15.6651" fill="white" transform="translate(22.9526 0.0773926)"/>
</clipPath>
<clipPath id="clip5_8855_469">
<rect width="6.89241" height="15.6646" fill="white" transform="translate(22.9526 0.0777588)"/>
</clipPath>
</defs>
</svg>
