<svg width="742" height="150" viewBox="0 0 742 150" fill="none" xmlns="http://www.w3.org/2000/svg">
<g clip-path="url(#clip0_131_7882)">
<g clip-path="url(#clip1_131_7882)">
<g clip-path="url(#clip2_131_7882)">
<path d="M181.874 78.2263C181.233 90.2412 177.627 102.224 171.488 112.579C161.206 129.929 143.979 143.479 122.082 147.589C111.151 149.551 103.2 149.302 94.2713 147.932C87.8301 146.498 83.7749 141.266 88.0999 135.047C93.3993 127.423 100.911 122.414 108.408 117.404C130.277 102.79 153.506 90.5746 176.949 78.738C179.571 77.4166 182.058 74.8023 181.874 78.2263Z" fill="#F1F0F2"/>
<path d="M197.434 50.202C202.941 45.8453 208.261 40.2485 212.03 34.2523L212.036 34.2478L212.043 34.2432C216.19 27.6401 213.835 21.6784 206.237 19.8711C197.501 17.792 190.094 18.6293 181.153 19.8711C178.975 20.1735 178.42 20.6426 177.675 21.113C176.167 22.0654 176 24.9732 178.173 25.3352C182.147 25.5836 195.167 24.6942 198.29 26.0803C207.187 30.0302 182.841 43.1811 179.642 45.7269C177.723 47.2517 176.803 47.0687 175.723 44.6679C167.257 25.8442 153.469 12.4969 134.201 4.91848C122.125 0.170758 109.684 -0.91614 96.8312 0.708236C89.905 1.58324 84.4714 3.48554 78.1081 5.96452C76.0096 6.78201 73.2335 8.17455 71.3029 9.28398C66.7776 11.8794 62.6128 14.7905 58.822 18.0336C55.5204 20.8583 57.4597 25.915 61.7859 26.3212L141.439 33.7993C144.974 34.1312 146.721 38.2599 144.498 41.0277L100.072 97.8335C98.4562 99.8453 100.519 103.163 102.915 102.204C120.989 94.9505 138.559 86.1479 155.956 77.4006C170.463 70.1058 184.732 60.2485 197.434 50.202Z" fill="#F1F0F2"/>
<path fill-rule="evenodd" clip-rule="evenodd" d="M114.69 55.0559C117.526 52.0179 115.028 47.0951 110.902 47.5892L38.749 56.2305C36.5666 56.4919 34.7505 58.0648 34.31 60.2181C31.5352 73.7816 32.6422 87.4413 37.8629 101.114C39.818 106.236 39.9405 106.383 34.6629 107.032C33.9748 107.117 33.2852 107.21 32.5946 107.304C28.6156 107.843 24.5993 108.388 20.5959 107.251C10.9187 104.494 25.8027 95.3274 26.9265 91.4105C27.7564 88.518 23.8248 87.4346 21.3667 89.1705C13.4899 94.7331 5.99106 101.225 1.341 109.809C0.347312 111.796 0.470221 114.281 0.844081 115.625C3.59743 125.517 24.9145 123.721 31.9375 122.46C41.1402 120.808 47.7848 120.208 56.7259 117.476C59.1644 116.73 59.2096 116.483 62.935 112.644C81.8107 95.1232 99.0844 71.2348 114.69 55.0559Z" fill="#F1F0F2"/>
</g>
</g>
</g>
<g clip-path="url(#clip3_131_7882)">
<g clip-path="url(#clip4_131_7882)">
<g opacity="0.3" clip-path="url(#clip5_131_7882)">
<path d="M275.931 0.776428H282.429L224.515 146.332H217.628L275.931 0.776428Z" fill="#F1F0F2"/>
</g>
</g>
</g>
<path d="M620.636 113.482C602.255 113.482 586.701 98.9873 586.701 77.8928C586.701 56.7979 602.255 42.3034 620.636 42.3034C627.321 42.3034 633.746 44.2448 638.504 48.1272C638.245 42.8211 638.117 37.3857 638.117 31.6915V12.1498H658.425V112.188H640.43L640.303 105.976C635.676 110.893 628.219 113.482 620.636 113.482ZM607.012 77.8928C607.012 88.2459 613.952 94.846 623.336 94.846C632.59 94.846 639.402 88.2459 639.402 77.8928C639.402 67.5394 632.59 60.9393 623.336 60.9393C613.952 60.9393 607.012 67.5394 607.012 77.8928Z" fill="#F1F0F2"/>
<path d="M707.337 113.482C699.752 113.482 692.298 110.893 687.668 105.976L687.54 112.188H669.545V12.1498H689.853V30.5267C689.853 36.221 689.726 42.4328 689.47 48.1272C694.096 44.2448 700.653 42.3034 707.337 42.3034C725.716 42.3034 741.269 56.7979 741.269 77.8928C741.269 98.9873 725.716 113.482 707.337 113.482ZM688.569 77.8928C688.569 88.2459 695.381 94.846 704.637 94.846C714.021 94.846 720.961 88.2459 720.961 77.8928C720.961 67.5394 714.021 60.9393 704.637 60.9393C695.381 60.9393 688.569 67.5394 688.569 77.8928Z" fill="#F1F0F2"/>
<path d="M316.559 113.044C313.25 113.044 308.414 112.79 303.451 112.281V101.971C308.669 102.607 313.123 102.862 316.05 102.862C324.704 102.862 328.777 100.062 328.777 94.3345C328.777 90.1343 326.359 87.0797 320.123 83.0067L315.668 80.0794C306.887 74.352 302.942 68.8789 302.942 61.6243C302.942 50.9329 311.214 44.3143 324.959 44.3143C327.886 44.3143 331.577 44.5692 335.268 45.0782V54.4968C331.449 54.1147 328.522 53.9874 326.613 53.9874C318.596 53.9874 314.396 56.6602 314.396 61.4968C314.396 65.0607 316.941 67.8608 323.177 71.9337L327.631 74.8611C336.795 80.843 340.74 86.4434 340.74 94.2073C340.74 106.044 331.831 113.044 316.559 113.044Z" fill="#F1F0F2"/>
<path d="M352.55 137.481V45.0782H362.986L363.113 55.3876C367.822 48.1328 376.985 43.8053 387.039 43.8053C405.365 43.8053 420.383 58.1877 420.383 78.6792C420.383 99.171 405.365 113.553 387.039 113.553C377.621 113.553 368.84 109.608 363.876 103.116C364.131 108.08 364.258 113.172 364.258 118.008V137.481H352.55ZM363.24 78.6792C363.24 94.08 373.294 102.607 385.512 102.607C398.875 102.607 408.547 92.6798 408.547 78.6792C408.547 64.5516 398.875 54.624 385.512 54.624C373.294 54.624 363.24 63.2787 363.24 78.6792Z" fill="#F1F0F2"/>
<path d="M432.902 112.281V45.0782H444.611V112.281H432.902ZM432.902 32.9868V22.6596L444.611 17.7399V32.9868H432.902Z" fill="#F1F0F2"/>
<path d="M491.603 113.172C471.495 113.172 457.114 99.0438 457.114 78.8065C457.114 58.4422 471.495 44.3143 491.603 44.3143C494.785 44.3143 498.475 44.5692 502.42 45.2055V56.0239C498.475 55.3876 495.166 55.1331 492.876 55.1331C478.24 55.1331 468.822 64.9334 468.822 78.8065C468.822 92.5526 478.24 102.226 492.876 102.226C495.166 102.226 498.475 101.971 502.42 101.462V112.281C498.475 112.917 494.785 113.172 491.603 113.172Z" fill="#F1F0F2"/>
<path d="M545.418 113.553C524.801 113.553 510.929 98.662 510.929 78.934C510.929 58.824 525.183 43.8053 544.654 43.8053C561.708 43.8053 576.98 55.3876 576.598 80.2066H521.874C522.51 93.4437 531.673 103.244 545.545 103.244C555.345 103.244 563.362 98.4075 568.326 90.2615L576.471 96.2437C570.617 105.407 560.435 113.553 545.418 113.553ZM522.51 71.4247H565.144C562.981 59.4606 554.581 53.7329 544.527 53.7329C533.2 53.7329 524.928 61.2422 522.51 71.4247Z" fill="#F1F0F2"/>
<defs>
<clipPath id="clip0_131_7882">
<rect width="214.632" height="150" fill="white"/>
</clipPath>
<clipPath id="clip1_131_7882">
<rect width="214.632" height="150" fill="white" transform="translate(0.000732422 0.00137329)"/>
</clipPath>
<clipPath id="clip2_131_7882">
<rect width="214.598" height="150" fill="white" transform="translate(0.0152588 0.00170898)"/>
</clipPath>
<clipPath id="clip3_131_7882">
<rect width="65.3515" height="148.532" fill="white" transform="translate(217.627 0.734131)"/>
</clipPath>
<clipPath id="clip4_131_7882">
<rect width="65.3515" height="148.532" fill="white" transform="translate(217.628 0.735504)"/>
</clipPath>
<clipPath id="clip5_131_7882">
<rect width="65.3515" height="148.526" fill="white" transform="translate(217.629 0.736877)"/>
</clipPath>
</defs>
</svg>
