<svg width="466" height="90" viewBox="0 0 466 90" fill="none" xmlns="http://www.w3.org/2000/svg">
<g clip-path="url(#clip0_37_7872)">
<g clip-path="url(#clip1_37_7872)">
<g clip-path="url(#clip2_37_7872)">
<path d="M108.595 46.713C108.212 53.8869 106.059 61.0415 102.394 67.2248C96.2544 77.5841 85.9683 85.6749 72.894 88.1284C66.367 89.2999 61.6197 89.1515 56.2882 88.3337C52.4422 87.4773 50.021 84.353 52.6033 80.6397C55.7676 76.0877 60.2525 73.0968 64.7291 70.1052C77.7866 61.3794 91.6566 54.086 105.655 47.0184C107.22 46.2294 108.705 44.6685 108.595 46.713Z" fill="#2B2231"/>
<path d="M117.885 29.9739C121.174 27.3726 124.35 24.0307 126.6 20.4505L126.604 20.4478L126.608 20.4451C129.085 16.5024 127.678 12.9427 123.141 11.8636C117.925 10.6222 113.503 11.1222 108.164 11.8636C106.864 12.0442 106.532 12.3243 106.088 12.6051C105.187 13.1738 105.088 14.91 106.385 15.1262C108.758 15.2745 116.532 14.7435 118.397 15.571C123.709 17.9295 109.172 25.7818 107.262 27.3018C106.116 28.2123 105.567 28.103 104.922 26.6695C99.8667 15.4301 91.6341 7.46058 80.1294 2.93555C72.9192 0.100737 65.4907 -0.548239 57.8164 0.42166C53.6808 0.944117 50.4365 2.07996 46.637 3.56014C45.384 4.04825 43.7264 4.87972 42.5737 5.54215C39.8716 7.09186 37.3848 8.83005 35.1214 10.7664C33.1501 12.4531 34.308 15.4724 36.8911 15.7149L84.4513 20.18C86.5623 20.3782 87.605 22.8434 86.2779 24.496L59.7515 58.4142C58.7867 59.6154 60.0186 61.5963 61.4491 61.0238C72.2406 56.6928 82.732 51.4368 93.1194 46.2139C101.782 41.8583 110.301 35.9726 117.885 29.9739Z" fill="#2B2231"/>
<path fill-rule="evenodd" clip-rule="evenodd" d="M68.4776 32.8735C70.1708 31.0595 68.6796 28.1201 66.2156 28.4151L23.1339 33.5748C21.8308 33.7308 20.7464 34.67 20.4834 35.9557C18.8266 44.0544 19.4875 52.2104 22.6048 60.374C23.7721 63.4323 23.8453 63.5204 20.6941 63.9079C20.2832 63.9583 19.8715 64.0141 19.4591 64.0701C17.0833 64.3921 14.6852 64.7172 12.2948 64.0386C6.51661 62.3926 15.4038 56.9192 16.0748 54.5804C16.5702 52.8533 14.2228 52.2064 12.755 53.2429C8.05189 56.5643 3.57437 60.4403 0.797863 65.5657C0.204543 66.7523 0.27793 68.2363 0.501159 69.0384C2.14516 74.945 14.8734 73.8729 19.0668 73.1198C24.5616 72.1333 28.5291 71.775 33.8677 70.1439C35.3237 69.6987 35.3507 69.551 37.5751 67.2589C48.8456 56.7972 59.1596 42.5337 68.4776 32.8735Z" fill="#2B2231"/>
</g>
</g>
</g>
<g clip-path="url(#clip3_37_7872)">
<g clip-path="url(#clip4_37_7872)">
<g clip-path="url(#clip5_37_7872)">
<path d="M164.755 0.464844H168.635L134.055 87.3748H129.943L164.755 0.464844Z" fill="#2B2231" fill-opacity="0.3"/>
</g>
</g>
</g>
<path d="M381.9 67.7592C370.925 67.7592 361.638 59.1047 361.638 46.5094C361.638 33.9138 370.925 25.2593 381.9 25.2593C385.891 25.2593 389.728 26.4185 392.568 28.7366C392.414 25.5684 392.338 22.323 392.338 18.923V7.25488H404.464V66.9866H393.719L393.643 63.2774C390.88 66.2137 386.427 67.7592 381.9 67.7592ZM373.765 46.5094C373.765 52.6911 377.909 56.6319 383.512 56.6319C389.037 56.6319 393.105 52.6911 393.105 46.5094C393.105 40.3275 389.037 36.3866 383.512 36.3866C377.909 36.3866 373.765 40.3275 373.765 46.5094Z" fill="#2B2231"/>
<path d="M433.668 67.7592C429.139 67.7592 424.688 66.2137 421.924 63.2774L421.848 66.9866H411.103V7.25488H423.229V18.2276C423.229 21.6276 423.153 25.3366 423 28.7366C425.762 26.4185 429.677 25.2593 433.668 25.2593C444.642 25.2593 453.929 33.9138 453.929 46.5094C453.929 59.1047 444.642 67.7592 433.668 67.7592ZM422.462 46.5094C422.462 52.6911 426.529 56.6319 432.056 56.6319C437.659 56.6319 441.803 52.6911 441.803 46.5094C441.803 40.3275 437.659 36.3866 432.056 36.3866C426.529 36.3866 422.462 40.3275 422.462 46.5094Z" fill="#2B2231"/>
<path d="M200.338 67.4979C198.363 67.4979 195.475 67.3459 192.511 67.042V60.8863C195.627 61.2662 198.287 61.4182 200.034 61.4182C205.202 61.4182 207.633 59.7463 207.633 56.3266C207.633 53.8187 206.19 51.9948 202.466 49.5629L199.806 47.815C194.563 44.3952 192.208 41.1273 192.208 36.7957C192.208 30.4119 197.147 26.46 205.354 26.46C207.101 26.46 209.305 26.6122 211.509 26.9161V32.5399C209.229 32.3117 207.481 32.2357 206.342 32.2357C201.554 32.2357 199.047 33.8316 199.047 36.7195C199.047 38.8475 200.566 40.5194 204.29 42.9513L206.949 44.6992C212.421 48.2709 214.776 51.6149 214.776 56.2506C214.776 63.3182 209.457 67.4979 200.338 67.4979Z" fill="#2B2231"/>
<path d="M221.828 82.0891V26.9161H228.059L228.135 33.0718C230.947 28.74 236.418 26.1561 242.421 26.1561C253.364 26.1561 262.33 34.7436 262.33 46.9789C262.33 59.2144 253.364 67.802 242.421 67.802C236.798 67.802 231.555 65.446 228.591 61.5702C228.743 64.534 228.819 67.574 228.819 70.4619V82.0891H221.828ZM228.211 46.9789C228.211 56.1746 234.214 61.2662 241.509 61.2662C249.488 61.2662 255.263 55.3386 255.263 46.9789C255.263 38.5435 249.488 32.6158 241.509 32.6158C234.214 32.6158 228.211 37.7835 228.211 46.9789Z" fill="#2B2231"/>
<path d="M269.806 67.042V26.9161H276.797V67.042H269.806ZM269.806 19.6965V13.5302L276.797 10.5927V19.6965H269.806Z" fill="#2B2231"/>
<path d="M304.855 67.574C292.849 67.574 284.262 59.1384 284.262 47.0549C284.262 34.8956 292.849 26.46 304.855 26.46C306.755 26.46 308.959 26.6122 311.314 26.9921V33.4517C308.959 33.0718 306.983 32.9198 305.615 32.9198C296.876 32.9198 291.253 38.7715 291.253 47.0549C291.253 55.2626 296.876 61.0383 305.615 61.0383C306.983 61.0383 308.959 60.8863 311.314 60.5824V67.042C308.959 67.4219 306.755 67.574 304.855 67.574Z" fill="#2B2231"/>
<path d="M336.988 67.802C324.678 67.802 316.395 58.9105 316.395 47.1311C316.395 35.1236 324.905 26.1561 336.532 26.1561C346.714 26.1561 355.833 33.0718 355.605 47.891H322.93C323.31 55.7947 328.781 61.6464 337.064 61.6464C342.915 61.6464 347.702 58.7585 350.666 53.8946L355.529 57.4665C352.034 62.9381 345.955 67.802 336.988 67.802ZM323.31 42.6473H348.766C347.474 35.5037 342.459 32.0837 336.456 32.0837C329.693 32.0837 324.754 36.5675 323.31 42.6473Z" fill="#2B2231"/>
<defs>
<clipPath id="clip0_37_7872">
<rect width="128.155" height="89.5635" fill="white"/>
</clipPath>
<clipPath id="clip1_37_7872">
<rect width="128.155" height="89.5635" fill="white"/>
</clipPath>
<clipPath id="clip2_37_7872">
<rect width="128.135" height="89.5635" fill="white" transform="translate(0.0107422)"/>
</clipPath>
<clipPath id="clip3_37_7872">
<rect width="39.0208" height="88.6868" fill="white" transform="translate(129.944 0.438477)"/>
</clipPath>
<clipPath id="clip4_37_7872">
<rect width="39.0208" height="88.6868" fill="white" transform="translate(129.944 0.438477)"/>
</clipPath>
<clipPath id="clip5_37_7872">
<rect width="39.0208" height="88.6836" fill="white" transform="translate(129.944 0.44043)"/>
</clipPath>
</defs>
</svg>
