<svg width="742" height="151" viewBox="0 0 742 151" fill="none" xmlns="http://www.w3.org/2000/svg">
<g clip-path="url(#clip0_131_7882)">
<g clip-path="url(#clip1_131_7882)">
<g clip-path="url(#clip2_131_7882)">
<path d="M182.215 78.8794C181.573 90.8943 177.968 102.877 171.829 113.232C161.547 130.582 144.32 144.132 122.423 148.242C111.492 150.204 103.541 149.955 94.6119 148.585C88.1707 147.151 84.1155 141.919 88.4404 135.7C93.7399 128.076 101.251 123.067 108.748 118.057C130.617 103.443 153.846 91.2277 177.29 79.391C179.911 78.0696 182.399 75.4553 182.215 78.8794Z" fill="#F1F0F2"/>
<path d="M197.774 50.855C203.282 46.4983 208.602 40.9015 212.37 34.9053L212.377 34.9008L212.383 34.8962C216.531 28.2932 214.176 22.3314 206.577 20.5241C197.841 18.4451 190.434 19.2823 181.493 20.5241C179.316 20.8266 178.761 21.2956 178.016 21.766C176.507 22.7184 176.341 25.6262 178.513 25.9882C182.488 26.2366 195.508 25.3473 198.631 26.7333C207.528 30.6832 183.182 43.8342 179.982 46.3799C178.063 47.9047 177.143 47.7217 176.064 45.3209C167.597 26.4972 153.809 13.15 134.541 5.57149C122.466 0.823774 110.025 -0.263124 97.1717 1.36125C90.2456 2.23626 84.812 4.13855 78.4486 6.61754C76.3501 7.43503 73.574 8.82756 71.6434 9.93699C67.1181 12.5324 62.9533 15.4435 59.1626 18.6866C55.8609 21.5113 57.8002 26.5681 62.1264 26.9743L141.78 34.4524C145.315 34.7842 147.061 38.9129 144.839 41.6807L100.413 98.4865C98.7968 100.498 100.86 103.816 103.256 102.857C121.329 95.6035 138.9 86.8009 156.297 78.0536C170.804 70.7588 185.073 60.9015 197.774 50.855Z" fill="#F1F0F2"/>
<path fill-rule="evenodd" clip-rule="evenodd" d="M115.031 55.709C117.866 52.671 115.369 47.7481 111.242 48.2422L39.0896 56.8835C36.9071 57.1449 35.091 58.7178 34.6505 60.8711C31.8758 74.4346 32.9827 88.0943 38.2035 101.767C40.1585 106.889 40.281 107.036 35.0034 107.685C34.3153 107.77 33.6257 107.863 32.9351 107.957C28.9561 108.496 24.9399 109.041 20.9364 107.904C11.2592 105.147 26.1433 95.9805 27.267 92.0635C28.0969 89.171 24.1653 88.0876 21.7072 89.8236C13.8305 95.3861 6.33157 101.878 1.68151 110.462C0.687828 112.449 0.810736 114.934 1.1846 116.278C3.93795 126.17 25.255 124.374 32.278 123.113C41.4807 121.461 48.1253 120.861 57.0664 118.129C59.505 117.383 59.5501 117.136 63.2755 113.297C82.1512 95.7763 99.4249 71.8878 115.031 55.709Z" fill="#F1F0F2"/>
</g>
</g>
</g>
<g clip-path="url(#clip3_131_7882)">
<g clip-path="url(#clip4_131_7882)">
<g opacity="0.3" clip-path="url(#clip5_131_7882)">
<path d="M276.271 1.42944H282.769L224.856 146.985H217.969L276.271 1.42944Z" fill="#F1F0F2"/>
</g>
</g>
</g>
<path d="M620.977 114.135C602.595 114.135 587.042 99.6403 587.042 78.5458C587.042 57.4509 602.595 42.9565 620.977 42.9565C627.661 42.9565 634.087 44.8978 638.844 48.7802C638.586 43.4741 638.458 38.0387 638.458 32.3445V12.8028H658.766V112.841H640.771L640.643 106.629C636.017 111.546 628.559 114.135 620.977 114.135ZM607.353 78.5458C607.353 88.8989 614.293 95.499 623.677 95.499C632.93 95.499 639.742 88.8989 639.742 78.5458C639.742 68.1924 632.93 61.5923 623.677 61.5923C614.293 61.5923 607.353 68.1924 607.353 78.5458Z" fill="#F1F0F2"/>
<path d="M707.678 114.135C700.092 114.135 692.638 111.546 688.009 106.629L687.881 112.841H669.886V12.8028H690.194V31.1797C690.194 36.874 690.066 43.0858 689.81 48.7802C694.437 44.8978 700.993 42.9565 707.678 42.9565C726.056 42.9565 741.61 57.4509 741.61 78.5458C741.61 99.6403 726.056 114.135 707.678 114.135ZM688.909 78.5458C688.909 88.8989 695.722 95.499 704.978 95.499C714.362 95.499 721.302 88.8989 721.302 78.5458C721.302 68.1924 714.362 61.5923 704.978 61.5923C695.722 61.5923 688.909 68.1924 688.909 78.5458Z" fill="#F1F0F2"/>
<path d="M316.9 113.697C313.591 113.697 308.755 113.443 303.792 112.934V102.624C309.009 103.26 313.464 103.515 316.391 103.515C325.045 103.515 329.117 100.715 329.117 94.9875C329.117 90.7873 326.699 87.7327 320.463 83.6597L316.009 80.7324C307.228 75.005 303.282 69.5319 303.282 62.2774C303.282 51.5859 311.555 44.9674 325.299 44.9674C328.227 44.9674 331.917 45.2222 335.608 45.7312V55.1498C331.79 54.7677 328.863 54.6404 326.954 54.6404C318.936 54.6404 314.736 57.3132 314.736 62.1498C314.736 65.7137 317.282 68.5138 323.518 72.5868L327.972 75.5141C337.135 81.496 341.08 87.0964 341.08 94.8603C341.08 106.697 332.172 113.697 316.9 113.697Z" fill="#F1F0F2"/>
<path d="M352.89 138.134V45.7312H363.326L363.453 56.0406C368.162 48.7858 377.326 44.4583 387.38 44.4583C405.706 44.4583 420.723 58.8407 420.723 79.3322C420.723 99.8241 405.706 114.206 387.38 114.206C377.962 114.206 369.181 110.261 364.217 103.769C364.472 108.733 364.599 113.825 364.599 118.661V138.134H352.89ZM363.581 79.3322C363.581 94.733 373.635 103.26 385.852 103.26C399.215 103.26 408.887 93.3328 408.887 79.3322C408.887 65.2047 399.215 55.277 385.852 55.277C373.635 55.277 363.581 63.9317 363.581 79.3322Z" fill="#F1F0F2"/>
<path d="M433.243 112.934V45.7312H444.951V112.934H433.243ZM433.243 33.6398V23.3126L444.951 18.3929V33.6398H433.243Z" fill="#F1F0F2"/>
<path d="M491.944 113.825C471.835 113.825 457.454 99.6968 457.454 79.4595C457.454 59.0952 471.835 44.9674 491.944 44.9674C495.125 44.9674 498.816 45.2222 502.761 45.8585V56.6769C498.816 56.0406 495.507 55.7861 493.216 55.7861C478.58 55.7861 469.163 65.5865 469.163 79.4595C469.163 93.2056 478.58 102.879 493.216 102.879C495.507 102.879 498.816 102.624 502.761 102.115V112.934C498.816 113.57 495.125 113.825 491.944 113.825Z" fill="#F1F0F2"/>
<path d="M545.759 114.206C525.141 114.206 511.27 99.315 511.27 79.587C511.27 59.477 525.523 44.4583 544.995 44.4583C562.049 44.4583 577.321 56.0406 576.939 80.8597H522.214C522.851 94.0967 532.014 103.897 545.886 103.897C555.685 103.897 563.703 99.0605 568.666 90.9145L576.811 96.8967C570.957 106.06 560.776 114.206 545.759 114.206ZM522.851 72.0777H565.485C563.321 60.1136 554.922 54.3859 544.868 54.3859C533.541 54.3859 525.269 61.8953 522.851 72.0777Z" fill="#F1F0F2"/>
<defs>
<clipPath id="clip0_131_7882">
<rect width="214.632" height="150" fill="white" transform="translate(0.340698 0.653015)"/>
</clipPath>
<clipPath id="clip1_131_7882">
<rect width="214.632" height="150" fill="white" transform="translate(0.34137 0.654388)"/>
</clipPath>
<clipPath id="clip2_131_7882">
<rect width="214.598" height="150" fill="white" transform="translate(0.355835 0.654724)"/>
</clipPath>
<clipPath id="clip3_131_7882">
<rect width="65.3515" height="148.532" fill="white" transform="translate(217.968 1.38715)"/>
</clipPath>
<clipPath id="clip4_131_7882">
<rect width="65.3515" height="148.532" fill="white" transform="translate(217.969 1.38852)"/>
</clipPath>
<clipPath id="clip5_131_7882">
<rect width="65.3515" height="148.526" fill="white" transform="translate(217.969 1.38989)"/>
</clipPath>
</defs>
</svg>
