<svg width="364" height="269" viewBox="0 0 364 269" fill="none" xmlns="http://www.w3.org/2000/svg">
<path d="M264.977 84.8431C264.285 97.8192 260.391 110.76 253.76 121.944C242.656 140.682 224.051 155.316 200.402 159.754C188.596 161.873 180.01 161.605 170.366 160.126C163.41 158.577 159.03 152.925 163.701 146.209C169.424 137.975 177.537 132.565 185.634 127.154C209.252 111.371 234.339 98.1793 259.659 85.3957C262.49 83.9685 265.176 81.1451 264.977 84.8431Z" fill="#A43189"/>
<path d="M281.783 54.5638C287.73 49.8586 293.476 43.8139 297.546 37.3381L297.553 37.3332L297.56 37.3283C302.04 30.197 299.496 23.7582 291.29 21.8064C281.855 19.561 273.855 20.4653 264.199 21.8064C261.847 22.133 261.248 22.6396 260.443 23.1476C258.814 24.1762 258.634 27.3167 260.98 27.7076C265.273 27.9759 279.335 27.0154 282.707 28.5123C292.316 32.7782 266.022 46.9812 262.567 49.7306C260.494 51.3775 259.501 51.1797 258.335 48.5869C249.191 28.2573 234.3 13.8423 213.491 5.65755C200.449 0.53002 187.013 -0.64383 173.132 1.11049C165.651 2.0555 159.783 4.10998 152.91 6.78728C150.644 7.67017 147.646 9.17411 145.561 10.3723C140.674 13.1754 136.176 16.3194 132.082 19.8219C128.516 22.8725 130.61 28.3338 135.283 28.7725L221.308 36.8489C225.126 37.2073 227.012 41.6663 224.612 44.6555L176.632 106.006C174.887 108.179 177.115 111.761 179.702 110.726C199.222 102.892 218.198 93.3853 236.987 83.9383C252.654 76.0599 268.065 65.414 281.783 54.5638Z" fill="#F0546C"/>
<path fill-rule="evenodd" clip-rule="evenodd" d="M192.411 59.8106C195.473 56.5296 192.776 51.2129 188.319 51.7466L110.394 61.0792C108.037 61.3614 106.076 63.0602 105.6 65.3858C102.603 80.0344 103.799 94.7868 109.437 109.553C111.549 115.085 111.681 115.244 105.981 115.945C105.238 116.036 104.493 116.137 103.747 116.238C99.4502 116.821 95.1126 117.409 90.7888 116.181C80.3374 113.204 96.4122 103.304 97.6259 99.0735C98.5221 95.9496 94.2761 94.7795 91.6213 96.6544C83.1144 102.662 75.0156 109.673 69.9935 118.943C68.9203 121.09 69.0531 123.774 69.4568 125.225C72.4305 135.909 95.4529 133.969 103.038 132.607C112.977 130.823 120.153 130.175 129.809 127.224C132.443 126.419 132.492 126.152 136.515 122.006C156.901 103.083 175.557 77.2838 192.411 59.8106Z" fill="#FFB471"/>
<path d="M276.279 251.353C262.997 251.353 251.758 240.879 251.758 225.636C251.758 210.394 262.997 199.92 276.279 199.92C281.109 199.92 285.752 201.323 289.19 204.128C289.003 200.294 288.911 196.367 288.911 192.252V178.131H303.585V250.418H290.582L290.49 245.929C287.147 249.482 281.758 251.353 276.279 251.353ZM266.435 225.636C266.435 233.117 271.449 237.887 278.23 237.887C284.917 237.887 289.839 233.117 289.839 225.636C289.839 218.155 284.917 213.386 278.23 213.386C271.449 213.386 266.435 218.155 266.435 225.636Z" fill="#F1F0F2"/>
<path d="M338.928 251.353C333.447 251.353 328.061 249.482 324.716 245.929L324.623 250.418H311.62V178.131H326.295V191.41C326.295 195.525 326.202 200.013 326.018 204.128C329.361 201.323 334.098 199.92 338.928 199.92C352.208 199.92 363.447 210.394 363.447 225.636C363.447 240.879 352.208 251.353 338.928 251.353ZM325.367 225.636C325.367 233.117 330.289 237.887 336.977 237.887C343.758 237.887 348.773 233.117 348.773 225.636C348.773 218.155 343.758 213.386 336.977 213.386C330.289 213.386 325.367 218.155 325.367 225.636Z" fill="#F1F0F2"/>
<path d="M56.5568 251.036C54.1659 251.036 50.6713 250.852 47.0849 250.485V243.035C50.8553 243.495 54.0739 243.679 56.189 243.679C62.4423 243.679 65.3851 241.656 65.3851 237.517C65.3851 234.482 63.6378 232.275 59.1317 229.332L55.9131 227.216C49.5678 223.078 46.717 219.123 46.717 213.881C46.717 206.156 52.6945 201.373 62.6263 201.373C64.7414 201.373 67.4082 201.557 70.0752 201.925V208.731C67.3162 208.455 65.2012 208.363 63.8217 208.363C58.0282 208.363 54.9935 210.294 54.9935 213.789C54.9935 216.364 56.8327 218.387 61.3388 221.331L64.5574 223.446C71.1787 227.768 74.0294 231.815 74.0294 237.425C74.0294 245.978 67.5921 251.036 56.5568 251.036Z" fill="#F1F0F2"/>
<path d="M82.5632 268.694V201.925H90.104L90.1959 209.374C93.5986 204.132 100.22 201.005 107.485 201.005C120.727 201.005 131.578 211.398 131.578 226.205C131.578 241.012 120.727 251.404 107.485 251.404C100.68 251.404 94.3342 248.553 90.7477 243.863C90.9316 247.45 91.0235 251.129 91.0235 254.623V268.694H82.5632ZM90.2879 226.205C90.2879 237.333 97.5528 243.495 106.381 243.495C116.037 243.495 123.026 236.321 123.026 226.205C123.026 215.996 116.037 208.823 106.381 208.823C97.5528 208.823 90.2879 215.077 90.2879 226.205Z" fill="#F1F0F2"/>
<path d="M140.625 250.485V201.925H149.085V250.485H140.625ZM140.625 193.188V185.726L149.085 182.171V193.188H140.625Z" fill="#F1F0F2"/>
<path d="M183.041 251.129C168.511 251.129 158.12 240.92 158.12 226.297C158.12 211.582 168.511 201.373 183.041 201.373C185.34 201.373 188.007 201.557 190.858 202.017V209.834C188.007 209.375 185.616 209.191 183.961 209.191C173.385 209.191 166.58 216.272 166.58 226.297C166.58 236.229 173.385 243.219 183.961 243.219C185.616 243.219 188.007 243.035 190.858 242.667V250.485C188.007 250.944 185.34 251.129 183.041 251.129Z" fill="#F1F0F2"/>
<path d="M221.928 251.404C207.03 251.404 197.006 240.644 197.006 226.389C197.006 211.858 207.306 201.005 221.376 201.005C233.698 201.005 244.734 209.374 244.458 227.308H204.915C205.374 236.873 211.996 243.955 222.019 243.955C229.1 243.955 234.894 240.46 238.48 234.574L244.366 238.897C240.136 245.518 232.779 251.404 221.928 251.404ZM205.374 220.963H236.181C234.618 212.318 228.548 208.179 221.284 208.179C213.099 208.179 207.122 213.605 205.374 220.963Z" fill="#F1F0F2"/>
<path opacity="0.3" d="M34.222 178.131H38.0361L4.043 267.419H0.000732422L34.222 178.131Z" fill="white" fill-opacity="0.3"/>
</svg>
