<svg width="364" height="269" viewBox="0 0 364 269" fill="none" xmlns="http://www.w3.org/2000/svg">
<path d="M264.977 84.4959C264.285 97.472 260.391 110.413 253.76 121.597C242.656 140.335 224.051 154.969 200.402 159.407C188.596 161.526 180.01 161.258 170.366 159.778C163.41 158.229 159.03 152.578 163.701 145.862C169.424 137.628 177.537 132.218 185.634 126.807C209.252 111.024 234.339 97.832 259.659 85.0485C262.49 83.6213 265.176 80.7979 264.977 84.4959Z" fill="#A43189"/>
<path d="M281.783 54.2165C287.73 49.5113 293.476 43.4667 297.546 36.9909L297.553 36.986L297.56 36.981C302.04 29.8497 299.496 23.411 291.29 21.4592C281.855 19.2138 273.855 20.118 264.199 21.4592C261.847 21.7858 261.248 22.2924 260.443 22.8004C258.814 23.829 258.634 26.9694 260.98 27.3604C265.273 27.6287 279.335 26.6681 282.707 28.165C292.316 32.431 266.022 46.634 262.567 49.3834C260.494 51.0302 259.501 50.8325 258.335 48.2397C249.191 27.9101 234.3 13.4951 213.491 5.31032C200.449 0.182791 187.013 -0.991059 173.132 0.763266C165.651 1.70827 159.783 3.76275 152.91 6.44006C150.644 7.32294 147.646 8.82688 145.561 10.0251C140.674 12.8281 136.176 15.9721 132.082 19.4746C128.516 22.5253 130.61 27.9866 135.283 28.4253L221.308 36.5017C225.126 36.8601 227.012 41.3191 224.612 44.3083L176.632 105.659C174.887 107.831 177.115 111.414 179.702 110.379C199.222 102.545 218.198 93.0381 236.987 83.591C252.654 75.7126 268.065 65.0668 281.783 54.2165Z" fill="#F0546C"/>
<path fill-rule="evenodd" clip-rule="evenodd" d="M192.411 59.4634C195.473 56.1823 192.776 50.8657 188.319 51.3993L110.394 60.7319C108.037 61.0142 106.076 62.713 105.6 65.0385C102.603 79.6871 103.799 94.4395 109.437 109.206C111.549 114.737 111.681 114.897 105.981 115.598C105.238 115.689 104.493 115.79 103.747 115.891C99.4502 116.473 95.1126 117.061 90.7888 115.834C80.3374 112.857 96.4122 102.957 97.6259 98.7263C98.5221 95.6024 94.2761 94.4323 91.6213 96.3071C83.1144 102.315 75.0156 109.326 69.9935 118.596C68.9203 120.742 69.0531 123.427 69.4568 124.878C72.4305 135.561 95.4529 133.622 103.038 132.26C112.977 130.475 120.153 129.827 129.809 126.877C132.443 126.072 132.492 125.805 136.515 121.659C156.901 102.736 175.557 76.9366 192.411 59.4634Z" fill="#FFB471"/>
<path d="M276.279 251.005C262.997 251.005 251.758 240.532 251.758 225.289C251.758 210.046 262.997 199.573 276.279 199.573C281.109 199.573 285.752 200.976 289.19 203.781C289.003 199.947 288.911 196.019 288.911 191.905V177.784H303.585V250.07H290.582L290.49 245.582C287.147 249.135 281.758 251.005 276.279 251.005ZM266.435 225.289C266.435 232.77 271.449 237.539 278.23 237.539C284.917 237.539 289.839 232.77 289.839 225.289C289.839 217.808 284.917 213.039 278.23 213.039C271.449 213.039 266.435 217.808 266.435 225.289Z" fill="#2B2231"/>
<path d="M338.928 251.005C333.447 251.005 328.061 249.135 324.716 245.582L324.623 250.07H311.62V177.784H326.295V191.063C326.295 195.178 326.202 199.666 326.018 203.781C329.361 200.976 334.098 199.573 338.928 199.573C352.208 199.573 363.447 210.046 363.447 225.289C363.447 240.532 352.208 251.005 338.928 251.005ZM325.367 225.289C325.367 232.77 330.289 237.539 336.977 237.539C343.758 237.539 348.773 232.77 348.773 225.289C348.773 217.808 343.758 213.039 336.977 213.039C330.289 213.039 325.367 217.808 325.367 225.289Z" fill="#2B2231"/>
<path d="M56.5568 250.689C54.1659 250.689 50.6713 250.505 47.0849 250.137V242.688C50.8553 243.148 54.0739 243.332 56.189 243.332C62.4423 243.332 65.3851 241.308 65.3851 237.17C65.3851 234.135 63.6378 231.928 59.1317 228.985L55.9131 226.869C49.5678 222.731 46.717 218.776 46.717 213.534C46.717 205.808 52.6945 201.026 62.6263 201.026C64.7414 201.026 67.4082 201.21 70.0752 201.578V208.384C67.3162 208.107 65.2012 208.016 63.8217 208.016C58.0282 208.016 54.9935 209.947 54.9935 213.442C54.9935 216.017 56.8327 218.04 61.3388 220.983L64.5574 223.099C71.1787 227.421 74.0294 231.468 74.0294 237.078C74.0294 245.631 67.5921 250.689 56.5568 250.689Z" fill="#2B2231"/>
<path d="M82.5632 268.347V201.578H90.104L90.1959 209.027C93.5986 203.785 100.22 200.658 107.485 200.658C120.727 200.658 131.578 211.051 131.578 225.858C131.578 240.665 120.727 251.057 107.485 251.057C100.68 251.057 94.3342 248.206 90.7477 243.516C90.9316 247.102 91.0235 250.781 91.0235 254.276V268.347H82.5632ZM90.2879 225.858C90.2879 236.986 97.5528 243.148 106.381 243.148C116.037 243.148 123.026 235.974 123.026 225.858C123.026 215.649 116.037 208.476 106.381 208.476C97.5528 208.476 90.2879 214.729 90.2879 225.858Z" fill="#2B2231"/>
<path d="M140.625 250.137V201.578H149.085V250.137H140.625ZM140.625 192.841V185.378L149.085 181.823V192.841H140.625Z" fill="#2B2231"/>
<path d="M183.041 250.781C168.511 250.781 158.12 240.573 158.12 225.949C158.12 211.234 168.511 201.026 183.041 201.026C185.34 201.026 188.007 201.21 190.858 201.67V209.487C188.007 209.027 185.616 208.843 183.961 208.843C173.385 208.843 166.58 215.925 166.58 225.949C166.58 235.882 173.385 242.872 183.961 242.872C185.616 242.872 188.007 242.688 190.858 242.32V250.137C188.007 250.597 185.34 250.781 183.041 250.781Z" fill="#2B2231"/>
<path d="M221.928 251.057C207.03 251.057 197.006 240.297 197.006 226.042C197.006 211.51 207.306 200.658 221.376 200.658C233.698 200.658 244.734 209.027 244.458 226.961H204.915C205.374 236.526 211.996 243.608 222.019 243.608C229.1 243.608 234.894 240.113 238.48 234.227L244.366 238.549C240.136 245.171 232.779 251.057 221.928 251.057ZM205.374 220.615H236.181C234.618 211.97 228.548 207.832 221.284 207.832C213.099 207.832 207.122 213.258 205.374 220.615Z" fill="#2B2231"/>
<path opacity="0.3" d="M34.222 177.784H38.0361L4.043 267.072H0.000732422L34.222 177.784Z" fill="#2B2231"/>
</svg>
