<svg width="364" height="270" viewBox="0 0 364 270" fill="none" xmlns="http://www.w3.org/2000/svg">
<path d="M264.977 85.1904C264.285 98.1664 260.391 111.108 253.76 122.292C242.656 141.029 224.051 155.664 200.402 160.102C188.596 162.221 180.01 161.952 170.366 160.473C163.41 158.924 159.03 153.273 163.701 146.556C169.424 138.323 177.537 132.913 185.634 127.502C209.252 111.719 234.339 98.5265 259.659 85.7429C262.49 84.3158 265.176 81.4924 264.977 85.1904Z" fill="#F1F0F2"/>
<path d="M281.783 54.911C287.73 50.2058 293.476 44.1612 297.546 37.6853L297.553 37.6805L297.56 37.6755C302.04 30.5442 299.496 24.1055 291.29 22.1537C281.855 19.9083 273.855 20.8125 264.199 22.1537C261.847 22.4803 261.248 22.9869 260.443 23.4949C258.814 24.5235 258.634 27.6639 260.98 28.0549C265.273 28.3232 279.335 27.3626 282.707 28.8595C292.316 33.1255 266.022 47.3285 262.567 50.0779C260.494 51.7247 259.501 51.527 258.335 48.9342C249.191 28.6046 234.3 14.1895 213.491 6.00481C200.449 0.877279 187.013 -0.296571 173.132 1.45775C165.651 2.40276 159.783 4.45724 152.91 7.13454C150.644 8.01743 147.646 9.52137 145.561 10.7196C140.674 13.5226 136.176 16.6666 132.082 20.1691C128.516 23.2198 130.61 28.6811 135.283 29.1198L221.308 37.1961C225.126 37.5546 227.012 42.0136 224.612 45.0028L176.632 106.353C174.887 108.526 177.115 112.109 179.702 111.073C199.222 103.239 218.198 93.7326 236.987 84.2855C252.654 76.4071 268.065 65.7612 281.783 54.911Z" fill="#F1F0F2"/>
<path fill-rule="evenodd" clip-rule="evenodd" d="M192.411 60.1579C195.473 56.8768 192.776 51.5602 188.319 52.0938L110.394 61.4264C108.037 61.7087 106.076 63.4074 105.6 65.733C102.603 80.3816 103.799 95.134 109.437 109.9C111.549 115.432 111.681 115.591 105.981 116.292C105.238 116.383 104.493 116.484 103.747 116.585C99.4502 117.168 95.1126 117.756 90.7888 116.529C80.3374 113.551 96.4122 103.651 97.6259 99.4208C98.5221 96.2969 94.2761 95.1268 91.6213 97.0016C83.1144 103.009 75.0156 110.02 69.9935 119.291C68.9203 121.437 69.0531 124.121 69.4568 125.572C72.4305 136.256 95.4529 134.316 103.038 132.954C112.977 131.17 120.153 130.522 129.809 127.572C132.443 126.766 132.492 126.499 136.515 122.353C156.901 103.431 175.557 77.631 192.411 60.1579Z" fill="#F1F0F2"/>
<path d="M276.279 251.7C262.997 251.7 251.758 241.226 251.758 225.984C251.758 210.741 262.997 200.267 276.279 200.267C281.109 200.267 285.752 201.67 289.19 204.475C289.003 200.641 288.911 196.714 288.911 192.599V178.479H303.585V250.765H290.582L290.49 246.276C287.147 249.83 281.758 251.7 276.279 251.7ZM266.435 225.984C266.435 233.465 271.449 238.234 278.23 238.234C284.917 238.234 289.839 233.465 289.839 225.984C289.839 218.502 284.917 213.733 278.23 213.733C271.449 213.733 266.435 218.502 266.435 225.984Z" fill="#F1F0F2"/>
<path d="M338.928 251.7C333.447 251.7 328.061 249.83 324.716 246.276L324.623 250.765H311.62V178.479H326.295V191.758C326.295 195.872 326.202 200.361 326.018 204.475C329.361 201.67 334.098 200.267 338.928 200.267C352.208 200.267 363.447 210.741 363.447 225.984C363.447 241.226 352.208 251.7 338.928 251.7ZM325.367 225.984C325.367 233.465 330.289 238.234 336.977 238.234C343.758 238.234 348.773 233.465 348.773 225.984C348.773 218.502 343.758 213.733 336.977 213.733C330.289 213.733 325.367 218.502 325.367 225.984Z" fill="#F1F0F2"/>
<path d="M56.5568 251.384C54.1659 251.384 50.6713 251.2 47.0849 250.832V243.382C50.8553 243.842 54.0739 244.026 56.189 244.026C62.4423 244.026 65.3851 242.003 65.3851 237.864C65.3851 234.829 63.6378 232.622 59.1317 229.679L55.9131 227.564C49.5678 223.425 46.717 219.47 46.717 214.228C46.717 206.503 52.6945 201.72 62.6263 201.72C64.7414 201.72 67.4082 201.904 70.0752 202.272V209.078C67.3162 208.802 65.2012 208.71 63.8217 208.71C58.0282 208.71 54.9935 210.641 54.9935 214.136C54.9935 216.711 56.8327 218.735 61.3388 221.678L64.5574 223.793C71.1787 228.115 74.0294 232.162 74.0294 237.772C74.0294 246.326 67.5921 251.384 56.5568 251.384Z" fill="#F1F0F2"/>
<path d="M82.5632 269.042V202.272H90.104L90.1959 209.722C93.5986 204.479 100.22 201.352 107.485 201.352C120.727 201.352 131.578 211.745 131.578 226.552C131.578 241.359 120.727 251.752 107.485 251.752C100.68 251.752 94.3342 248.901 90.7477 244.21C90.9316 247.797 91.0235 251.476 91.0235 254.971V269.042H82.5632ZM90.2879 226.552C90.2879 237.68 97.5528 243.842 106.381 243.842C116.037 243.842 123.026 236.669 123.026 226.552C123.026 216.344 116.037 209.17 106.381 209.17C97.5528 209.17 90.2879 215.424 90.2879 226.552Z" fill="#F1F0F2"/>
<path d="M140.625 250.832V202.272H149.085V250.832H140.625ZM140.625 193.535V186.073L149.085 182.518V193.535H140.625Z" fill="#F1F0F2"/>
<path d="M183.041 251.476C168.511 251.476 158.12 241.267 158.12 226.644C158.12 211.929 168.511 201.72 183.041 201.72C185.34 201.72 188.007 201.904 190.858 202.364V210.182C188.007 209.722 185.616 209.538 183.961 209.538C173.385 209.538 166.58 216.619 166.58 226.644C166.58 236.577 173.385 243.566 183.961 243.566C185.616 243.566 188.007 243.382 190.858 243.015V250.832C188.007 251.292 185.34 251.476 183.041 251.476Z" fill="#F1F0F2"/>
<path d="M221.928 251.752C207.03 251.752 197.006 240.991 197.006 226.736C197.006 212.205 207.306 201.352 221.376 201.352C233.698 201.352 244.734 209.722 244.458 227.656H204.915C205.374 237.221 211.996 244.302 222.019 244.302C229.1 244.302 234.894 240.807 238.48 234.921L244.366 239.244C240.136 245.865 232.779 251.752 221.928 251.752ZM205.374 221.31H236.181C234.618 212.665 228.548 208.526 221.284 208.526C213.099 208.526 207.122 213.952 205.374 221.31Z" fill="#F1F0F2"/>
<path opacity="0.3" d="M34.222 178.479H38.0361L4.043 267.766H0.000732422L34.222 178.479Z" fill="white" fill-opacity="0.3"/>
</svg>
