<svg width="364" height="269" viewBox="0 0 364 269" fill="none" xmlns="http://www.w3.org/2000/svg">
<path d="M264.977 84.5376C264.285 97.5137 260.391 110.455 253.76 121.639C242.656 140.377 224.051 155.011 200.402 159.449C188.596 161.568 180.01 161.299 170.366 159.82C163.41 158.271 159.03 152.62 163.701 145.903C169.424 137.67 177.537 132.26 185.634 126.849C209.252 111.066 234.339 97.8737 259.659 85.0902C262.49 83.663 265.176 80.8396 264.977 84.5376Z" fill="#2B2231"/>
<path d="M281.783 54.2582C287.73 49.553 293.476 43.5084 297.546 37.0325L297.553 37.0277L297.56 37.0227C302.04 29.8914 299.496 23.4527 291.29 21.5008C281.855 19.2554 273.855 20.1597 264.199 21.5008C261.847 21.8275 261.248 22.334 260.443 22.842C258.814 23.8707 258.634 27.0111 260.98 27.402C265.273 27.6703 279.335 26.7098 282.707 28.2067C292.316 32.4726 266.022 46.6756 262.567 49.425C260.494 51.0719 259.501 50.8742 258.335 48.2813C249.191 27.9518 234.3 13.5367 213.491 5.35198C200.449 0.224447 187.013 -0.949403 173.132 0.804922C165.651 1.74993 159.783 3.80441 152.91 6.48171C150.644 7.3646 147.646 8.86854 145.561 10.0667C140.674 12.8698 136.176 16.0138 132.082 19.5163C128.516 22.567 130.61 28.0283 135.283 28.467L221.308 36.5433C225.126 36.9017 227.012 41.3607 224.612 44.3499L176.632 105.7C174.887 107.873 177.115 111.456 179.702 110.42C199.222 102.587 218.198 93.0798 236.987 83.6327C252.654 75.7543 268.065 65.1084 281.783 54.2582Z" fill="#2B2231"/>
<path fill-rule="evenodd" clip-rule="evenodd" d="M192.411 59.505C195.473 56.224 192.776 50.9073 188.319 51.441L110.394 60.7736C108.037 61.0559 106.076 62.7546 105.6 65.0802C102.603 79.7288 103.799 94.4812 109.437 109.247C111.549 114.779 111.681 114.938 105.981 115.639C105.238 115.731 104.493 115.831 103.747 115.933C99.4502 116.515 95.1126 117.103 90.7888 115.876C80.3374 112.898 96.4122 102.998 97.6259 98.7679C98.5221 95.644 94.2761 94.474 91.6213 96.3488C83.1144 102.356 75.0156 109.367 69.9935 118.638C68.9203 120.784 69.0531 123.468 69.4568 124.919C72.4305 135.603 95.4529 133.664 103.038 132.301C112.977 130.517 120.153 129.869 129.809 126.919C132.443 126.114 132.492 125.846 136.515 121.701C156.901 102.778 175.557 76.9782 192.411 59.505Z" fill="#2B2231"/>
<path d="M276.279 251.047C262.997 251.047 251.758 240.574 251.758 225.331C251.758 210.088 262.997 199.615 276.279 199.615C281.109 199.615 285.752 201.017 289.19 203.823C289.003 199.989 288.911 196.061 288.911 191.947V177.826H303.585V250.112H290.582L290.49 245.623C287.147 249.177 281.758 251.047 276.279 251.047ZM266.435 225.331C266.435 232.812 271.449 237.581 278.23 237.581C284.917 237.581 289.839 232.812 289.839 225.331C289.839 217.85 284.917 213.081 278.23 213.081C271.449 213.081 266.435 217.85 266.435 225.331Z" fill="#2B2231"/>
<path d="M338.928 251.047C333.447 251.047 328.061 249.177 324.716 245.623L324.623 250.112H311.62V177.826H326.295V191.105C326.295 195.22 326.202 199.708 326.018 203.823C329.361 201.017 334.098 199.615 338.928 199.615C352.208 199.615 363.447 210.088 363.447 225.331C363.447 240.574 352.208 251.047 338.928 251.047ZM325.367 225.331C325.367 232.812 330.289 237.581 336.977 237.581C343.758 237.581 348.773 232.812 348.773 225.331C348.773 217.85 343.758 213.081 336.977 213.081C330.289 213.081 325.367 217.85 325.367 225.331Z" fill="#2B2231"/>
<path d="M56.5568 250.731C54.1659 250.731 50.6713 250.547 47.0849 250.179V242.73C50.8553 243.19 54.0739 243.373 56.189 243.373C62.4423 243.373 65.3851 241.35 65.3851 237.212C65.3851 234.177 63.6378 231.969 59.1317 229.026L55.9131 226.911C49.5678 222.773 46.717 218.818 46.717 213.576C46.717 205.85 52.6945 201.068 62.6263 201.068C64.7414 201.068 67.4082 201.252 70.0752 201.62V208.425C67.3162 208.149 65.2012 208.057 63.8217 208.057C58.0282 208.057 54.9935 209.989 54.9935 213.483C54.9935 216.059 56.8327 218.082 61.3388 221.025L64.5574 223.14C71.1787 227.463 74.0294 231.51 74.0294 237.12C74.0294 245.673 67.5921 250.731 56.5568 250.731Z" fill="#2B2231"/>
<path d="M82.5632 268.389V201.62H90.104L90.1959 209.069C93.5986 203.827 100.22 200.7 107.485 200.7C120.727 200.7 131.578 211.092 131.578 225.899C131.578 240.706 120.727 251.099 107.485 251.099C100.68 251.099 94.3342 248.248 90.7477 243.557C90.9316 247.144 91.0235 250.823 91.0235 254.318V268.389H82.5632ZM90.2879 225.899C90.2879 237.028 97.5528 243.19 106.381 243.19C116.037 243.19 123.026 236.016 123.026 225.899C123.026 215.691 116.037 208.517 106.381 208.517C97.5528 208.517 90.2879 214.771 90.2879 225.899Z" fill="#2B2231"/>
<path d="M140.625 250.179V201.62H149.085V250.179H140.625ZM140.625 192.883V185.42L149.085 181.865V192.883H140.625Z" fill="#2B2231"/>
<path d="M183.041 250.823C168.511 250.823 158.12 240.615 158.12 225.991C158.12 211.276 168.511 201.068 183.041 201.068C185.34 201.068 188.007 201.252 190.858 201.712V209.529C188.007 209.069 185.616 208.885 183.961 208.885C173.385 208.885 166.58 215.967 166.58 225.991C166.58 235.924 173.385 242.914 183.961 242.914C185.616 242.914 188.007 242.73 190.858 242.362V250.179C188.007 250.639 185.34 250.823 183.041 250.823Z" fill="#2B2231"/>
<path d="M221.928 251.099C207.03 251.099 197.006 240.339 197.006 226.083C197.006 211.552 207.306 200.7 221.376 200.7C233.698 200.7 244.734 209.069 244.458 227.003H204.915C205.374 236.568 211.996 243.65 222.019 243.65C229.1 243.65 234.894 240.155 238.48 234.269L244.366 238.591C240.136 245.213 232.779 251.099 221.928 251.099ZM205.374 220.657H236.181C234.618 212.012 228.548 207.873 221.284 207.873C213.099 207.873 207.122 213.3 205.374 220.657Z" fill="#2B2231"/>
<path opacity="0.3" d="M34.222 177.826H38.0361L4.043 267.113H0.000732422L34.222 177.826Z" fill="#2B2231"/>
</svg>
