<svg width="337" height="263" viewBox="0 0 337 263" fill="none" xmlns="http://www.w3.org/2000/svg">
<path d="M249.14 84.4959C248.447 97.472 244.554 110.413 237.923 121.597C226.819 140.335 208.214 154.969 184.565 159.407C172.759 161.526 164.172 161.258 154.529 159.778C147.573 158.229 143.193 152.578 147.864 145.862C153.587 137.628 161.7 132.218 169.797 126.807C193.415 111.024 218.502 97.832 243.822 85.0484C246.652 83.6213 249.339 80.7979 249.14 84.4959Z" fill="#2B2231"/>
<path d="M265.945 54.2165C271.893 49.5113 277.639 43.4667 281.709 36.9909L281.716 36.986L281.723 36.981C286.202 29.8497 283.659 23.411 275.452 21.4592C266.017 19.2138 258.018 20.118 248.362 21.4592C246.01 21.7858 245.41 22.2924 244.606 22.8004C242.977 23.829 242.797 26.9694 245.143 27.3604C249.435 27.6287 263.498 26.6681 266.87 28.165C276.479 32.431 250.185 46.634 246.73 49.3834C244.657 51.0302 243.664 50.8325 242.498 48.2397C233.354 27.9101 218.463 13.4951 197.653 5.31032C184.612 0.182791 171.175 -0.991059 157.294 0.763266C149.814 1.70827 143.946 3.76275 137.073 6.44006C134.807 7.32294 131.809 8.82688 129.724 10.0251C124.836 12.8281 120.338 15.9721 116.244 19.4746C112.678 22.5253 114.773 27.9866 119.445 28.4253L205.471 36.5017C209.289 36.8601 211.175 41.3191 208.775 44.3083L160.794 105.659C159.049 107.831 161.278 111.414 163.865 110.379C183.384 102.545 202.361 93.0381 221.149 83.591C236.817 75.7126 252.227 65.0667 265.945 54.2165Z" fill="#2B2231"/>
<path fill-rule="evenodd" clip-rule="evenodd" d="M176.574 59.4634C179.636 56.1823 176.939 50.8657 172.482 51.3993L94.5571 60.7319C92.2001 61.0142 90.2387 62.713 89.763 65.0385C86.7662 79.6871 87.9617 94.4395 93.6001 109.206C95.7116 114.737 95.8439 114.897 90.1441 115.598C89.4009 115.689 88.6562 115.79 87.9103 115.891C83.613 116.473 79.2754 117.061 74.9517 115.834C64.5003 112.857 80.5751 102.957 81.7888 98.7263C82.685 95.6024 78.4389 94.4323 75.7841 96.3071C67.2772 102.315 59.1784 109.326 54.1564 118.596C53.0832 120.742 53.2159 123.427 53.6197 124.878C56.5933 135.561 79.6157 133.622 87.2006 132.26C97.1395 130.475 104.316 129.827 113.972 126.877C116.606 126.072 116.654 125.805 120.678 121.659C141.064 102.736 159.719 76.9366 176.574 59.4634Z" fill="#2B2231"/>
<path d="M25.8764 261.85C34.4915 261.85 42.0428 257.765 45.527 251.345V260.878H51.2382V209.517H45.527V219.147C42.0428 212.727 34.4915 208.545 25.8764 208.545C11.8402 208.545 0.611206 219.634 0.611206 235.295C0.611206 250.761 11.8402 261.85 25.8764 261.85ZM6.90272 235.295C6.90272 223.233 15.2277 214.478 26.5534 214.478C36.9119 214.478 45.6238 221.774 45.6238 235.295C45.6238 248.719 36.9119 255.917 26.5534 255.917C15.2277 255.917 6.90272 247.259 6.90272 235.295Z" fill="#2B2231"/>
<path d="M101.361 240.551V209.521H95.1665V240.356C95.1665 250.473 90.6171 255.92 82.0974 255.92C73.6757 255.92 69.0296 250.473 69.0296 240.356V209.521H62.8348V240.551C62.8348 253.975 69.998 261.854 82.0974 261.854C94.2948 261.854 101.361 253.975 101.361 240.551Z" fill="#2B2231"/>
<path d="M115.13 260.882H121.326V215.359H128.004V209.522H121.326V192.402L115.13 195.028V209.522H108.838V215.359H115.13V260.882Z" fill="#2B2231"/>
<path d="M135.921 260.878H142.115V230.043C142.115 219.926 146.666 214.479 155.281 214.479C163.703 214.479 168.252 219.926 168.252 230.043V260.878H174.447V229.751C174.447 216.327 167.769 208.546 156.443 208.546C149.763 208.546 144.826 211.269 142.019 215.938C142.115 213.312 142.115 210.686 142.115 207.767V185.978H135.921V260.878Z" fill="#2B2231"/>
<path d="M181.041 260.882H221.891L223.828 247.069H203.402L223.536 211.273V209.327H184.429L182.493 223.14H201.175L181.041 258.936V260.882Z" fill="#2B2231"/>
<path d="M253.789 262.146C263.953 262.146 272.085 257.866 277.796 250.279L267.922 242.01C264.148 246.777 259.501 249.111 254.08 249.111C247.303 249.111 242.367 245.415 240.915 239.287H277.796C279.926 217.692 267.052 208.062 253.016 208.062C238.108 208.062 226.492 219.054 226.492 235.298C226.492 251.057 237.43 262.146 253.789 262.146ZM241.108 228.684C242.754 223.723 247.11 220.513 252.918 220.513C258.63 220.513 262.501 223.431 263.663 228.684H241.108Z" fill="#2B2231"/>
<path d="M308.155 261.854C313.866 261.854 319.48 259.908 322.965 256.212L323.061 260.881H336.614V185.689H321.319V200.377C321.319 204.657 321.416 208.743 321.609 212.731C318.028 209.813 313.188 208.354 308.155 208.354C294.312 208.354 282.598 219.248 282.598 235.104C282.598 250.959 294.312 261.854 308.155 261.854ZM297.893 235.104C297.893 227.322 303.121 222.361 310.187 222.361C317.157 222.361 322.288 227.322 322.288 235.104C322.288 242.886 317.157 247.847 310.187 247.847C303.121 247.847 297.893 242.886 297.893 235.104Z" fill="#2B2231"/>
</svg>
