<svg width="84" height="23" viewBox="0 0 84 23" fill="none" xmlns="http://www.w3.org/2000/svg">
<path d="M35.95 19.5637C35.95 20.0002 35.8702 20.3754 35.7105 20.6894C35.5508 21.002 35.332 21.2429 35.0539 21.4118C34.7771 21.5795 34.4625 21.6633 34.1099 21.6633C33.756 21.6633 33.44 21.5795 33.1619 21.4118C32.8851 21.2429 32.6669 21.0014 32.5073 20.6874C32.3476 20.3734 32.2678 19.9988 32.2678 19.5637C32.2678 19.1273 32.3476 18.7528 32.5073 18.4401C32.6669 18.1261 32.8851 17.8853 33.1619 17.7176C33.44 17.5487 33.756 17.4642 34.1099 17.4642C34.4625 17.4642 34.7771 17.5487 35.0539 17.7176C35.332 17.8853 35.5508 18.1261 35.7105 18.4401C35.8702 18.7528 35.95 19.1273 35.95 19.5637ZM35.3393 19.5637C35.3393 19.2311 35.2854 18.951 35.1776 18.7235C35.0712 18.4947 34.9248 18.3217 34.7385 18.2046C34.5536 18.0862 34.344 18.027 34.1099 18.027C33.8744 18.027 33.6641 18.0862 33.4792 18.2046C33.2943 18.3217 33.1479 18.4947 33.0401 18.7235C32.9337 18.951 32.8805 19.2311 32.8805 19.5637C32.8805 19.8964 32.9337 20.1771 33.0401 20.406C33.1479 20.6335 33.2943 20.8064 33.4792 20.9249C33.6641 21.042 33.8744 21.1005 34.1099 21.1005C34.344 21.1005 34.5536 21.042 34.7385 20.9249C34.9248 20.8064 35.0712 20.6335 35.1776 20.406C35.2854 20.1771 35.3393 19.8964 35.3393 19.5637ZM37.8429 21.6074V17.5201H39.2998C39.6178 17.5201 39.8812 17.5779 40.0901 17.6937C40.299 17.8095 40.4554 17.9678 40.5591 18.1687C40.6629 18.3683 40.7148 18.5931 40.7148 18.8433C40.7148 19.0947 40.6623 19.3209 40.5571 19.5218C40.4534 19.7214 40.2964 19.8797 40.0861 19.9968C39.8772 20.1126 39.6145 20.1705 39.2978 20.1705H38.2959V19.6476H39.2419C39.4428 19.6476 39.6058 19.613 39.7309 19.5438C39.856 19.4733 39.9478 19.3775 40.0063 19.2564C40.0648 19.1353 40.0941 18.9976 40.0941 18.8433C40.0941 18.6889 40.0648 18.5519 40.0063 18.4321C39.9478 18.3124 39.8553 18.2186 39.7289 18.1507C39.6038 18.0829 39.4388 18.0489 39.2339 18.0489H38.4596V21.6074H37.8429ZM42.5618 21.6074V17.5201H45.1244V18.0509H43.1785V19.2963H44.9907V19.8252H43.1785V21.0765H45.1483V21.6074H42.5618ZM50.3712 17.5201V21.6074H49.8044L47.7268 18.6098H47.6889V21.6074H47.0722V17.5201H47.643L49.7226 20.5217H49.7605V17.5201H50.3712ZM57.2355 18.5938C57.2142 18.4049 57.1264 18.2585 56.972 18.1547C56.8177 18.0496 56.6234 17.9971 56.3893 17.9971C56.2216 17.9971 56.0766 18.0237 55.9542 18.0769C55.8318 18.1288 55.7366 18.2006 55.6688 18.2924C55.6023 18.3829 55.569 18.486 55.569 18.6018C55.569 18.6989 55.5916 18.7827 55.6369 18.8532C55.6834 18.9238 55.744 18.983 55.8185 19.0309C55.8943 19.0774 55.9755 19.1167 56.062 19.1486C56.1484 19.1792 56.2316 19.2045 56.3114 19.2245L56.7106 19.3282C56.841 19.3602 56.9747 19.4034 57.1117 19.458C57.2488 19.5125 57.3758 19.5844 57.4929 19.6735C57.61 19.7627 57.7045 19.8731 57.7763 20.0048C57.8495 20.1365 57.8861 20.2942 57.8861 20.4778C57.8861 20.7093 57.8262 20.9149 57.7065 21.0945C57.5881 21.2741 57.4158 21.4158 57.1896 21.5196C56.9647 21.6234 56.6926 21.6753 56.3733 21.6753C56.0673 21.6753 55.8025 21.6267 55.579 21.5296C55.3555 21.4325 55.1805 21.2947 55.0541 21.1165C54.9277 20.9368 54.8578 20.724 54.8445 20.4778H55.4632C55.4752 20.6255 55.5231 20.7486 55.6069 20.847C55.6921 20.9442 55.8005 21.0167 55.9322 21.0646C56.0653 21.1111 56.211 21.1344 56.3693 21.1344C56.5436 21.1344 56.6986 21.1071 56.8343 21.0526C56.9714 20.9967 57.0791 20.9195 57.1576 20.8211C57.2361 20.7213 57.2754 20.6049 57.2754 20.4718C57.2754 20.3507 57.2408 20.2516 57.1716 20.1745C57.1038 20.0973 57.0113 20.0334 56.8942 19.9829C56.7784 19.9323 56.6474 19.8877 56.501 19.8491L56.0181 19.7174C55.6907 19.6283 55.4313 19.4972 55.2397 19.3242C55.0494 19.1513 54.9543 18.9224 54.9543 18.6377C54.9543 18.4022 55.0182 18.1966 55.1459 18.021C55.2736 17.8454 55.4466 17.709 55.6648 17.6119C55.883 17.5134 56.1291 17.4642 56.4032 17.4642C56.68 17.4642 56.9241 17.5127 57.1357 17.6099C57.3486 17.707 57.5162 17.8407 57.6386 18.011C57.761 18.18 57.8249 18.3743 57.8302 18.5938H57.2355ZM63.2976 19.5637C63.2976 20.0002 63.2177 20.3754 63.0581 20.6894C62.8984 21.002 62.6795 21.2429 62.4015 21.4118C62.1247 21.5795 61.81 21.6633 61.4575 21.6633C61.1035 21.6633 60.7875 21.5795 60.5095 21.4118C60.2327 21.2429 60.0145 21.0014 59.8548 20.6874C59.6952 20.3734 59.6153 19.9988 59.6153 19.5637C59.6153 19.1273 59.6952 18.7528 59.8548 18.4401C60.0145 18.1261 60.2327 17.8853 60.5095 17.7176C60.7875 17.5487 61.1035 17.4642 61.4575 17.4642C61.81 17.4642 62.1247 17.5487 62.4015 17.7176C62.6795 17.8853 62.8984 18.1261 63.0581 18.4401C63.2177 18.7528 63.2976 19.1273 63.2976 19.5637ZM62.6869 19.5637C62.6869 19.2311 62.633 18.951 62.5252 18.7235C62.4188 18.4947 62.2724 18.3217 62.0861 18.2046C61.9012 18.0862 61.6916 18.027 61.4575 18.027C61.2219 18.027 61.0117 18.0862 60.8268 18.2046C60.6418 18.3217 60.4955 18.4947 60.3877 18.7235C60.2813 18.951 60.2281 19.2311 60.2281 19.5637C60.2281 19.8964 60.2813 20.1771 60.3877 20.406C60.4955 20.6335 60.6418 20.8064 60.8268 20.9249C61.0117 21.042 61.2219 21.1005 61.4575 21.1005C61.6916 21.1005 61.9012 21.042 62.0861 20.9249C62.2724 20.8064 62.4188 20.6335 62.5252 20.406C62.633 20.1771 62.6869 19.8964 62.6869 19.5637ZM67.8189 17.5201H68.4376V20.2084C68.4376 20.4944 68.3704 20.7479 68.236 20.9688C68.1016 21.1883 67.9127 21.3613 67.6692 21.4877C67.4257 21.6127 67.1403 21.6753 66.813 21.6753C66.4871 21.6753 66.2023 21.6127 65.9588 21.4877C65.7154 21.3613 65.5264 21.1883 65.392 20.9688C65.2577 20.7479 65.1905 20.4944 65.1905 20.2084V17.5201H65.8072V20.1585C65.8072 20.3434 65.8477 20.5077 65.9289 20.6514C66.0114 20.7951 66.1278 20.9082 66.2782 20.9907C66.4285 21.0719 66.6068 21.1125 66.813 21.1125C67.0206 21.1125 67.1995 21.0719 67.3499 20.9907C67.5016 20.9082 67.6173 20.7951 67.6972 20.6514C67.7783 20.5077 67.8189 20.3434 67.8189 20.1585V17.5201ZM70.4582 21.6074V17.5201H71.9151C72.2318 17.5201 72.4946 17.5746 72.7035 17.6837C72.9137 17.7928 73.0707 17.9438 73.1745 18.1368C73.2783 18.3284 73.3301 18.5499 73.3301 18.8014C73.3301 19.0515 73.2776 19.2717 73.1725 19.462C73.0687 19.6509 72.9117 19.7979 72.7015 19.903C72.4926 20.0081 72.2298 20.0607 71.9131 20.0607H70.8095V19.5298H71.8573C72.0568 19.5298 72.2192 19.5012 72.3442 19.444C72.4706 19.3868 72.5631 19.3036 72.6216 19.1945C72.6802 19.0854 72.7095 18.9544 72.7095 18.8014C72.7095 18.647 72.6795 18.5133 72.6197 18.4002C72.5611 18.2871 72.4686 18.2006 72.3422 18.1408C72.2172 18.0795 72.0528 18.0489 71.8493 18.0489H71.0749V21.6074H70.4582ZM72.476 19.7633L73.4858 21.6074H72.7833L71.7934 19.7633H72.476ZM78.5994 18.8493H77.9767C77.9528 18.7162 77.9082 18.5991 77.843 18.498C77.7778 18.3969 77.698 18.3111 77.6035 18.2405C77.509 18.17 77.4033 18.1168 77.2862 18.0809C77.1704 18.045 77.0474 18.027 76.917 18.027C76.6815 18.027 76.4706 18.0862 76.2843 18.2046C76.0994 18.323 75.953 18.4967 75.8452 18.7255C75.7388 18.9544 75.6856 19.2338 75.6856 19.5637C75.6856 19.8964 75.7388 20.1771 75.8452 20.406C75.953 20.6348 76.1 20.8078 76.2863 20.9249C76.4726 21.042 76.6821 21.1005 76.915 21.1005C77.044 21.1005 77.1664 21.0832 77.2822 21.0486C77.3993 21.0127 77.5051 20.9601 77.5995 20.8909C77.694 20.8217 77.7738 20.7373 77.839 20.6375C77.9055 20.5364 77.9514 20.4206 77.9767 20.2902L78.5994 20.2922C78.5661 20.4931 78.5016 20.6781 78.4058 20.847C78.3114 21.0147 78.1896 21.1597 78.0406 21.2821C77.8929 21.4032 77.7239 21.497 77.5337 21.5635C77.3434 21.63 77.1358 21.6633 76.911 21.6633C76.5571 21.6633 76.2417 21.5795 75.965 21.4118C75.6882 21.2429 75.47 21.0014 75.3104 20.6874C75.152 20.3734 75.0729 19.9988 75.0729 19.5637C75.0729 19.1273 75.1527 18.7528 75.3124 18.4401C75.472 18.1261 75.6902 17.8853 75.967 17.7176C76.2437 17.5487 76.5584 17.4642 76.911 17.4642C77.1279 17.4642 77.3301 17.4954 77.5177 17.558C77.7066 17.6192 77.8763 17.7097 78.0266 17.8294C78.177 17.9478 78.3014 18.0929 78.3998 18.2645C78.4983 18.4348 78.5648 18.6297 78.5994 18.8493ZM80.4614 21.6074V17.5201H83.024V18.0509H81.0781V19.2963H82.8902V19.8252H81.0781V21.0765H83.0479V21.6074H80.4614Z" fill="#170D1B"/>
<g clip-path="url(#clip0_8855_468)">
<g clip-path="url(#clip1_8855_468)">
<g clip-path="url(#clip2_8855_468)">
<path d="M19.1815 8.25113C19.1139 9.5183 18.7336 10.7821 18.0861 11.8742C17.0017 13.704 15.1849 15.1332 12.8755 15.5665C11.7226 15.7735 10.8841 15.7472 9.94234 15.6028C9.263 15.4515 8.83532 14.8997 9.29145 14.2438C9.85037 13.4397 10.6426 12.9114 11.4333 12.383C13.7397 10.8417 16.1896 9.55346 18.6621 8.30509C18.9386 8.16573 19.2009 7.89001 19.1815 8.25113Z" fill="#170D1B"/>
<path d="M20.8226 5.29442C21.4034 4.83494 21.9645 4.24466 22.3619 3.61226L22.3626 3.61179L22.3633 3.6113C22.8007 2.9149 22.5524 2.28613 21.751 2.09553C20.8296 1.87625 20.0484 1.96456 19.1054 2.09553C18.8758 2.12742 18.8172 2.17689 18.7387 2.2265C18.5796 2.32695 18.562 2.63363 18.7911 2.6718C19.2103 2.698 20.5835 2.6042 20.9129 2.75038C21.8512 3.16697 19.2835 4.55395 18.9461 4.82244C18.7437 4.98326 18.6467 4.96396 18.5328 4.71076C17.6398 2.72549 16.1857 1.31779 14.1536 0.518519C12.88 0.0177937 11.5679 -0.0968378 10.2123 0.0744796C9.48183 0.166764 8.90876 0.367392 8.23764 0.628843C8.01632 0.71506 7.72353 0.861927 7.51992 0.978935C7.04265 1.25267 6.6034 1.55969 6.2036 1.90173C5.85539 2.19964 6.05992 2.73296 6.51619 2.7758L14.917 3.56449C15.2898 3.59949 15.474 4.03493 15.2396 4.32684L10.5541 10.318C10.3837 10.5301 10.6013 10.88 10.854 10.7789C12.7601 10.0139 14.6133 9.08552 16.448 8.16297C17.9781 7.39361 19.4829 6.35399 20.8226 5.29442Z" fill="#170D1B"/>
<path fill-rule="evenodd" clip-rule="evenodd" d="M12.0955 5.80663C12.3946 5.48623 12.1312 4.96703 11.6959 5.01914L4.08621 5.93052C3.85604 5.95808 3.6645 6.12397 3.61804 6.35107C3.3254 7.78157 3.44214 9.22221 3.99276 10.6642C4.19895 11.2044 4.21187 11.2199 3.65526 11.2884C3.58268 11.2973 3.50996 11.3071 3.43712 11.317C3.01747 11.3739 2.59389 11.4313 2.17166 11.3115C1.15103 11.0207 2.72081 10.0539 2.83933 9.64083C2.92685 9.33577 2.5122 9.2215 2.25295 9.40459C1.42221 9.99126 0.63133 10.6759 0.140904 11.5812C0.0361027 11.7908 0.0490655 12.0529 0.0884953 12.1946C0.378882 13.2379 2.62712 13.0485 3.36782 12.9155C4.3384 12.7413 5.03919 12.678 5.98217 12.3899C6.23936 12.3112 6.24412 12.2851 6.63703 11.8803C8.62779 10.0324 10.4496 7.51297 12.0955 5.80663Z" fill="#170D1B"/>
</g>
</g>
</g>
<g clip-path="url(#clip3_8855_468)">
<g clip-path="url(#clip4_8855_468)">
<g clip-path="url(#clip5_8855_468)">
<path d="M29.1013 0.0820312H29.7867L23.6787 15.4333H22.9524L29.1013 0.0820312Z" fill="#170D1B" fill-opacity="0.3"/>
</g>
</g>
</g>
<path d="M65.4567 11.9686C63.518 11.9686 61.8776 10.44 61.8776 8.21519C61.8776 5.99038 63.518 4.4617 65.4567 4.4617C66.1616 4.4617 66.8393 4.66645 67.3411 5.07591C67.3138 4.5163 67.3003 3.94304 67.3003 3.34249V1.28149H69.4422V11.8322H67.5443L67.5308 11.177C67.0428 11.6957 66.2563 11.9686 65.4567 11.9686ZM64.0198 8.21519C64.0198 9.3071 64.7517 10.0032 65.7414 10.0032C66.7173 10.0032 67.4358 9.3071 67.4358 8.21519C67.4358 7.12325 66.7173 6.42716 65.7414 6.42716C64.7517 6.42716 64.0198 7.12325 64.0198 8.21519Z" fill="#170D1B"/>
<path d="M74.6007 11.9686C73.8007 11.9686 73.0145 11.6957 72.5263 11.177L72.5128 11.8322H70.6149V1.28149H72.7568V3.21965C72.7568 3.82021 72.7433 4.47534 72.7163 5.07591C73.2043 4.66645 73.8958 4.4617 74.6007 4.4617C76.539 4.4617 78.1795 5.99038 78.1795 8.21519C78.1795 10.44 76.539 11.9686 74.6007 11.9686ZM72.6213 8.21519C72.6213 9.3071 73.3397 10.0032 74.316 10.0032C75.3057 10.0032 76.0376 9.3071 76.0376 8.21519C76.0376 7.12325 75.3057 6.42716 74.316 6.42716C73.3397 6.42716 72.6213 7.12325 72.6213 8.21519Z" fill="#170D1B"/>
<path d="M33.3866 11.9225C33.0376 11.9225 32.5276 11.8956 32.0041 11.8419V10.7547C32.5544 10.8218 33.0242 10.8486 33.3329 10.8486C34.2457 10.8486 34.6752 10.5533 34.6752 9.94924C34.6752 9.50626 34.4201 9.1841 33.7625 8.75454L33.2927 8.4458C32.3665 7.84176 31.9504 7.26452 31.9504 6.49941C31.9504 5.37182 32.8229 4.67378 34.2725 4.67378C34.5812 4.67378 34.9705 4.70066 35.3597 4.75435V5.74769C34.957 5.70739 34.6483 5.69397 34.447 5.69397C33.6014 5.69397 33.1584 5.97586 33.1584 6.48596C33.1584 6.86183 33.4269 7.15715 34.0846 7.58671L34.5544 7.89544C35.5208 8.52634 35.9369 9.11699 35.9369 9.93582C35.9369 11.1842 34.9973 11.9225 33.3866 11.9225Z" fill="#170D1B"/>
<path d="M37.1824 14.4998V4.75434H38.2831L38.2965 5.84164C38.7931 5.0765 39.7595 4.62009 40.8199 4.62009C42.7527 4.62009 44.3366 6.13696 44.3366 8.29813C44.3366 10.4593 42.7527 11.9762 40.8199 11.9762C39.8266 11.9762 38.9005 11.5601 38.377 10.8754C38.4039 11.399 38.4173 11.9359 38.4173 12.446V14.4998H37.1824ZM38.3099 8.29813C38.3099 9.9224 39.3703 10.8218 40.6588 10.8218C42.0682 10.8218 43.0883 9.77473 43.0883 8.29813C43.0883 6.80814 42.0682 5.76111 40.6588 5.76111C39.3703 5.76111 38.3099 6.67389 38.3099 8.29813Z" fill="#170D1B"/>
<path d="M45.6569 11.8419V4.75435H46.8918V11.8419H45.6569ZM45.6569 3.4791V2.38993L46.8918 1.87106V3.4791H45.6569Z" fill="#170D1B"/>
<path d="M51.8479 11.9359C49.7272 11.9359 48.2105 10.4459 48.2105 8.31155C48.2105 6.1638 49.7272 4.67378 51.8479 4.67378C52.1835 4.67378 52.5727 4.70066 52.9888 4.76777V5.90875C52.5727 5.84164 52.2237 5.8148 51.9821 5.8148C50.4386 5.8148 49.4453 6.84841 49.4453 8.31155C49.4453 9.76131 50.4386 10.7815 51.9821 10.7815C52.2237 10.7815 52.5727 10.7547 52.9888 10.701V11.8419C52.5727 11.9091 52.1835 11.9359 51.8479 11.9359Z" fill="#170D1B"/>
<path d="M57.5236 11.9762C55.3492 11.9762 53.8862 10.4056 53.8862 8.32501C53.8862 6.20406 55.3895 4.62009 57.4431 4.62009C59.2417 4.62009 60.8524 5.84164 60.8121 8.45922H55.0405C55.1076 9.85529 56.074 10.8889 57.537 10.8889C58.5705 10.8889 59.4162 10.3788 59.9396 9.51968L60.7987 10.1506C60.1812 11.1171 59.1075 11.9762 57.5236 11.9762ZM55.1076 7.53302H59.6041C59.3759 6.27121 58.49 5.66713 57.4297 5.66713C56.2351 5.66713 55.3626 6.45911 55.1076 7.53302Z" fill="#170D1B"/>
<defs>
<clipPath id="clip0_8855_468">
<rect width="22.6366" height="15.82" fill="white"/>
</clipPath>
<clipPath id="clip1_8855_468">
<rect width="22.6366" height="15.82" fill="white"/>
</clipPath>
<clipPath id="clip2_8855_468">
<rect width="22.633" height="15.82" fill="white" transform="translate(0.00183105)"/>
</clipPath>
<clipPath id="clip3_8855_468">
<rect width="6.89241" height="15.6651" fill="white" transform="translate(22.9526 0.0773926)"/>
</clipPath>
<clipPath id="clip4_8855_468">
<rect width="6.89241" height="15.6651" fill="white" transform="translate(22.9526 0.0773926)"/>
</clipPath>
<clipPath id="clip5_8855_468">
<rect width="6.89241" height="15.6646" fill="white" transform="translate(22.9526 0.0777588)"/>
</clipPath>
</defs>
</svg>
