<svg width="73" height="23" viewBox="0 0 73 23" fill="none" xmlns="http://www.w3.org/2000/svg">
<path d="M19.0286 8.21059C18.9613 9.47156 18.5829 10.7291 17.9386 11.816C16.8595 13.6368 15.0515 15.059 12.7534 15.4902C11.6061 15.6961 10.7717 15.67 9.83459 15.5263C9.15858 15.3758 8.73298 14.8266 9.18689 14.1739C9.74308 13.3738 10.5314 12.8481 11.3182 12.3223C13.6134 10.7885 16.0513 9.50655 18.5117 8.26428C18.7868 8.1256 19.0479 7.85123 19.0286 8.21059Z" fill="#A43189"/>
<path d="M20.6615 5.26853C21.2394 4.81129 21.7978 4.2239 22.1933 3.59459L22.194 3.59412L22.1947 3.59364C22.63 2.90064 22.3828 2.27495 21.5853 2.08528C20.6685 1.86708 19.8911 1.95495 18.9527 2.08528C18.7242 2.11702 18.6659 2.16624 18.5878 2.21561C18.4294 2.31557 18.412 2.62075 18.64 2.65873C19.0571 2.68481 20.4236 2.59147 20.7513 2.73693C21.6851 3.15148 19.1299 4.53168 18.7942 4.79886C18.5927 4.95889 18.4962 4.93968 18.3829 4.68772C17.4943 2.71216 16.0473 1.31135 14.0251 0.515984C12.7577 0.0177066 11.452 -0.0963642 10.1031 0.0741153C9.37619 0.165948 8.80593 0.365596 8.13809 0.625767C7.91785 0.711563 7.6265 0.857711 7.42388 0.974147C6.94894 1.24654 6.51184 1.55206 6.114 1.89242C5.76749 2.18888 5.97102 2.71959 6.42506 2.76222L14.7847 3.54706C15.1558 3.58188 15.3391 4.0152 15.1058 4.30568L10.4432 10.2675C10.2736 10.4786 10.4902 10.8268 10.7416 10.7262C12.6385 9.96492 14.4825 9.04108 16.3083 8.12305C17.8309 7.35745 19.3284 6.32292 20.6615 5.26853Z" fill="#F0546C"/>
<path fill-rule="evenodd" clip-rule="evenodd" d="M11.977 5.77798C12.2747 5.45914 12.0125 4.94249 11.5795 4.99435L4.00695 5.90126C3.7779 5.92869 3.5873 6.09377 3.54107 6.31976C3.24985 7.74326 3.36603 9.17685 3.91395 10.6118C4.11913 11.1493 4.13199 11.1648 3.5781 11.2329C3.50588 11.2418 3.43351 11.2516 3.36103 11.2614C2.94344 11.318 2.52192 11.3752 2.10176 11.2559C1.08612 10.9666 2.64822 10.0045 2.76616 9.59342C2.85325 9.28986 2.44064 9.17615 2.18265 9.35834C1.35598 9.94214 0.568964 10.6234 0.0809354 11.5243C-0.0233528 11.7329 -0.0104534 11.9937 0.0287835 12.1347C0.317751 13.1729 2.55499 12.9845 3.29207 12.8521C4.2579 12.6787 4.95526 12.6157 5.89364 12.329C6.14957 12.2508 6.1543 12.2248 6.54529 11.8219C8.52631 9.98308 10.3392 7.47597 11.977 5.77798Z" fill="#FFB471"/>
<path d="M28.345 12.9792C29.5537 12.9792 30.6132 12.406 31.102 11.5052V12.8427H31.9033V5.63682H31.102V6.98793C30.6132 6.08719 29.5537 5.50037 28.345 5.50037C26.3757 5.50037 24.8003 7.05616 24.8003 9.25342C24.8003 11.4233 26.3757 12.9792 28.345 12.9792ZM25.683 9.25342C25.683 7.56113 26.851 6.33286 28.44 6.33286C29.8933 6.33286 31.1156 7.35642 31.1156 9.25342C31.1156 11.1368 29.8933 12.1467 28.44 12.1467C26.851 12.1467 25.683 10.9321 25.683 9.25342Z" fill="#F1F0F2"/>
<path d="M38.935 9.99063V5.63708H38.0659V9.96333C38.0659 11.3827 37.4276 12.1469 36.2323 12.1469C35.0508 12.1469 34.3989 11.3827 34.3989 9.96333V5.63708H33.5298V9.99063C33.5298 11.874 34.5348 12.9794 36.2323 12.9794C37.9436 12.9794 38.935 11.874 38.935 9.99063Z" fill="#F1F0F2"/>
<path d="M40.8671 12.8429H41.7364V6.45591H42.6734V5.63705H41.7364V3.23511L40.8671 3.60358V5.63705H39.9844V6.45591H40.8671V12.8429Z" fill="#F1F0F2"/>
<path d="M43.7844 12.8428H44.6536V8.51653C44.6536 7.09719 45.292 6.33294 46.5007 6.33294C47.6823 6.33294 48.3206 7.09719 48.3206 8.51653V12.8428H49.1897V8.47558C49.1897 6.59224 48.2527 5.50045 46.6637 5.50045C45.7266 5.50045 45.0338 5.88257 44.64 6.53765C44.6536 6.16916 44.6536 5.80069 44.6536 5.39126V2.33423H43.7844V12.8428Z" fill="#F1F0F2"/>
<path d="M50.1146 12.8428H55.8459L56.1176 10.9048H53.2519L56.0767 5.88257V5.60962H50.5899L50.3183 7.54756H52.9395L50.1146 12.5698V12.8428Z" fill="#F1F0F2"/>
<path d="M60.3208 13.0202C61.7468 13.0202 62.8877 12.4198 63.6889 11.3552L62.3037 10.1952C61.7741 10.8639 61.1221 11.1915 60.3615 11.1915C59.4108 11.1915 58.7182 10.6729 58.5145 9.81309H63.6889C63.9878 6.78334 62.1815 5.43225 60.2122 5.43225C58.1207 5.43225 56.491 6.97441 56.491 9.25355C56.491 11.4644 58.0255 13.0202 60.3208 13.0202ZM58.5417 8.32552C58.7725 7.62949 59.3837 7.17913 60.1985 7.17913C61 7.17913 61.5431 7.58855 61.7061 8.32552H58.5417Z" fill="#F1F0F2"/>
<path d="M67.9485 12.9793C68.7498 12.9793 69.5375 12.7063 70.0263 12.1877L70.0399 12.8428H71.9413V2.29333H69.7955V4.35411C69.7955 4.95459 69.809 5.52779 69.8362 6.08733C69.3338 5.67792 68.6546 5.47319 67.9485 5.47319C66.0064 5.47319 64.3629 7.00172 64.3629 9.22624C64.3629 11.4508 66.0064 12.9793 67.9485 12.9793ZM66.5088 9.22624C66.5088 8.13445 67.2422 7.43843 68.2336 7.43843C69.2115 7.43843 69.9313 8.13445 69.9313 9.22624C69.9313 10.318 69.2115 11.0141 68.2336 11.0141C67.2422 11.0141 66.5088 10.318 66.5088 9.22624Z" fill="#F1F0F2"/>
<path d="M52.1241 18.8493H51.5015C51.4775 18.7162 51.4329 18.5991 51.3677 18.498C51.3025 18.3969 51.2227 18.3111 51.1282 18.2405C51.0338 18.17 50.928 18.1168 50.8109 18.0809C50.6952 18.045 50.5721 18.027 50.4417 18.027C50.2062 18.027 49.9953 18.0862 49.809 18.2046C49.6241 18.323 49.4777 18.4967 49.37 18.7255C49.2635 18.9544 49.2103 19.2338 49.2103 19.5637C49.2103 19.8964 49.2635 20.1771 49.37 20.406C49.4777 20.6348 49.6248 20.8078 49.811 20.9249C49.9973 21.042 50.2069 21.1005 50.4397 21.1005C50.5688 21.1005 50.6912 21.0832 50.8069 21.0486C50.924 21.0127 51.0298 20.9601 51.1243 20.8909C51.2187 20.8217 51.2986 20.7373 51.3638 20.6375C51.4303 20.5364 51.4762 20.4206 51.5015 20.2902L52.1241 20.2922C52.0909 20.4931 52.0263 20.6781 51.9306 20.847C51.8361 21.0147 51.7143 21.1597 51.5653 21.2821C51.4176 21.4032 51.2487 21.497 51.0584 21.5635C50.8681 21.63 50.6606 21.6633 50.4357 21.6633C50.0818 21.6633 49.7665 21.5795 49.4897 21.4118C49.213 21.2429 48.9948 21.0014 48.8351 20.6874C48.6768 20.3734 48.5976 19.9988 48.5976 19.5637C48.5976 19.1273 48.6774 18.7528 48.8371 18.4401C48.9968 18.1261 49.215 17.8853 49.4917 17.7176C49.7685 17.5487 50.0831 17.4642 50.4357 17.4642C50.6526 17.4642 50.8548 17.4954 51.0424 17.558C51.2314 17.6192 51.401 17.7097 51.5514 17.8294C51.7017 17.9478 51.8261 18.0929 51.9246 18.2645C52.023 18.4348 52.0895 18.6297 52.1241 18.8493ZM53.9861 21.6074V17.5201H54.6028V21.0765H56.4549V21.6074H53.9861ZM61.6738 19.5637C61.6738 20.0002 61.5939 20.3754 61.4343 20.6894C61.2746 21.002 61.0557 21.2429 60.7776 21.4118C60.5009 21.5795 60.1862 21.6633 59.8336 21.6633C59.4797 21.6633 59.1637 21.5795 58.8856 21.4118C58.6089 21.2429 58.3907 21.0014 58.231 20.6874C58.0714 20.3734 57.9915 19.9988 57.9915 19.5637C57.9915 19.1273 58.0714 18.7528 58.231 18.4401C58.3907 18.1261 58.6089 17.8853 58.8856 17.7176C59.1637 17.5487 59.4797 17.4642 59.8336 17.4642C60.1862 17.4642 60.5009 17.5487 60.7776 17.7176C61.0557 17.8853 61.2746 18.1261 61.4343 18.4401C61.5939 18.7528 61.6738 19.1273 61.6738 19.5637ZM61.063 19.5637C61.063 19.2311 61.0092 18.951 60.9014 18.7235C60.7949 18.4947 60.6486 18.3217 60.4623 18.2046C60.2774 18.0862 60.0678 18.027 59.8336 18.027C59.5981 18.027 59.3879 18.0862 59.203 18.2046C59.018 18.3217 58.8717 18.4947 58.7639 18.7235C58.6575 18.951 58.6042 19.2311 58.6042 19.5637C58.6042 19.8964 58.6575 20.1771 58.7639 20.406C58.8717 20.6335 59.018 20.8064 59.203 20.9249C59.3879 21.042 59.5981 21.1005 59.8336 21.1005C60.0678 21.1005 60.2774 21.042 60.4623 20.9249C60.6486 20.8064 60.7949 20.6335 60.9014 20.406C61.0092 20.1771 61.063 19.8964 61.063 19.5637ZM66.1951 17.5201H66.8138V20.2084C66.8138 20.4944 66.7466 20.7479 66.6122 20.9688C66.4778 21.1883 66.2889 21.3613 66.0454 21.4877C65.8019 21.6127 65.5165 21.6753 65.1892 21.6753C64.8632 21.6753 64.5785 21.6127 64.335 21.4877C64.0915 21.3613 63.9026 21.1883 63.7682 20.9688C63.6338 20.7479 63.5666 20.4944 63.5666 20.2084V17.5201H64.1833V20.1585C64.1833 20.3434 64.2239 20.5077 64.3051 20.6514C64.3876 20.7951 64.504 20.9082 64.6543 20.9907C64.8047 21.0719 64.983 21.1125 65.1892 21.1125C65.3968 21.1125 65.5757 21.0719 65.7261 20.9907C65.8778 20.9082 65.9935 20.7951 66.0733 20.6514C66.1545 20.5077 66.1951 20.3434 66.1951 20.1585V17.5201ZM70.1576 21.6074H68.8344V17.5201H70.1995C70.6 17.5201 70.944 17.6019 71.2313 17.7655C71.5187 17.9279 71.7389 18.1614 71.8919 18.4661C72.0463 18.7694 72.1235 19.1333 72.1235 19.5578C72.1235 19.9835 72.0456 20.3494 71.89 20.6554C71.7356 20.9615 71.5121 21.197 71.2194 21.3619C70.9267 21.5256 70.5727 21.6074 70.1576 21.6074ZM69.4511 21.0686H70.1237C70.435 21.0686 70.6938 21.01 70.9 20.8929C71.1063 20.7745 71.2606 20.6035 71.3631 20.38C71.4655 20.1552 71.5167 19.8811 71.5167 19.5578C71.5167 19.2371 71.4655 18.965 71.3631 18.7415C71.2619 18.518 71.1109 18.3483 70.91 18.2326C70.7091 18.1168 70.4596 18.0589 70.1616 18.0589H69.4511V21.0686Z" fill="#F1F0F2"/>
</svg>
