<svg width="1600" height="400" viewBox="0 0 1600 400" fill="none" xmlns="http://www.w3.org/2000/svg">
<g clip-path="url(#clip0_2012_517)">
<rect width="1600" height="400" rx="30" fill="#1D1423"/>
<g clip-path="url(#clip1_2012_517)">
<g style="mix-blend-mode:hard-light" filter="url(#filter0_f_2012_517)">
<ellipse cx="582.209" cy="226.453" rx="582.209" ry="226.453" transform="matrix(0.996194 0.0871655 0.0871655 -0.996194 692.003 771.115)" fill="#F0546C" fill-opacity="0.3"/>
</g>
<g style="mix-blend-mode:screen" filter="url(#filter1_f_2012_517)">
<ellipse cx="582.209" cy="226.453" rx="582.209" ry="226.453" transform="matrix(0.626788 -0.77919 -0.77919 -0.626788 1339.98 1247.12)" fill="#FFB471" fill-opacity="0.2"/>
</g>
<mask id="mask0_2012_517" style="mask-type:alpha" maskUnits="userSpaceOnUse" x="191" y="-297" width="1683" height="982">
<rect width="1682.7" height="980.922" transform="matrix(-1 -8.74228e-08 -8.74228e-08 1 1873.82 -296.036)" fill="url(#paint0_radial_2012_517)"/>
</mask>
<g mask="url(#mask0_2012_517)">
<rect x="-0.876394" y="0.876394" width="138.47" height="138.47" transform="matrix(-1 -8.74228e-08 -8.74228e-08 1 1656.78 -14.1562)" stroke="white" stroke-width="1.75279"/>
<rect x="-0.876394" y="0.876394" width="138.47" height="138.47" transform="matrix(-1 -8.74228e-08 -8.74228e-08 1 1518.31 -14.1561)" stroke="white" stroke-width="1.75279"/>
<rect x="-0.876394" y="0.876394" width="138.47" height="138.47" transform="matrix(-1 -8.74228e-08 -8.74228e-08 1 1379.84 -14.1561)" stroke="white" stroke-width="1.75279"/>
<rect x="-0.876394" y="0.876394" width="138.47" height="138.47" transform="matrix(-1 -8.74228e-08 -8.74228e-08 1 1241.37 -14.1561)" stroke="white" stroke-width="1.75279"/>
<rect x="-0.876394" y="0.876394" width="138.47" height="138.47" transform="matrix(-1 -8.74228e-08 -8.74228e-08 1 1102.9 -14.1561)" fill="white" fill-opacity="0.25" stroke="white" stroke-width="1.75279"/>
<rect x="-0.876394" y="0.876394" width="138.47" height="138.47" transform="matrix(-1 -8.74228e-08 -8.74228e-08 1 964.433 -14.1563)" stroke="white" stroke-width="1.75279"/>
<rect x="-0.876394" y="0.876394" width="138.47" height="138.47" transform="matrix(-1 -8.74228e-08 -8.74228e-08 1 825.963 -14.1561)" fill="white" fill-opacity="0.25" stroke="white" stroke-width="1.75279"/>
<rect x="-0.876394" y="0.876394" width="138.47" height="138.47" transform="matrix(-1 -8.74228e-08 -8.74228e-08 1 687.493 -14.1563)" stroke="white" stroke-width="1.75279"/>
<rect x="-0.876394" y="0.876394" width="138.47" height="138.47" transform="matrix(-1 -8.74228e-08 -8.74228e-08 1 549.023 -14.1561)" stroke="white" stroke-width="1.75279"/>
<rect x="-0.876394" y="0.876394" width="138.47" height="138.47" transform="matrix(-1 -8.74228e-08 -8.74228e-08 1 1656.78 124.314)" stroke="white" stroke-width="1.75279"/>
<rect x="-0.876394" y="0.876394" width="138.47" height="138.47" transform="matrix(-1 -8.74228e-08 -8.74228e-08 1 1518.31 124.314)" stroke="white" stroke-width="1.75279"/>
<rect x="-0.876394" y="0.876394" width="138.47" height="138.47" transform="matrix(-1 -8.74228e-08 -8.74228e-08 1 1379.84 124.314)" stroke="white" stroke-width="1.75279"/>
<rect x="-0.876394" y="0.876394" width="138.47" height="138.47" transform="matrix(-1 -8.74228e-08 -8.74228e-08 1 1241.37 124.314)" stroke="white" stroke-width="1.75279"/>
<rect x="-0.876394" y="0.876394" width="138.47" height="138.47" transform="matrix(-1 -8.74228e-08 -8.74228e-08 1 1102.9 124.314)" stroke="white" stroke-width="1.75279"/>
<rect x="-0.876394" y="0.876394" width="138.47" height="138.47" transform="matrix(-1 -8.74228e-08 -8.74228e-08 1 964.433 124.314)" stroke="white" stroke-width="1.75279"/>
<rect x="-0.876394" y="0.876394" width="138.47" height="138.47" transform="matrix(-1 -8.74228e-08 -8.74228e-08 1 825.963 124.314)" stroke="white" stroke-width="1.75279"/>
<rect x="-0.876394" y="0.876394" width="138.47" height="138.47" transform="matrix(-1 -8.74228e-08 -8.74228e-08 1 687.493 124.314)" stroke="white" stroke-width="1.75279"/>
<rect x="-0.876394" y="0.876394" width="138.47" height="138.47" transform="matrix(-1 -8.74228e-08 -8.74228e-08 1 549.023 124.314)" stroke="white" stroke-width="1.75279"/>
<rect x="-0.876394" y="0.876394" width="138.47" height="138.47" transform="matrix(-1 -8.74228e-08 -8.74228e-08 1 1656.78 262.784)" stroke="white" stroke-width="1.75279"/>
<rect x="-0.876394" y="0.876394" width="138.47" height="138.47" transform="matrix(-1 -8.74228e-08 -8.74228e-08 1 1518.31 262.784)" stroke="white" stroke-width="1.75279"/>
<rect x="-0.876394" y="0.876394" width="138.47" height="138.47" transform="matrix(-1 -8.74228e-08 -8.74228e-08 1 1379.84 262.784)" stroke="white" stroke-width="1.75279"/>
<rect x="-0.876394" y="0.876394" width="138.47" height="138.47" transform="matrix(-1 -8.74228e-08 -8.74228e-08 1 1241.37 262.784)" fill="white" fill-opacity="0.25" stroke="white" stroke-width="1.75279"/>
<rect x="-0.876394" y="0.876394" width="138.47" height="138.47" transform="matrix(-1 -8.74228e-08 -8.74228e-08 1 1102.9 262.784)" stroke="white" stroke-width="1.75279"/>
<rect x="-0.876394" y="0.876394" width="138.47" height="138.47" transform="matrix(-1 -8.74228e-08 -8.74228e-08 1 964.433 262.784)" stroke="white" stroke-width="1.75279"/>
<rect x="-0.876394" y="0.876394" width="138.47" height="138.47" transform="matrix(-1 -8.74228e-08 -8.74228e-08 1 825.963 262.784)" stroke="white" stroke-width="1.75279"/>
<rect x="-0.876394" y="0.876394" width="138.47" height="138.47" transform="matrix(-1 -8.74228e-08 -8.74228e-08 1 687.493 262.784)" stroke="white" stroke-width="1.75279"/>
<rect x="-0.876394" y="0.876394" width="138.47" height="138.47" transform="matrix(-1 -8.74228e-08 -8.74228e-08 1 549.023 262.784)" stroke="white" stroke-width="1.75279"/>
</g>
</g>
<g clip-path="url(#clip2_2012_517)">
<g clip-path="url(#clip3_2012_517)">
<g clip-path="url(#clip4_2012_517)">
<path d="M258.931 203.84C258.17 218.105 253.889 232.331 246.6 244.626C234.393 265.224 213.94 281.312 187.943 286.191C174.964 288.52 165.525 288.225 154.924 286.599C147.276 284.896 142.462 278.684 147.597 271.3C153.889 262.249 162.806 256.302 171.708 250.353C197.671 233.003 225.25 218.501 253.084 204.447C256.196 202.878 259.15 199.775 258.931 203.84Z" fill="#A43189"/>
<path d="M277.403 170.556C283.942 165.383 290.258 158.739 294.732 151.62L294.74 151.614L294.748 151.609C299.672 143.769 296.876 136.691 287.854 134.545C277.482 132.077 268.688 133.071 258.073 134.545C255.488 134.904 254.829 135.461 253.945 136.02C252.153 137.151 251.956 140.603 254.535 141.033C259.254 141.328 274.712 140.272 278.42 141.917C288.983 146.607 260.078 162.22 256.279 165.243C254.001 167.053 252.909 166.836 251.627 163.986C241.575 141.637 225.205 125.79 202.329 116.793C187.992 111.156 173.221 109.866 157.962 111.794C149.738 112.833 143.287 115.091 135.732 118.035C133.241 119.005 129.945 120.658 127.653 121.976C122.28 125.057 117.335 128.513 112.835 132.364C108.915 135.717 111.217 141.721 116.354 142.203L210.923 151.082C215.12 151.476 217.193 156.378 214.555 159.664L161.809 227.107C159.891 229.495 162.34 233.434 165.185 232.296C186.643 223.684 207.504 213.233 228.158 202.848C245.382 194.187 262.323 182.484 277.403 170.556Z" fill="#F0546C"/>
<path fill-rule="evenodd" clip-rule="evenodd" d="M179.161 176.321C182.528 172.715 179.562 166.87 174.663 167.456L88.9989 177.716C86.4078 178.026 84.2516 179.894 83.7287 182.45C80.4343 198.554 81.7485 214.771 87.9469 231.004C90.268 237.085 90.4135 237.26 84.1476 238.03C83.3306 238.131 82.512 238.242 81.692 238.353C76.9679 238.993 72.1996 239.64 67.4464 238.29C55.9571 235.018 73.6283 224.134 74.9626 219.484C75.9478 216.049 71.28 214.763 68.3616 216.824C59.0098 223.428 50.1067 231.136 44.5859 241.327C43.4061 243.686 43.552 246.637 43.9959 248.232C47.2648 259.977 72.5737 257.845 80.9119 256.347C91.8378 254.386 99.7268 253.674 110.342 250.43C113.237 249.545 113.291 249.251 117.714 244.694C140.124 223.892 160.633 195.53 179.161 176.321Z" fill="#FFB471"/>
</g>
</g>
</g>
<g clip-path="url(#clip5_2012_517)">
<g clip-path="url(#clip6_2012_517)">
<g clip-path="url(#clip7_2012_517)">
<path d="M370.599 111.88H378.314L309.555 284.692H301.379L370.599 111.88Z" fill="#F1F0F2" fill-opacity="0.3"/>
</g>
</g>
</g>
<path d="M762.605 245.689C740.781 245.689 722.314 228.48 722.314 203.435C722.314 178.39 740.781 161.182 762.605 161.182C770.541 161.182 778.169 163.487 783.818 168.096C783.51 161.796 783.359 155.343 783.359 148.583V125.382H807.47V244.152H786.105L785.953 236.777C780.46 242.616 771.607 245.689 762.605 245.689ZM746.429 203.435C746.429 215.727 754.669 223.563 765.81 223.563C776.796 223.563 784.884 215.727 784.884 203.435C784.884 191.143 776.796 183.307 765.81 183.307C754.669 183.307 746.429 191.143 746.429 203.435Z" fill="#F1F0F2"/>
<path d="M865.54 245.689C856.535 245.689 847.685 242.616 842.188 236.777L842.036 244.152H820.672V125.382H844.783V147.2C844.783 153.96 844.631 161.335 844.327 168.096C849.82 163.487 857.605 161.182 865.54 161.182C887.361 161.182 905.827 178.39 905.827 203.435C905.827 228.48 887.361 245.689 865.54 245.689ZM843.258 203.435C843.258 215.727 851.346 223.563 862.335 223.563C873.476 223.563 881.716 215.727 881.716 203.435C881.716 191.143 873.476 183.307 862.335 183.307C851.346 183.307 843.258 191.143 843.258 203.435Z" fill="#F1F0F2"/>
<path d="M401.586 245.169C397.657 245.169 391.916 244.867 386.023 244.262V232.022C392.218 232.778 397.506 233.08 400.981 233.08C411.256 233.08 416.091 229.756 416.091 222.956C416.091 217.969 413.22 214.342 405.817 209.507L400.528 206.031C390.102 199.231 385.418 192.733 385.418 184.12C385.418 171.427 395.24 163.569 411.558 163.569C415.034 163.569 419.415 163.871 423.797 164.476V175.658C419.264 175.204 415.789 175.053 413.523 175.053C404.003 175.053 399.017 178.227 399.017 183.969C399.017 188.2 402.039 191.525 409.443 196.36L414.731 199.836C425.611 206.938 430.294 213.587 430.294 222.805C430.294 236.858 419.718 245.169 401.586 245.169Z" fill="#F1F0F2"/>
<path d="M444.316 274.183V164.476H456.706L456.857 176.716C462.448 168.103 473.327 162.965 485.264 162.965C507.022 162.965 524.851 180.041 524.851 204.369C524.851 228.699 507.022 245.774 485.264 245.774C474.082 245.774 463.657 241.09 457.764 233.383C458.066 239.276 458.217 245.321 458.217 251.063V274.183H444.316ZM457.008 204.369C457.008 222.654 468.945 232.778 483.45 232.778C499.316 232.778 510.799 220.992 510.799 204.369C510.799 187.596 499.316 175.81 483.45 175.81C468.945 175.81 457.008 186.085 457.008 204.369Z" fill="#F1F0F2"/>
<path d="M539.715 244.262V164.476H553.616V244.262H539.715ZM539.715 150.12V137.859L553.616 132.018V150.12H539.715Z" fill="#F1F0F2"/>
<path d="M609.408 245.32C585.535 245.32 568.461 228.547 568.461 204.52C568.461 180.342 585.535 163.569 609.408 163.569C613.186 163.569 617.567 163.871 622.252 164.627V177.471C617.567 176.716 613.639 176.414 610.919 176.414C593.543 176.414 582.362 188.049 582.362 204.52C582.362 220.84 593.543 232.325 610.919 232.325C613.639 232.325 617.567 232.022 622.252 231.418V244.262C617.567 245.018 613.186 245.32 609.408 245.32Z" fill="#F1F0F2"/>
<path d="M673.301 245.774C648.823 245.774 632.353 228.094 632.353 204.672C632.353 180.796 649.276 162.965 672.394 162.965C692.641 162.965 710.773 176.716 710.32 206.183H645.348C646.103 221.899 656.982 233.534 673.452 233.534C685.086 233.534 694.605 227.792 700.498 218.121L710.168 225.223C703.218 236.103 691.13 245.774 673.301 245.774ZM646.103 195.756H696.721C694.152 181.552 684.179 174.752 672.243 174.752C658.795 174.752 648.974 183.667 646.103 195.756Z" fill="#F1F0F2"/>
</g>
<defs>
<filter id="filter0_f_2012_517" x="329.229" y="-17.1759" width="1925.01" height="1226.9" filterUnits="userSpaceOnUse" color-interpolation-filters="sRGB">
<feFlood flood-opacity="0" result="BackgroundImageFix"/>
<feBlend mode="normal" in="SourceGraphic" in2="BackgroundImageFix" result="shape"/>
<feGaussianBlur stdDeviation="191.085" result="effect1_foregroundBlur_2012_517"/>
</filter>
<filter id="filter1_f_2012_517" x="740.847" y="-206.109" width="1575.21" height="1715.27" filterUnits="userSpaceOnUse" color-interpolation-filters="sRGB">
<feFlood flood-opacity="0" result="BackgroundImageFix"/>
<feBlend mode="normal" in="SourceGraphic" in2="BackgroundImageFix" result="shape"/>
<feGaussianBlur stdDeviation="191.085" result="effect1_foregroundBlur_2012_517"/>
</filter>
<radialGradient id="paint0_radial_2012_517" cx="0" cy="0" r="1" gradientUnits="userSpaceOnUse" gradientTransform="translate(484.435 490.937) scale(851.119 489.984)">
<stop stop-color="#D9D9D9" stop-opacity="0.2"/>
<stop offset="1" stop-color="#D9D9D9" stop-opacity="0"/>
</radialGradient>
<clipPath id="clip0_2012_517">
<rect width="1600" height="400" rx="30" fill="white"/>
</clipPath>
<clipPath id="clip1_2012_517">
<rect width="1874" height="1054.12" fill="white" transform="translate(-72 -327.062)"/>
</clipPath>
<clipPath id="clip2_2012_517">
<rect width="254.824" height="178.089" fill="white" transform="translate(43 110.956)"/>
</clipPath>
<clipPath id="clip3_2012_517">
<rect width="254.824" height="178.089" fill="white" transform="translate(43 110.956)"/>
</clipPath>
<clipPath id="clip4_2012_517">
<rect width="254.784" height="178.089" fill="white" transform="translate(43.0214 110.956)"/>
</clipPath>
<clipPath id="clip5_2012_517">
<rect width="77.5892" height="176.346" fill="white" transform="translate(301.382 111.827)"/>
</clipPath>
<clipPath id="clip6_2012_517">
<rect width="77.5892" height="176.346" fill="white" transform="translate(301.382 111.827)"/>
</clipPath>
<clipPath id="clip7_2012_517">
<rect width="77.5892" height="176.339" fill="white" transform="translate(301.382 111.83)"/>
</clipPath>
</defs>
</svg>
