<svg width="684" height="151" viewBox="0 0 684 151" fill="none" xmlns="http://www.w3.org/2000/svg">
<path d="M181.633 78.5142C180.994 90.4708 177.406 102.395 171.297 112.701C161.065 129.966 143.921 143.451 122.131 147.54C111.253 149.493 103.34 149.245 94.4547 147.882C88.0447 146.455 84.0092 141.248 88.3132 135.059C93.587 127.472 101.062 122.487 108.523 117.501C130.285 102.958 153.402 90.8026 176.732 79.0234C179.34 77.7084 181.816 75.1068 181.633 78.5142Z" fill="#F1F0F2"/>
<path d="M197.118 50.6138C202.598 46.2782 207.893 40.7085 211.643 34.7414L211.649 34.737L211.656 34.7324C215.783 28.1614 213.44 22.2285 205.878 20.43C197.184 18.361 189.813 19.1942 180.916 20.43C178.748 20.731 178.196 21.1977 177.455 21.6658C175.954 22.6136 175.788 25.5074 177.95 25.8676C181.905 26.1148 194.862 25.2297 197.97 26.609C206.824 30.5398 182.596 43.627 179.412 46.1604C177.502 47.6778 176.587 47.4956 175.512 45.1065C167.087 26.3741 153.366 13.0916 134.191 5.54987C122.174 0.825183 109.793 -0.256444 97.0027 1.36005C90.1101 2.23082 84.7029 4.12389 78.3703 6.59085C76.282 7.40437 73.5194 8.79016 71.5982 9.89421C67.0948 12.4771 62.9502 15.374 59.1778 18.6014C55.8922 21.4124 57.822 26.4446 62.1273 26.8488L141.394 34.2907C144.913 34.6209 146.65 38.7296 144.439 41.484L100.228 98.0143C98.6199 100.016 100.673 103.318 103.057 102.364C121.043 95.1453 138.529 86.3854 155.841 77.6805C170.278 70.4211 184.477 60.6116 197.118 50.6138Z" fill="#F1F0F2"/>
<path fill-rule="evenodd" clip-rule="evenodd" d="M114.767 55.4484C117.589 52.4252 115.104 47.5262 110.997 48.0179L39.1946 56.6173C37.0227 56.8774 35.2154 58.4427 34.7771 60.5856C32.0158 74.0833 33.1173 87.6767 38.3128 101.283C40.2583 106.38 40.3803 106.527 35.1283 107.172C34.4435 107.257 33.7572 107.35 33.0699 107.443C29.1103 107.98 25.1135 108.521 21.1294 107.39C11.4991 104.647 26.311 95.5246 27.4294 91.6266C28.2552 88.7482 24.3427 87.67 21.8965 89.3976C14.0579 94.9332 6.59541 101.393 1.9679 109.936C0.979029 111.913 1.10134 114.386 1.47339 115.723C4.21339 125.568 25.4271 123.781 32.4161 122.526C41.5741 120.881 48.1866 120.284 57.0843 117.566C59.511 116.824 59.5559 116.578 63.2633 112.758C82.0475 95.3214 99.2374 71.5488 114.767 55.4484Z" fill="#F1F0F2"/>
<path d="M269.969 123.727C281.43 123.727 291.476 118.292 296.111 109.752V122.433H303.709V54.107H296.111V66.9183C291.476 58.3774 281.43 52.813 269.969 52.813C251.296 52.813 236.358 67.5652 236.358 88.3997C236.358 108.975 251.296 123.727 269.969 123.727ZM244.728 88.3997C244.728 72.3533 255.803 60.7068 270.87 60.7068C284.65 60.7068 296.24 70.4123 296.24 88.3997C296.24 106.258 284.65 115.834 270.87 115.834C255.803 115.834 244.728 104.317 244.728 88.3997Z" fill="#F1F0F2"/>
<path d="M370.389 95.392V54.1115H362.148V95.1331C362.148 108.591 356.096 115.838 344.762 115.838C333.558 115.838 327.377 108.591 327.377 95.1331V54.1115H319.136V95.392C319.136 113.25 328.666 123.732 344.762 123.732C360.988 123.732 370.389 113.25 370.389 95.392Z" fill="#F1F0F2"/>
<path d="M388.706 122.44H396.949V61.8778H405.833V54.1133H396.949V31.338L388.706 34.8318V54.1133H380.336V61.8778H388.706V122.44Z" fill="#F1F0F2"/>
<path d="M416.365 122.434H424.606V81.4128C424.606 67.9545 430.66 60.7079 442.121 60.7079C453.325 60.7079 459.377 67.9545 459.377 81.4128V122.434H467.618V81.0246C467.618 63.1666 458.733 52.8142 443.667 52.8142C434.78 52.8142 428.212 56.4375 424.477 62.6489C424.606 59.1549 424.606 55.6611 424.606 51.7788V22.7919H416.365V122.434Z" fill="#F1F0F2"/>
<path d="M476.39 122.439H530.734L533.311 104.063H506.138L532.923 56.442V53.8538H480.897L478.322 72.2295H503.175L476.39 119.851V122.439Z" fill="#F1F0F2"/>
<path d="M573.17 124.12C586.691 124.12 597.509 118.427 605.106 108.333L591.971 97.3334C586.95 103.674 580.767 106.78 573.556 106.78C564.541 106.78 557.974 101.863 556.042 93.7101H605.106C607.94 64.9818 590.813 52.1707 572.14 52.1707C552.308 52.1707 536.855 66.7936 536.855 88.4045C536.855 109.368 551.406 124.12 573.17 124.12ZM556.3 79.6049C558.489 73.005 564.284 68.7348 572.01 68.7348C579.609 68.7348 584.759 72.6168 586.305 79.6049H556.3Z" fill="#F1F0F2"/>
<path d="M645.494 123.732C653.092 123.732 660.561 121.144 665.196 116.227L665.325 122.438H683.355V22.4072H663.008V41.9476C663.008 47.6414 663.136 53.0764 663.394 58.382C658.63 54.5 652.19 52.5588 645.494 52.5588C627.079 52.5588 611.496 67.0523 611.496 88.1454C611.496 109.239 627.079 123.732 645.494 123.732ZM631.843 88.1454C631.843 77.793 638.797 71.1933 648.198 71.1933C657.47 71.1933 664.296 77.793 664.296 88.1454C664.296 98.4978 657.47 105.098 648.198 105.098C638.797 105.098 631.843 98.4978 631.843 88.1454Z" fill="#F1F0F2"/>
</svg>
