<svg width="337" height="263" viewBox="0 0 337 263" fill="none" xmlns="http://www.w3.org/2000/svg">
<path d="M249.14 85.1489C248.447 98.125 244.554 111.066 237.923 122.25C226.819 140.988 208.214 155.622 184.565 160.06C172.759 162.179 164.172 161.911 154.529 160.431C147.573 158.882 143.193 153.231 147.864 146.515C153.587 138.281 161.7 132.871 169.797 127.46C193.415 111.677 218.502 98.485 243.822 85.7015C246.652 84.2743 249.339 81.4509 249.14 85.1489Z" fill="#F1F0F2"/>
<path d="M265.945 54.8696C271.893 50.1643 277.639 44.1197 281.709 37.6439L281.716 37.639L281.723 37.6341C286.202 30.5027 283.659 24.064 275.452 22.1122C266.017 19.8668 258.018 20.771 248.362 22.1122C246.01 22.4388 245.41 22.9454 244.606 23.4534C242.977 24.482 242.797 27.6225 245.143 28.0134C249.435 28.2817 263.498 27.3212 266.87 28.8181C276.479 33.084 250.185 47.287 246.73 50.0364C244.657 51.6832 243.664 51.4855 242.498 48.8927C233.354 28.5631 218.463 14.1481 197.653 5.96334C184.612 0.835806 171.175 -0.338044 157.294 1.41628C149.814 2.36129 143.946 4.41577 137.073 7.09307C134.807 7.97596 131.809 9.4799 129.724 10.6781C124.836 13.4812 120.338 16.6251 116.244 20.1276C112.678 23.1783 114.773 28.6396 119.445 29.0783L205.471 37.1547C209.289 37.5131 211.175 41.9721 208.775 44.9613L160.794 106.312C159.049 108.484 161.278 112.067 163.865 111.032C183.384 103.198 202.361 93.6911 221.149 84.244C236.817 76.3656 252.227 65.7198 265.945 54.8696Z" fill="#F1F0F2"/>
<path fill-rule="evenodd" clip-rule="evenodd" d="M176.574 60.1164C179.636 56.8354 176.939 51.5187 172.482 52.0523L94.5571 61.385C92.2001 61.6672 90.2387 63.366 89.763 65.6916C86.7662 80.3401 87.9617 95.0925 93.6001 109.859C95.7116 115.39 95.8439 115.55 90.1441 116.251C89.4009 116.342 88.6562 116.443 87.9103 116.544C83.613 117.126 79.2754 117.714 74.9517 116.487C64.5003 113.51 80.5751 103.61 81.7888 99.3793C82.685 96.2554 78.4389 95.0853 75.7841 96.9602C67.2772 102.968 59.1784 109.979 54.1564 119.249C53.0832 121.395 53.2159 124.08 53.6197 125.531C56.5933 136.214 79.6157 134.275 87.2006 132.913C97.1395 131.128 104.316 130.48 113.972 127.53C116.606 126.725 116.654 126.458 120.678 122.312C141.064 103.389 159.719 77.5896 176.574 60.1164Z" fill="#F1F0F2"/>
<path d="M25.8764 262.503C34.4915 262.503 42.0428 258.418 45.527 251.998V261.531H51.2382V210.17H45.527V219.8C42.0428 213.38 34.4915 209.198 25.8764 209.198C11.8402 209.198 0.611206 220.287 0.611206 235.948C0.611206 251.414 11.8402 262.503 25.8764 262.503ZM6.90272 235.948C6.90272 223.886 15.2277 215.131 26.5534 215.131C36.9119 215.131 45.6238 222.427 45.6238 235.948C45.6238 249.372 36.9119 256.57 26.5534 256.57C15.2277 256.57 6.90272 247.912 6.90272 235.948Z" fill="#F1F0F2"/>
<path d="M101.361 241.204V210.174H95.1665V241.009C95.1665 251.126 90.6171 256.573 82.0974 256.573C73.6757 256.573 69.0296 251.126 69.0296 241.009V210.174H62.8348V241.204C62.8348 254.628 69.998 262.507 82.0974 262.507C94.2948 262.507 101.361 254.628 101.361 241.204Z" fill="#F1F0F2"/>
<path d="M115.13 261.535H121.326V216.012H128.004V210.175H121.326V193.055L115.13 195.681V210.175H108.838V216.012H115.13V261.535Z" fill="#F1F0F2"/>
<path d="M135.921 261.531H142.115V230.696C142.115 220.579 146.666 215.132 155.281 215.132C163.703 215.132 168.252 220.579 168.252 230.696V261.531H174.447V230.404C174.447 216.98 167.769 209.199 156.443 209.199C149.763 209.199 144.826 211.922 142.019 216.591C142.115 213.965 142.115 211.339 142.115 208.42V186.631H135.921V261.531Z" fill="#F1F0F2"/>
<path d="M181.041 261.535H221.891L223.828 247.722H203.402L223.536 211.926V209.98H184.429L182.493 223.793H201.175L181.041 259.589V261.535Z" fill="#F1F0F2"/>
<path d="M253.789 262.799C263.953 262.799 272.085 258.519 277.796 250.932L267.922 242.663C264.148 247.43 259.501 249.764 254.08 249.764C247.303 249.764 242.367 246.068 240.915 239.94H277.796C279.926 218.345 267.052 208.715 253.016 208.715C238.108 208.715 226.492 219.707 226.492 235.951C226.492 251.71 237.43 262.799 253.789 262.799ZM241.108 229.337C242.754 224.376 247.11 221.166 252.918 221.166C258.63 221.166 262.501 224.084 263.663 229.337H241.108Z" fill="#F1F0F2"/>
<path d="M308.155 262.507C313.866 262.507 319.48 260.561 322.965 256.865L323.061 261.534H336.614V186.342H321.319V201.03C321.319 205.31 321.416 209.396 321.609 213.384C318.028 210.466 313.188 209.007 308.155 209.007C294.312 209.007 282.598 219.901 282.598 235.757C282.598 251.612 294.312 262.507 308.155 262.507ZM297.893 235.757C297.893 227.975 303.121 223.014 310.187 223.014C317.157 223.014 322.288 227.975 322.288 235.757C322.288 243.539 317.157 248.5 310.187 248.5C303.121 248.5 297.893 243.539 297.893 235.757Z" fill="#F1F0F2"/>
</svg>
