<svg width="684" height="150" viewBox="0 0 684 150" fill="none" xmlns="http://www.w3.org/2000/svg">
<path d="M181.633 77.8612C180.994 89.8178 177.406 101.742 171.297 112.048C161.065 129.313 143.921 142.798 122.131 146.887C111.253 148.84 103.34 148.592 94.4547 147.229C88.0447 145.802 84.0092 140.595 88.3132 134.406C93.587 126.819 101.062 121.834 108.523 116.848C130.285 102.305 153.402 90.1496 176.732 78.3704C179.34 77.0554 181.816 74.4538 181.633 77.8612Z" fill="#2B2231"/>
<path d="M197.118 49.9608C202.598 45.6252 207.893 40.0555 211.643 34.0884L211.649 34.0839L211.656 34.0794C215.783 27.5083 213.44 21.5754 205.878 19.777C197.184 17.708 189.813 18.5412 180.916 19.777C178.748 20.0779 178.196 20.5447 177.455 21.0128C175.954 21.9606 175.788 24.8543 177.95 25.2145C181.905 25.4618 194.862 24.5767 197.97 25.956C206.824 29.8868 182.596 42.9739 179.412 45.5073C177.502 47.0248 176.587 46.8426 175.512 44.4535C167.087 25.7211 153.366 12.4385 134.191 4.89684C122.174 0.172153 109.793 -0.909474 97.0027 0.707023C90.1101 1.57779 84.7029 3.47086 78.3703 5.93782C76.282 6.75134 73.5194 8.13713 71.5982 9.24118C67.0948 11.824 62.9502 14.721 59.1778 17.9483C55.8922 20.7593 57.822 25.7916 62.1273 26.1958L141.394 33.6376C144.913 33.9679 146.65 38.0766 144.439 40.8309L100.228 97.3612C98.6199 99.3633 100.673 102.665 103.057 101.711C121.043 94.4922 138.529 85.7323 155.841 77.0275C170.278 69.768 184.477 59.9585 197.118 49.9608Z" fill="#2B2231"/>
<path fill-rule="evenodd" clip-rule="evenodd" d="M114.767 54.7954C117.589 51.7721 115.104 46.8732 110.997 47.3649L39.1946 55.9643C37.0227 56.2244 35.2154 57.7897 34.7771 59.9325C32.0158 73.4303 33.1173 87.0237 38.3128 100.63C40.2583 105.727 40.3803 105.874 35.1283 106.519C34.4435 106.604 33.7572 106.696 33.0699 106.79C29.1103 107.326 25.1135 107.868 21.1294 106.737C11.4991 103.994 26.311 94.8716 27.4294 90.9736C28.2552 88.0952 24.3427 87.017 21.8965 88.7445C14.0579 94.2802 6.59541 100.74 1.9679 109.282C0.979029 111.26 1.10134 113.733 1.47339 115.07C4.21339 124.915 25.4271 123.128 32.4161 121.873C41.5741 120.228 48.1866 119.631 57.0843 116.913C59.511 116.171 59.5559 115.925 63.2633 112.105C82.0475 94.6684 99.2374 70.8958 114.767 54.7954Z" fill="#2B2231"/>
<path d="M269.969 123.074C281.43 123.074 291.476 117.639 296.111 109.099V121.78H303.709V53.4539H296.111V66.2652C291.476 57.7244 281.43 52.16 269.969 52.16C251.296 52.16 236.358 66.9122 236.358 87.7467C236.358 108.322 251.296 123.074 269.969 123.074ZM244.728 87.7467C244.728 71.7003 255.803 60.0538 270.87 60.0538C284.65 60.0538 296.24 69.7592 296.24 87.7467C296.24 105.605 284.65 115.181 270.87 115.181C255.803 115.181 244.728 103.664 244.728 87.7467Z" fill="#2B2231"/>
<path d="M370.389 94.739V53.4584H362.148V94.4801C362.148 107.938 356.096 115.185 344.762 115.185C333.558 115.185 327.377 107.938 327.377 94.4801V53.4584H319.136V94.739C319.136 112.597 328.666 123.079 344.762 123.079C360.988 123.079 370.389 112.597 370.389 94.739Z" fill="#2B2231"/>
<path d="M388.706 121.787H396.949V61.2247H405.833V53.4603H396.949V30.6849L388.706 34.1788V53.4603H380.336V61.2247H388.706V121.787Z" fill="#2B2231"/>
<path d="M416.365 121.781H424.606V80.7598C424.606 67.3015 430.66 60.0549 442.121 60.0549C453.325 60.0549 459.377 67.3015 459.377 80.7598V121.781H467.618V80.3716C467.618 62.5136 458.733 52.1612 443.667 52.1612C434.78 52.1612 428.212 55.7845 424.477 61.9959C424.606 58.5019 424.606 55.008 424.606 51.1258V22.1389H416.365V121.781Z" fill="#2B2231"/>
<path d="M476.39 121.786H530.734L533.311 103.41H506.138L532.923 55.789V53.2008H480.897L478.322 71.5764H503.175L476.39 119.198V121.786Z" fill="#2B2231"/>
<path d="M573.17 123.467C586.691 123.467 597.509 117.774 605.106 107.68L591.971 96.6804C586.95 103.021 580.767 106.127 573.556 106.127C564.541 106.127 557.974 101.21 556.042 93.057H605.106C607.94 64.3288 590.813 51.5177 572.14 51.5177C552.308 51.5177 536.855 66.1406 536.855 87.7515C536.855 108.715 551.406 123.467 573.17 123.467ZM556.3 78.9519C558.489 72.352 564.284 68.0818 572.01 68.0818C579.609 68.0818 584.759 71.9638 586.305 78.9519H556.3Z" fill="#2B2231"/>
<path d="M645.494 123.079C653.092 123.079 660.561 120.491 665.196 115.573L665.325 121.785H683.355V21.7542H663.008V41.2946C663.008 46.9884 663.136 52.4234 663.394 57.729C658.63 53.8469 652.19 51.9057 645.494 51.9057C627.079 51.9057 611.496 66.3993 611.496 87.4924C611.496 108.586 627.079 123.079 645.494 123.079ZM631.843 87.4924C631.843 77.1399 638.797 70.5403 648.198 70.5403C657.47 70.5403 664.296 77.1399 664.296 87.4924C664.296 97.8448 657.47 104.445 648.198 104.445C638.797 104.445 631.843 97.8448 631.843 87.4924Z" fill="#2B2231"/>
</svg>
