<svg width="684" height="150" viewBox="0 0 684 150" fill="none" xmlns="http://www.w3.org/2000/svg">
<path d="M181.633 77.8611C180.994 89.8178 177.406 101.742 171.297 112.048C161.065 129.313 143.921 142.798 122.131 146.887C111.253 148.839 103.34 148.592 94.4547 147.229C88.0447 145.802 84.0092 140.595 88.3132 134.406C93.587 126.819 101.062 121.834 108.523 116.848C130.285 102.305 153.402 90.1495 176.732 78.3703C179.34 77.0553 181.816 74.4537 181.633 77.8611Z" fill="#A43189"/>
<path d="M197.118 49.9607C202.598 45.6251 207.893 40.0554 211.643 34.0883L211.649 34.0838L211.656 34.0793C215.783 27.5082 213.44 21.5753 205.878 19.7769C197.184 17.7079 189.813 18.5411 180.916 19.7769C178.748 20.0778 178.196 20.5446 177.455 21.0127C175.954 21.9605 175.788 24.8542 177.95 25.2144C181.905 25.4617 194.862 24.5766 197.97 25.9559C206.824 29.8867 182.596 42.9738 179.412 45.5072C177.502 47.0247 176.587 46.8425 175.512 44.4534C167.087 25.721 153.366 12.4384 134.191 4.89674C122.174 0.172046 109.793 -0.909581 97.0027 0.706916C90.1101 1.57768 84.7029 3.47075 78.3703 5.93771C76.282 6.75124 73.5194 8.13702 71.5982 9.24107C67.0948 11.8239 62.9502 14.7209 59.1778 17.9482C55.8922 20.7592 57.822 25.7915 62.1273 26.1957L141.394 33.6375C144.913 33.9678 146.65 38.0765 144.439 40.8308L100.228 97.3611C98.6199 99.3632 100.673 102.665 103.057 101.71C121.043 94.4921 138.529 85.7322 155.841 77.0274C170.278 69.7679 184.477 59.9584 197.118 49.9607Z" fill="#F0546C"/>
<path fill-rule="evenodd" clip-rule="evenodd" d="M114.767 54.7953C117.589 51.7721 115.104 46.8731 110.997 47.3648L39.1946 55.9642C37.0227 56.2243 35.2154 57.7896 34.7771 59.9325C32.0158 73.4302 33.1173 87.0236 38.3128 100.63C40.2583 105.727 40.3803 105.874 35.1283 106.519C34.4435 106.603 33.7572 106.696 33.0699 106.79C29.1103 107.326 25.1135 107.868 21.1294 106.737C11.4991 103.994 26.311 94.8715 27.4294 90.9735C28.2552 88.0951 24.3427 87.0169 21.8965 88.7445C14.0579 94.2801 6.59541 100.74 1.9679 109.282C0.979029 111.26 1.10134 113.733 1.47339 115.07C4.21339 124.915 25.4271 123.128 32.4161 121.873C41.5741 120.228 48.1866 119.631 57.0843 116.913C59.511 116.171 59.5559 115.924 63.2633 112.104C82.0475 94.6683 99.2374 70.8957 114.767 54.7953Z" fill="#FFB471"/>
<path d="M269.969 123.074C281.43 123.074 291.476 117.639 296.111 109.099V121.78H303.709V53.4538H296.111V66.2651C291.476 57.7243 281.43 52.1599 269.969 52.1599C251.296 52.1599 236.358 66.9121 236.358 87.7465C236.358 108.322 251.296 123.074 269.969 123.074ZM244.728 87.7465C244.728 71.7002 255.803 60.0537 270.87 60.0537C284.65 60.0537 296.24 69.7591 296.24 87.7465C296.24 105.605 284.65 115.181 270.87 115.181C255.803 115.181 244.728 103.663 244.728 87.7465Z" fill="#2B2231"/>
<path d="M370.389 94.739V53.4584H362.148V94.4801C362.148 107.938 356.096 115.185 344.762 115.185C333.558 115.185 327.377 107.938 327.377 94.4801V53.4584H319.136V94.739C319.136 112.597 328.666 123.079 344.762 123.079C360.988 123.079 370.389 112.597 370.389 94.739Z" fill="#2B2231"/>
<path d="M388.706 121.787H396.949V61.2246H405.833V53.4602H396.949V30.6848L388.706 34.1787V53.4602H380.336V61.2246H388.706V121.787Z" fill="#2B2231"/>
<path d="M416.365 121.781H424.606V80.7597C424.606 67.3014 430.66 60.0548 442.121 60.0548C453.325 60.0548 459.377 67.3014 459.377 80.7597V121.781H467.618V80.3715C467.618 62.5135 458.733 52.1611 443.667 52.1611C434.78 52.1611 428.212 55.7844 424.477 61.9959C424.606 58.5018 424.606 55.008 424.606 51.1258V22.1388H416.365V121.781Z" fill="#2B2231"/>
<path d="M476.39 121.786H530.734L533.311 103.41H506.138L532.923 55.7888V53.2007H480.897L478.322 71.5763H503.175L476.39 119.198V121.786Z" fill="#2B2231"/>
<path d="M573.17 123.467C586.691 123.467 597.509 117.773 605.106 107.68L591.971 96.6802C586.95 103.021 580.767 106.127 573.556 106.127C564.541 106.127 557.974 101.209 556.042 93.0569H605.106C607.94 64.3287 590.813 51.5176 572.14 51.5176C552.308 51.5176 536.855 66.1404 536.855 87.7513C536.855 108.715 551.406 123.467 573.17 123.467ZM556.3 78.9517C558.489 72.3519 564.284 68.0816 572.01 68.0816C579.609 68.0816 584.759 71.9637 586.305 78.9517H556.3Z" fill="#2B2231"/>
<path d="M645.494 123.079C653.092 123.079 660.561 120.491 665.196 115.573L665.325 121.785H683.355V21.754H663.008V41.2944C663.008 46.9882 663.136 52.4233 663.394 57.7289C658.63 53.8468 652.19 51.9056 645.494 51.9056C627.079 51.9056 611.496 66.3992 611.496 87.4923C611.496 108.585 627.079 123.079 645.494 123.079ZM631.843 87.4923C631.843 77.1398 638.797 70.5402 648.198 70.5402C657.47 70.5402 664.296 77.1398 664.296 87.4923C664.296 97.8447 657.47 104.445 648.198 104.445C638.797 104.445 631.843 97.8447 631.843 87.4923Z" fill="#2B2231"/>
</svg>
