<svg width="683" height="150" viewBox="0 0 683 150" fill="none" xmlns="http://www.w3.org/2000/svg">
<path d="M181 77.8613C180.362 89.8179 176.774 101.742 170.665 112.048C160.432 129.313 143.289 142.798 121.498 146.887C110.62 148.84 102.708 148.592 93.8222 147.229C87.4122 145.802 83.3768 140.595 87.6807 134.406C92.9545 126.819 100.429 121.834 107.89 116.848C129.653 102.305 152.769 90.1497 176.1 78.3704C178.708 77.0554 181.183 74.4538 181 77.8613Z" fill="#2B2231"/>
<path d="M196.485 49.9608C201.966 45.6253 207.26 40.0556 211.01 34.0885L211.017 34.084L211.023 34.0794C215.151 27.5084 212.807 21.5755 205.245 19.7771C196.552 17.7081 189.181 18.5413 180.283 19.7771C178.116 20.078 177.564 20.5448 176.823 21.0129C175.321 21.9607 175.156 24.8544 177.317 25.2146C181.272 25.4618 194.23 24.5768 197.337 25.9561C206.191 29.8868 181.963 42.974 178.78 45.5074C176.869 47.0249 175.954 46.8427 174.88 44.4536C166.454 25.7212 152.733 12.4386 133.559 4.89692C121.542 0.172229 109.161 -0.909398 96.3703 0.7071C89.4777 1.57786 84.0704 3.47093 77.7379 5.93789C75.6496 6.75142 72.887 8.1372 70.9657 9.24125C66.4624 11.8241 62.3177 14.7211 58.5454 17.9484C55.2597 20.7594 57.1896 25.7917 61.4949 26.1959L140.762 33.6377C144.28 33.968 146.018 38.0767 143.806 40.831L99.5954 97.3613C97.9874 99.3634 100.041 102.665 102.425 101.711C120.411 94.4923 137.896 85.7324 155.209 77.0275C169.646 69.7681 183.845 59.9586 196.485 49.9608Z" fill="#2B2231"/>
<path fill-rule="evenodd" clip-rule="evenodd" d="M114.135 54.7954C116.957 51.7722 114.472 46.8732 110.365 47.3649L38.5621 55.9643C36.3902 56.2244 34.583 57.7897 34.1446 59.9326C31.3833 73.4303 32.4849 87.0237 37.6803 100.63C39.6259 105.727 39.7478 105.874 34.4958 106.519C33.811 106.604 33.1248 106.697 32.4375 106.79C28.4778 107.327 24.481 107.868 20.497 106.737C10.8667 103.994 25.6786 94.8716 26.7969 90.9737C27.6227 88.0952 23.7102 87.0171 21.264 88.7446C13.4255 94.2802 5.96294 100.74 1.33543 109.283C0.34656 111.26 0.468873 113.733 0.84092 115.07C3.58092 124.915 24.7946 123.128 31.7836 121.873C40.9416 120.228 47.5541 119.631 56.4518 116.913C58.8785 116.171 58.9234 115.925 62.6308 112.105C81.415 94.6684 98.605 70.8958 114.135 54.7954Z" fill="#2B2231"/>
<path d="M269.337 123.074C280.798 123.074 290.844 117.639 295.479 109.099V121.78H303.077V53.4539H295.479V66.2652C290.844 57.7244 280.798 52.16 269.337 52.16C250.664 52.16 235.726 66.9122 235.726 87.7467C235.726 108.322 250.664 123.074 269.337 123.074ZM244.096 87.7467C244.096 71.7003 255.171 60.0538 270.238 60.0538C284.018 60.0538 295.607 69.7592 295.607 87.7467C295.607 105.605 284.018 115.181 270.238 115.181C255.171 115.181 244.096 103.664 244.096 87.7467Z" fill="#2B2231"/>
<path d="M369.757 94.739V53.4584H361.516V94.4801C361.516 107.938 355.463 115.185 344.13 115.185C332.926 115.185 326.745 107.938 326.745 94.4801V53.4584H318.504V94.739C318.504 112.597 328.033 123.079 344.13 123.079C360.356 123.079 369.757 112.597 369.757 94.739Z" fill="#2B2231"/>
<path d="M388.073 121.787H396.316V61.2247H405.201V53.4603H396.316V30.6849L388.073 34.1788V53.4603H379.704V61.2247H388.073V121.787Z" fill="#2B2231"/>
<path d="M415.732 121.782H423.974V80.7598C423.974 67.3016 430.027 60.055 441.488 60.055C452.692 60.055 458.744 67.3016 458.744 80.7598V121.782H466.985V80.3716C466.985 62.5136 458.101 52.1612 443.034 52.1612C434.148 52.1612 427.58 55.7845 423.845 61.996C423.974 58.502 423.974 55.0081 423.974 51.1259V22.1389H415.732V121.782Z" fill="#2B2231"/>
<path d="M475.758 121.786H530.102L532.678 103.41H505.506L532.291 55.789V53.2008H480.264L477.689 71.5764H502.543L475.758 119.198V121.786Z" fill="#2B2231"/>
<path d="M572.537 123.467C586.058 123.467 596.876 117.774 604.474 107.68L591.339 96.6804C586.317 103.021 580.135 106.127 572.923 106.127C563.908 106.127 557.342 101.21 555.41 93.057H604.474C607.308 64.3288 590.181 51.5177 571.508 51.5177C551.675 51.5177 536.222 66.1406 536.222 87.7515C536.222 108.715 550.773 123.467 572.537 123.467ZM555.667 78.9519C557.856 72.352 563.651 68.0818 571.378 68.0818C578.977 68.0818 584.127 71.9638 585.672 78.9519H555.667Z" fill="#2B2231"/>
<path d="M644.862 123.079C652.46 123.079 659.929 120.491 664.564 115.573L664.693 121.785H682.722V21.7542H662.375V41.2946C662.375 46.9884 662.504 52.4234 662.761 57.729C657.997 53.8469 651.557 51.9057 644.862 51.9057C626.446 51.9057 610.863 66.3993 610.863 87.4924C610.863 108.586 626.446 123.079 644.862 123.079ZM631.21 87.4924C631.21 77.1399 638.165 70.5403 647.565 70.5403C656.838 70.5403 663.663 77.1399 663.663 87.4924C663.663 97.8448 656.838 104.445 647.565 104.445C638.165 104.445 631.21 97.8448 631.21 87.4924Z" fill="#2B2231"/>
</svg>
