<svg width="365" height="269" viewBox="0 0 365 269" fill="none" xmlns="http://www.w3.org/2000/svg">
<path d="M265.588 85.1489C264.895 98.125 261.001 111.066 254.371 122.25C243.266 140.988 224.661 155.622 201.012 160.06C189.206 162.179 180.62 161.911 170.976 160.431C164.02 158.882 159.64 153.231 164.311 146.515C170.035 138.281 178.147 132.871 186.244 127.46C209.862 111.677 234.949 98.485 260.269 85.7015C263.1 84.2743 265.786 81.4509 265.588 85.1489Z" fill="#F1F0F2"/>
<path d="M282.393 54.8696C288.341 50.1643 294.086 44.1197 298.156 37.6439L298.163 37.639L298.171 37.6341C302.65 30.5027 300.106 24.064 291.9 22.1122C282.465 19.8668 274.465 20.771 264.809 22.1122C262.457 22.4388 261.858 22.9454 261.054 23.4534C259.424 24.482 259.244 27.6225 261.59 28.0134C265.883 28.2817 279.945 27.3212 283.317 28.8181C292.926 33.084 266.633 47.287 263.177 50.0364C261.104 51.6832 260.111 51.4855 258.945 48.8927C249.801 28.5631 234.91 14.1481 214.101 5.96334C201.059 0.835806 187.623 -0.338044 173.742 1.41628C166.261 2.36129 160.393 4.41577 153.521 7.09307C151.254 7.97596 148.256 9.4799 146.171 10.6781C141.284 13.4812 136.786 16.6251 132.692 20.1276C129.126 23.1783 131.22 28.6396 135.893 29.0783L221.918 37.1547C225.736 37.5131 227.622 41.9721 225.222 44.9613L177.242 106.312C175.497 108.484 177.725 112.067 180.312 111.032C199.832 103.198 218.808 93.6911 237.597 84.244C253.265 76.3656 268.675 65.7198 282.393 54.8696Z" fill="#F1F0F2"/>
<path fill-rule="evenodd" clip-rule="evenodd" d="M193.021 60.1164C196.083 56.8354 193.386 51.5187 188.929 52.0523L111.004 61.385C108.647 61.6672 106.686 63.366 106.21 65.6916C103.213 80.3401 104.409 95.0925 110.047 109.859C112.159 115.39 112.291 115.55 106.591 116.251C105.848 116.342 105.103 116.443 104.358 116.544C100.06 117.126 95.7227 117.714 91.3989 116.487C80.9475 113.51 97.0223 103.61 98.236 99.3793C99.1322 96.2554 94.8862 95.0853 92.2314 96.9602C83.7245 102.968 75.6257 109.979 70.6036 119.249C69.5304 121.395 69.6632 124.08 70.0669 125.531C73.0406 136.214 96.063 134.275 103.648 132.913C113.587 131.128 120.763 130.48 130.419 127.53C133.053 126.725 133.102 126.458 137.125 122.312C157.511 103.389 176.167 77.5896 193.021 60.1164Z" fill="#F1F0F2"/>
<path d="M276.889 251.658C263.607 251.658 252.368 241.185 252.368 225.942C252.368 210.699 263.607 200.226 276.889 200.226C281.719 200.226 286.362 201.629 289.8 204.434C289.613 200.6 289.521 196.672 289.521 192.558V178.437H304.195V250.723H291.192L291.1 246.235C287.757 249.788 282.368 251.658 276.889 251.658ZM267.045 225.942C267.045 233.423 272.06 238.192 278.84 238.192C285.527 238.192 290.449 233.423 290.449 225.942C290.449 218.461 285.527 213.692 278.84 213.692C272.06 213.692 267.045 218.461 267.045 225.942Z" fill="#F1F0F2"/>
<path d="M339.538 251.658C334.057 251.658 328.671 249.788 325.326 246.235L325.233 250.723H312.23V178.437H326.905V191.716C326.905 195.831 326.812 200.319 326.628 204.434C329.971 201.629 334.708 200.226 339.538 200.226C352.818 200.226 364.057 210.699 364.057 225.942C364.057 241.185 352.818 251.658 339.538 251.658ZM325.977 225.942C325.977 233.423 330.899 238.192 337.587 238.192C344.368 238.192 349.383 233.423 349.383 225.942C349.383 218.461 344.368 213.692 337.587 213.692C330.899 213.692 325.977 218.461 325.977 225.942Z" fill="#F1F0F2"/>
<path d="M57.1669 251.342C54.776 251.342 51.2815 251.158 47.695 250.79V243.341C51.4654 243.801 54.684 243.985 56.7991 243.985C63.0524 243.985 65.9952 241.961 65.9952 237.823C65.9952 234.788 64.2479 232.581 59.7419 229.638L56.5232 227.522C50.1779 223.384 47.3271 219.429 47.3271 214.187C47.3271 206.461 53.3046 201.679 63.2364 201.679C65.3515 201.679 68.0183 201.863 70.6853 202.231V209.037C67.9263 208.76 65.8113 208.669 64.4318 208.669C58.6383 208.669 55.6036 210.6 55.6036 214.095C55.6036 216.67 57.4428 218.693 61.9489 221.636L65.1676 223.752C71.7888 228.074 74.6395 232.121 74.6395 237.731C74.6395 246.284 68.2022 251.342 57.1669 251.342Z" fill="#F1F0F2"/>
<path d="M83.1733 269V202.231H90.7141L90.806 209.68C94.2087 204.438 100.83 201.311 108.095 201.311C121.337 201.311 132.189 211.704 132.189 226.511C132.189 241.318 121.337 251.71 108.095 251.71C101.29 251.71 94.9443 248.859 91.3578 244.169C91.5417 247.755 91.6336 251.434 91.6336 254.929V269H83.1733ZM90.898 226.511C90.898 237.639 98.1629 243.801 106.991 243.801C116.647 243.801 123.636 236.627 123.636 226.511C123.636 216.302 116.647 209.129 106.991 209.129C98.1629 209.129 90.898 215.382 90.898 226.511Z" fill="#F1F0F2"/>
<path d="M141.235 250.79V202.231H149.695V250.79H141.235ZM141.235 193.494V186.031L149.695 182.476V193.494H141.235Z" fill="#F1F0F2"/>
<path d="M183.651 251.434C169.121 251.434 158.73 241.226 158.73 226.602C158.73 211.887 169.121 201.679 183.651 201.679C185.95 201.679 188.617 201.863 191.468 202.323V210.14C188.617 209.68 186.226 209.496 184.571 209.496C173.995 209.496 167.19 216.578 167.19 226.602C167.19 236.535 173.995 243.525 184.571 243.525C186.226 243.525 188.617 243.341 191.468 242.973V250.79C188.617 251.25 185.95 251.434 183.651 251.434Z" fill="#F1F0F2"/>
<path d="M222.538 251.71C207.64 251.71 197.616 240.95 197.616 226.695C197.616 212.163 207.916 201.311 221.986 201.311C234.308 201.311 245.344 209.68 245.068 227.614H205.525C205.985 237.179 212.606 244.261 222.629 244.261C229.71 244.261 235.504 240.766 239.09 234.88L244.976 239.202C240.746 245.824 233.389 251.71 222.538 251.71ZM205.985 221.268H236.792C235.228 212.623 229.159 208.485 221.894 208.485C213.709 208.485 207.732 213.911 205.985 221.268Z" fill="#F1F0F2"/>
<path opacity="0.3" d="M34.8321 178.437H38.6462L4.6531 267.725H0.61084L34.8321 178.437Z" fill="#F1F0F2"/>
</svg>
