<svg width="401" height="401" viewBox="0 0 401 401" fill="none" xmlns="http://www.w3.org/2000/svg">
<path d="M320.612 205.897C319.572 225.377 313.726 244.805 303.773 261.596C287.101 289.726 259.17 311.696 223.667 318.359C205.943 321.54 193.052 321.137 178.575 318.916C168.131 316.591 161.556 308.107 168.569 298.024C177.161 285.663 189.34 277.541 201.496 269.418C236.953 245.723 274.616 225.918 312.627 206.726C316.877 204.584 320.911 200.345 320.612 205.897Z" fill="#F1F0F2"/>
<path d="M345.829 160.443C354.759 153.379 363.384 144.304 369.495 134.582L369.505 134.575L369.516 134.568C376.241 123.862 372.422 114.195 360.102 111.265C345.937 107.894 333.928 109.252 319.431 111.265C315.901 111.755 315 112.516 313.793 113.279C311.347 114.823 311.077 119.537 314.599 120.124C321.043 120.527 342.154 119.085 347.217 121.332C361.643 127.737 322.169 149.059 316.982 153.187C313.87 155.659 312.378 155.362 310.628 151.47C296.9 120.95 274.545 99.3087 243.304 87.0212C223.725 79.3234 203.553 77.5611 182.714 80.1948C171.484 81.6135 162.674 84.6979 152.357 88.7172C148.954 90.0427 144.453 92.3005 141.323 94.0993C133.986 98.3075 127.233 103.027 121.087 108.286C115.734 112.866 118.878 121.065 125.892 121.723L255.04 133.848C260.773 134.386 263.604 141.08 260 145.568L187.969 237.671C185.349 240.933 188.694 246.312 192.579 244.758C221.883 232.997 250.371 218.725 278.578 204.542C302.1 192.714 325.235 176.732 345.829 160.443Z" fill="#F1F0F2"/>
<path fill-rule="evenodd" clip-rule="evenodd" d="M211.673 168.311C216.271 163.386 212.222 155.404 205.531 156.205L88.5438 170.216C85.0053 170.64 82.0607 173.19 81.3465 176.681C76.8475 198.673 78.6423 220.82 87.1071 242.988C90.277 251.293 90.4756 251.532 81.9187 252.584C80.8029 252.721 79.6849 252.873 78.5651 253.025C72.1137 253.899 65.6018 254.782 59.1107 252.939C43.4203 248.469 67.553 233.607 69.3751 227.256C70.7205 222.566 64.346 220.809 60.3605 223.624C47.5893 232.643 35.4307 243.168 27.8912 257.086C26.2801 260.308 26.4794 264.338 27.0855 266.516C31.5498 282.555 66.1127 279.644 77.4998 277.599C92.4207 274.92 103.194 273.947 117.691 269.518C121.645 268.309 121.718 267.908 127.758 261.684C158.363 233.275 186.37 194.543 211.673 168.311Z" fill="#F1F0F2"/>
</svg>
